<svg xmlns="http://www.w3.org/2000/svg" viewBox="0 0 262.926 336.18">
  <defs>
    <style>
      .cls-1 {
        fill: #262317;
      }

      .cls-2 {
        fill: #b4c22d;
      }

      .cls-3, .cls-4, .cls-5 {
        fill: #a78c58;
      }

      .cls-3 {
        opacity: 0.28;
      }

      .cls-4 {
        opacity: 0.74;
      }

      .cls-6, .cls-7 {
        fill: #fff;
      }

      .cls-7 {
        opacity: 0.51;
      }
    </style>
  </defs>
  <g id="Group_51" data-name="Group 51" transform="translate(0 0.064)">
    <path id="Path_97" data-name="Path 97" class="cls-1" d="M98.744,101.892C81.369,90.572,60.046,80.7,35.3,72.276A15.65,15.65,0,0,1,48.463,65.3C64.126,77.8,82.685,88.993,104.8,98.6Z" transform="translate(11.164 20.672)"/>
    <path id="Path_98" data-name="Path 98" class="cls-1" d="M94.3,219.656c0,.658-5.923,2.238-12.768,2.238S68.9,220.841,68.9,220.183s5.792-.526,12.636-.526S94.3,219.13,94.3,219.656Z" transform="translate(21.791 69.415)"/>
    <path id="Path_99" data-name="Path 99" class="cls-1" d="M120.014,129.61c.395-.263,2.633.79,4.08,2.9s2.106,4.475,1.711,4.739-1.58-1.711-3.027-3.817C121.33,131.189,119.619,129.873,120.014,129.61Z" transform="translate(37.938 40.998)"/>
    <path id="Path_100" data-name="Path 100" class="cls-2" d="M262.331,80.839a62.8,62.8,0,0,1-2.106,9.609c-10.4,16.717-8.951,31.459-13.031,45.279a42.087,42.087,0,0,1-4.475,10.4c-15.4,19.217-27.378,38.04-32.907,56.2v24.351L203.363,248l-4.08,13.558q-13.821,31-32.907,53.572c-5.4,6.45-14.084,11.583-24.614,16.19-20.534,6.055-40.409,5.528-60.153,3.027C60.943,328.033,44.49,312.369,31.2,289.2,12.5,265.116,1.448,239.317,0,211.017c1.843-62.259,24.351-81.345,50.939-92.138,16.848-5.792,33.565-6.581,50.018-1.843h0c1.843.527,3.686,1.185,5.66,1.843-.79-1.711-1.448-3.291-2.106-4.87h0C83.188,63.333,98.062,28.715,141.761,7c26.852-9.74,51.334-9.082,74.106,0,11.451,6.055,20.929,11.978,25.93,18.033l18.428,31.59A51.494,51.494,0,0,1,262.331,80.839Z" transform="translate(0 0)"/>
    <path id="Path_101" data-name="Path 101" class="cls-3" d="M170.5,17.1c.921,9.609,2.633,19.086,11.583,27.378,4.87,3.949,10.793,5.792,17.111,6.581a76.866,76.866,0,0,0-9.609-24.088C185.637,21.575,178.924,18.548,170.5,17.1Z" transform="translate(53.923 5.428)"/>
    <path id="Path_102" data-name="Path 102" class="cls-4" d="M173.6,20.8c.658,6.845,1.843,13.558,8.161,19.481A22.663,22.663,0,0,0,194,45.019a53.6,53.6,0,0,0-6.845-17.111C184.393,23.959,179.655,21.853,173.6,20.8Z" transform="translate(54.903 6.599)"/>
    <path id="Path_103" data-name="Path 103" class="cls-5" d="M176.6,23c.395,4.212,1.185,8.424,5.133,12.11a13.875,13.875,0,0,0,7.5,2.9,35.977,35.977,0,0,0-4.212-10.662C183.181,24.974,180.286,23.658,176.6,23Z" transform="translate(55.852 7.294)"/>
    <path id="Path_104" data-name="Path 104" class="cls-3" d="M83.5,91.9c21.192,20.27,46.991,45.148,51.729,49.623,7.5-1.843,6.976-3.949,3.027-6.318C127.726,134.02,104.034,110.2,83.5,91.9Z" transform="translate(26.408 29.085)"/>
    <path id="Path_105" data-name="Path 105" class="cls-3" d="M205.122,61.408a62.8,62.8,0,0,1-2.106,9.609c-10.4,16.717-8.951,31.459-13.031,45.279a8.594,8.594,0,0,1-2.633.658c-5.66-10.267-7.634-20.27-5.792-30.274,3.422-11.188,9.872-19.217,18.559-24.351A10.681,10.681,0,0,1,205.122,61.408Z" transform="translate(57.209 19.431)"/>
    <path id="Path_106" data-name="Path 106" class="cls-3" d="M163.479,188.3l-4.08,13.558q-13.821,31-32.907,53.572c-3.949,0,23.956-60.943,29.879-62.522A26.383,26.383,0,0,1,163.479,188.3Z" transform="translate(39.884 59.573)"/>
    <circle id="Ellipse_7" data-name="Ellipse 7" class="cls-3" cx="23.693" cy="23.693" r="23.693" transform="translate(112.935 179.953)"/>
    <circle id="Ellipse_8" data-name="Ellipse 8" class="cls-6" cx="20.27" cy="20.27" r="20.27" transform="translate(114.91 184.824)"/>
    <circle id="Ellipse_9" data-name="Ellipse 9" class="cls-1" cx="4.607" cy="4.607" r="4.607" transform="translate(127.414 200.487)"/>
    <circle id="Ellipse_10" data-name="Ellipse 10" class="cls-3" cx="23.693" cy="23.693" r="23.693" transform="translate(39.883 179.953)"/>
    <circle id="Ellipse_11" data-name="Ellipse 11" class="cls-6" cx="20.27" cy="20.27" r="20.27" transform="translate(43.305 181.928)"/>
    <circle id="Ellipse_12" data-name="Ellipse 12" class="cls-1" cx="4.607" cy="4.607" r="4.607" transform="translate(63.575 199.039)"/>
    <path id="Path_107" data-name="Path 107" class="cls-1" d="M128.537,199.824c-.79,3.817-5,16.98-43.305,10.793C61.8,210.617,41.4,201.14,41.4,198.9s20.8,7.766,43.832,3.817C109.977,198.508,131.037,187.846,128.537,199.824Z" transform="translate(13.093 61.475)"/>
    <path id="Path_108" data-name="Path 108" class="cls-1" d="M119.507,133.81c.395-.263,2.633.79,4.08,2.9s2.106,4.475,1.711,4.739-1.58-1.711-3.027-3.817C120.954,135.389,119.243,134.073,119.507,133.81Z" transform="translate(37.787 42.327)"/>
    <path id="Path_109" data-name="Path 109" class="cls-1" d="M21.521,141.474c-.263-.263,0-2.764,1.711-4.739s3.686-3.291,4.08-3.027-1.185,1.974-2.9,3.949C22.706,139.763,21.916,141.737,21.521,141.474Z" transform="translate(6.779 42.297)"/>
    <path id="Path_110" data-name="Path 110" class="cls-1" d="M87.209,234.149c0,.395-2.106,1.711-4.739,1.711s-4.87-.79-4.87-1.185,2.238-.395,4.87-.395S87.209,233.623,87.209,234.149Z" transform="translate(24.542 74.008)"/>
    <path id="Path_111" data-name="Path 111" class="cls-1" d="M94.3,220.556c0,.658-5.923,2.238-12.768,2.238S68.9,221.741,68.9,221.083s5.792-.526,12.636-.526S94.3,220.03,94.3,220.556Z" transform="translate(21.791 69.7)"/>
    <path id="Path_112" data-name="Path 112" class="cls-7" d="M90.1,66.806c1.316-1.448,4.212-3.027,5.528-1.448,1.053,1.185,2.106,4.08,1.448,5.528s-3.554,1.711-5.528,1.448C89.309,72.071,88.519,68.517,90.1,66.806Z" transform="translate(28.233 20.483)"/>
    <path id="Path_113" data-name="Path 113" class="cls-7" d="M55.319,106.424c.263-.395,1.053-.79,1.185-.263a1.77,1.77,0,0,1,.263,1.185c0,.527-.79.527-1.185.263S55.187,106.951,55.319,106.424Z" transform="translate(17.47 33.515)"/>
    <path id="Path_114" data-name="Path 114" class="cls-7" d="M97.069,48.578c.395.132.79-.527,1.185-.263s.79,1.316.263,1.185c-.658-.263-.921.263-1.185.263C96.806,49.763,96.542,48.315,97.069,48.578Z" transform="translate(30.609 15.281)"/>
    <path id="Path_115" data-name="Path 115" class="cls-7" d="M40.608,114.49a6.13,6.13,0,0,0,2.633-.79c1.316,2.5-.658,3.949-2.106,3.159C40.345,116.2,39.687,114.358,40.608,114.49Z" transform="translate(12.701 35.979)"/>
    <path id="Path_116" data-name="Path 116" class="cls-7" d="M97.538,30.745c.263-.395-.921-1.316-2.238-1.974,1.58-2.633,3.949-1.448,3.949.263C99.249,29.955,97.011,31.534,97.538,30.745Z" transform="translate(30.14 8.632)"/>
    <path id="Path_117" data-name="Path 117" class="cls-7" d="M113.616,28.976s-1.316-.658-1.316-1.316.921-1.974,1.316-1.316a6.24,6.24,0,0,0,1.316,1.316C115.591,28.054,113.616,28.976,113.616,28.976Z" transform="translate(35.516 8.295)"/>
    <path id="Path_118" data-name="Path 118" class="cls-7" d="M69.533,107.124c.263-.395,1.053-.79,1.185-.263a1.77,1.77,0,0,1,.263,1.185c0,.527-.79.527-1.185.263A.83.83,0,0,1,69.533,107.124Z" transform="translate(21.947 33.736)"/>
    <path id="Path_119" data-name="Path 119" class="cls-7" d="M102.008,93.79A6.13,6.13,0,0,0,104.64,93c1.316,2.5-.658,3.949-2.106,3.159C101.745,95.633,101.087,93.658,102.008,93.79Z" transform="translate(32.119 29.433)"/>
    <path id="Path_120" data-name="Path 120" class="cls-7" d="M67.038,133.045c.263-.395-.921-1.316-2.238-1.974,1.58-2.633,3.949-1.448,3.949.263C68.749,132.255,66.511,133.966,67.038,133.045Z" transform="translate(20.494 40.986)"/>
    <path id="Path_121" data-name="Path 121" class="cls-7" d="M89.616,112.479s-1.316-.658-1.316-1.316c0-.79.921-1.974,1.316-1.316a6.239,6.239,0,0,0,1.316,1.316C91.459,111.557,89.616,112.479,89.616,112.479Z" transform="translate(27.926 34.7)"/>
    <path id="Path_122" data-name="Path 122" class="cls-7" d="M118.347,54.143c.132-.263-.395-.658-.921-.921-.395-.263.395-.921.921-.921a.9.9,0,0,1,.921.921C119.268,53.748,118.215,54.538,118.347,54.143Z" transform="translate(37.104 16.561)"/>
  </g>
</svg>
