<svg xmlns="http://www.w3.org/2000/svg" xmlns:xlink="http://www.w3.org/1999/xlink" viewBox="0 0 308.925 396.969">
  <defs>
    <style>
      .cls-1 {
        fill: #6f673d;
      }

      .cls-2 {
        fill: url(#radial-gradient);
      }

      .cls-3, .cls-4, .cls-5 {
        fill: #656f07;
      }

      .cls-3 {
        opacity: 0.45;
      }

      .cls-4 {
        opacity: 0.5;
      }

      .cls-6, .cls-7 {
        fill: url(#linear-gradient);
      }

      .cls-7 {
        opacity: 0.35;
      }

      .cls-8 {
        fill: url(#linear-gradient-3);
      }
    </style>
    <radialGradient id="radial-gradient" cx="0.475" cy="0.375" r="0.896" gradientTransform="matrix(1.197, -0.363, 0.6, 1.197, -0.319, 0.099)" gradientUnits="objectBoundingBox">
      <stop offset="0" stop-color="#a6bf00"/>
      <stop offset="1" stop-color="#536000"/>
    </radialGradient>
    <linearGradient id="linear-gradient" x1="0.647" y1="-0.094" x2="2.856" y2="1.868" gradientUnits="objectBoundingBox">
      <stop offset="0" stop-color="#8ca200" stop-opacity="0.129"/>
      <stop offset="1" stop-color="#465100"/>
    </linearGradient>
    <linearGradient id="linear-gradient-3" x1="0.305" y1="0.684" x2="0.746" y2="0.937" gradientUnits="objectBoundingBox">
      <stop offset="0" stop-color="#656f07" stop-opacity="0.031"/>
      <stop offset="1" stop-color="#333804"/>
    </linearGradient>
  </defs>
  <g id="Group_49" data-name="Group 49" transform="translate(-7186.528 -1580.578)">
    <g id="Group_48" data-name="Group 48" transform="translate(7186.528 1580.578)">
      <path id="Path_60" data-name="Path 60" class="cls-1" d="M8592.252,852.056c-1.266.562-7.252,5.44-7.252,5.44s-8.645,4.512-8.16,4.835c.392.261,13.3,4.231,33.846,13.6s48.353,23.874,48.353,23.874l2.72-10.577s-23.723-7.328-41.1-16.621A128.059,128.059,0,0,1,8592.252,852.056Z" transform="translate(-8523.763 -753.386)"/>
      <path id="Union_3" data-name="Union 3" class="cls-2" d="M98.708,395.64a96.333,96.333,0,0,1-38.5-23.964c-17.263-17.909-33.452-47.332-33.452-47.332a169.813,169.813,0,0,1-20.37-39.882C1.659,270.664.99,254.942,0,240.622c4.03-52.018,12.07-60.65,28.78-82.268,20.254-26.2,63.577-26.024,95.93-21.4-4.756-6.91-8.777-14.4-10.68-21.816-6.58-25.634-3.143-42.036-3.143-42.036s2.084-20.068,18.464-38.893c5.738-6.594,13.1-11.768,20.822-17.286,9.161-7.08,26.216-11.79,36.536-13.357,9.288-1.411,17.05-.694,23.964-2.75,11.581-3.444,40.521,5.1,40.521,5.1s15.608,6.421,27,17.166,11.991,13.341,18.571,25.814A115.428,115.428,0,0,1,306.137,73.1s2.788,8.077,2.788,14.951a31.656,31.656,0,0,1-2.788,12.548s-5.027,14.981-9.372,32.156c-2.715,10.731-3.206,21.58-7.914,32.273-3.9,8.869-8.6,14.565-11.756,19.4-6.969,10.694-11.72,15.791-20.385,28.432-4.717,6.881-3.926,10.088-7.26,12.835a54.268,54.268,0,0,1-.671,8.471s-.72,33.982-10.214,62.465a176.015,176.015,0,0,1-26.241,49.281s-16.07,30.61-44.474,43.04c-14.753,6.456-32.833,8.007-46.8,8.007A177.079,177.079,0,0,1,98.708,395.64Z" transform="translate(0 0)"/>
      <path id="Path_64" data-name="Path 64" class="cls-3" d="M716.06,81.3l5.308,12.411,2.892,7.036a110.9,110.9,0,0,0,9.469,8.381,35.531,35.531,0,0,0,9.311,5.185,17.521,17.521,0,0,0-2.857-17.247C733.439,88.808,716.06,81.3,716.06,81.3Z" transform="translate(-453.512 -55.926)"/>
      <path id="Path_65" data-name="Path 65" class="cls-4" d="M716.06,81.3l3.722,8.7,2.028,4.933a77.747,77.747,0,0,0,6.639,5.876,24.911,24.911,0,0,0,6.528,3.635,12.284,12.284,0,0,0-2-12.092C728.245,86.563,716.06,81.3,716.06,81.3Z" transform="translate(-448.699 -51.112)"/>
      <path id="Path_66" data-name="Path 66" class="cls-5" d="M716.06,81.3l1.907,4.458,1.039,2.527a39.824,39.824,0,0,0,3.4,3.01,12.762,12.762,0,0,0,3.344,1.862,6.293,6.293,0,0,0-1.026-6.195C722.3,83.994,716.06,81.3,716.06,81.3Z" transform="translate(-443.145 -45.558)"/>
      <path id="Path_67" data-name="Path 67" class="cls-6" d="M8556.443,981.007c-1.324,1.289-25.063.277-45.147,9.222s-26.113,12.536-35.187,25.229S8461.5,1045,8461.5,1071.228s14.606,50.459,14.606,50.459,18.258,33.086,35.188,56.655,32.533,37.623,32.533,37.623-17.745-22.329-29.937-49.71c-11.354-25.5-17.2-55.485-17.2-74.445,0-39.172,15.849-72.844,26.557-88.3C8533.259,989.055,8556.443,981.007,8556.443,981.007Z" transform="translate(-8451.145 -834.589)"/>
      <path id="Path_68" data-name="Path 68" class="cls-7" d="M22.458,0c-.314.821-5.929.177-10.679,5.876S5.6,13.865,3.455,21.953,0,40.779,0,57.49A166.692,166.692,0,0,0,3.455,89.643s4.319,21.083,8.324,36.1a213.959,213.959,0,0,0,7.7,23.973,295.25,295.25,0,0,1-7.082-31.676A324.6,324.6,0,0,1,8.324,70.6c0-24.961,3.749-46.417,6.282-56.267A31.8,31.8,0,0,1,22.458,0Z" transform="matrix(0.559, -0.829, 0.829, 0.559, 113.67, 154.982)"/>
    </g>
    <path id="Path_69" data-name="Path 69" class="cls-8" d="M7687.17,2262.852s-.074.683-.254,2.05c-1.066,8.136-1.247,32.628-19.993,66.917-5.06,10.064-10.387,16.829-14.405,22.794-5.386,8.912-9.448,14.608-15.8,21.359-2.467,2.62-5.549,5.454-8.954,8.764-6.844,6.655-13.632,9.675-18.738,12.089-7.922,3.746-12.353,4.4-12.353,4.4s35.525-29.7,58.929-62.072S7687.17,2262.852,7687.17,2262.852Z" transform="translate(-253.832 -427.793)"/>
  </g>
</svg>
