<svg xmlns="http://www.w3.org/2000/svg" xmlns:xlink="http://www.w3.org/1999/xlink" viewBox="0 0 1920 1080">
  <defs>
    <style>
      .cls-1 {
        clip-path: url(#clip-Web_1920_1);
      }

      .cls-19, .cls-2, .cls-20, .cls-21, .cls-27, .cls-28, .cls-30, .cls-31, .cls-32, .cls-33, .cls-7, .cls-8, .cls-9 {
        stroke: #707070;
      }

      .cls-2 {
        fill: url(#linear-gradient);
      }

      .cls-3 {
        opacity: 0.72;
        fill: url(#linear-gradient-2);
      }

      .cls-4 {
        opacity: 0.84;
        fill: url(#linear-gradient-3);
      }

      .cls-5 {
        opacity: 0.79;
        fill: url(#linear-gradient-4);
      }

      .cls-13, .cls-6 {
        opacity: 0.73;
      }

      .cls-6 {
        fill: url(#linear-gradient-5);
      }

      .cls-7 {
        fill: url(#linear-gradient-6);
      }

      .cls-8 {
        opacity: 0.52;
        fill: url(#linear-gradient-7);
      }

      .cls-9 {
        opacity: 0.3;
        fill: url(#linear-gradient-8);
      }

      .cls-10 {
        fill: #a3a428;
      }

      .cls-11 {
        opacity: 0.66;
        fill: url(#linear-gradient-9);
      }

      .cls-12 {
        opacity: 0.57;
        fill: url(#linear-gradient-10);
      }

      .cls-13 {
        fill: url(#linear-gradient-11);
      }

      .cls-14 {
        fill: url(#linear-gradient-12);
      }

      .cls-15 {
        opacity: 0.39;
        fill: url(#linear-gradient-13);
      }

      .cls-16, .cls-17, .cls-19, .cls-20 {
        fill: #403e15;
      }

      .cls-17, .cls-20, .cls-22 {
        opacity: 0.22;
      }

      .cls-18, .cls-21 {
        fill: #585815;
      }

      .cls-22 {
        fill: url(#linear-gradient-14);
      }

      .cls-23 {
        fill: #d96944;
      }

      .cls-24 {
        fill: #fff;
      }

      .cls-25 {
        fill: #86382c;
      }

      .cls-26 {
        fill: #9d3f33;
      }

      .cls-27, .cls-28, .cls-30, .cls-31, .cls-32, .cls-33, .cls-35 {
        fill: none;
      }

      .cls-27 {
        opacity: 0.8;
      }

      .cls-28 {
        opacity: 0.65;
      }

      .cls-29 {
        fill: #ddcec7;
      }

      .cls-30 {
        opacity: 0.56;
      }

      .cls-32 {
        opacity: 0.6;
      }

      .cls-33 {
        opacity: 0.5;
      }

      .cls-34 {
        stroke: none;
      }
    </style>
    <linearGradient id="linear-gradient" x1="0.485" y1="0.865" x2="0.49" y2="-0.099" gradientUnits="objectBoundingBox">
      <stop offset="0" stop-color="#e4ecee"/>
      <stop offset="1" stop-color="#489fb1"/>
    </linearGradient>
    <linearGradient id="linear-gradient-2" x1="0.817" y1="1.493" x2="0.614" y2="0.231" gradientUnits="objectBoundingBox">
      <stop offset="0" stop-color="#64b2c2" stop-opacity="0.11"/>
      <stop offset="0.55" stop-color="#92c9d4" stop-opacity="0.373"/>
      <stop offset="1" stop-color="#fff"/>
    </linearGradient>
    <linearGradient id="linear-gradient-3" x1="0.903" y1="1.27" x2="0.614" y2="0.231" gradientUnits="objectBoundingBox">
      <stop offset="0" stop-color="#64b2c2" stop-opacity="0.11"/>
      <stop offset="0.549" stop-color="#80c0cd" stop-opacity="0.271"/>
      <stop offset="1" stop-color="#fff"/>
    </linearGradient>
    <linearGradient id="linear-gradient-4" x1="0.018" y1="2.203" x2="0.471" y2="0.556" gradientUnits="objectBoundingBox">
      <stop offset="0" stop-color="#64b2c2"/>
      <stop offset="0.657" stop-color="#68b4c3"/>
      <stop offset="1" stop-color="#d7e4e6"/>
    </linearGradient>
    <linearGradient id="linear-gradient-5" x1="0.5" y1="-0.169" x2="0.533" y2="1.11" gradientUnits="objectBoundingBox">
      <stop offset="0" stop-color="#b8b27e"/>
      <stop offset="1" stop-color="#5c593f"/>
    </linearGradient>
    <linearGradient id="linear-gradient-6" x1="0.5" y1="0.142" x2="0.47" y2="1.076" gradientUnits="objectBoundingBox">
      <stop offset="0" stop-color="#9c862f"/>
      <stop offset="1" stop-color="#4e4318"/>
    </linearGradient>
    <linearGradient id="linear-gradient-7" x1="0.304" y1="-1.066" x2="0.492" y2="0.746" gradientUnits="objectBoundingBox">
      <stop offset="0" stop-color="#585815"/>
      <stop offset="1" stop-color="#121204" stop-opacity="0.188"/>
    </linearGradient>
    <linearGradient id="linear-gradient-8" x1="0.469" y1="0.145" x2="0.529" y2="0.861" gradientUnits="objectBoundingBox">
      <stop offset="0" stop-color="#585815"/>
      <stop offset="1" stop-color="#121204"/>
    </linearGradient>
    <linearGradient id="linear-gradient-9" x1="0.439" y1="0.837" x2="1.092" y2="-0.649" gradientUnits="objectBoundingBox">
      <stop offset="0" stop-color="#818120" stop-opacity="0.239"/>
      <stop offset="1" stop-color="#414110"/>
    </linearGradient>
    <linearGradient id="linear-gradient-10" x1="0.548" y1="0.626" x2="0.871" y2="-0.315" gradientUnits="objectBoundingBox">
      <stop offset="0" stop-color="#818120" stop-opacity="0.341"/>
      <stop offset="1" stop-color="#414110"/>
    </linearGradient>
    <linearGradient id="linear-gradient-11" x1="0.287" y1="0.085" x2="0.764" y2="0.603" gradientUnits="objectBoundingBox">
      <stop offset="0" stop-color="#818120" stop-opacity="0.502"/>
      <stop offset="1" stop-color="#262609"/>
    </linearGradient>
    <linearGradient id="linear-gradient-12" x1="0.435" y1="-0.147" x2="0.574" y2="1.729" gradientUnits="objectBoundingBox">
      <stop offset="0" stop-color="#7c790d"/>
      <stop offset="1" stop-color="#3e3d07"/>
    </linearGradient>
    <linearGradient id="linear-gradient-13" x1="0.868" y1="0.452" x2="0.193" y2="1.106" gradientUnits="objectBoundingBox">
      <stop offset="0" stop-color="#545212" stop-opacity="0"/>
      <stop offset="0.774" stop-color="#212007" stop-opacity="0.753"/>
      <stop offset="1" stop-color="#111004"/>
    </linearGradient>
    <linearGradient id="linear-gradient-14" x1="0.5" x2="0.418" y2="0.795" gradientUnits="objectBoundingBox">
      <stop offset="0" stop-color="#343315"/>
      <stop offset="1" stop-color="#0d0c04" stop-opacity="0.09"/>
    </linearGradient>
    <clipPath id="clip-Web_1920_1">
      <rect width="1920" height="1080"/>
    </clipPath>
  </defs>
  <g id="Web_1920_1" data-name="Web 1920 – 1" class="cls-1">
    <rect class="cls-24" width="1920" height="1080"/>
    <g id="Rectangle_10" data-name="Rectangle 10" class="cls-2" transform="translate(-58 -29)">
      <rect class="cls-34" width="2162" height="832"/>
      <rect class="cls-35" x="0.5" y="0.5" width="2161" height="831"/>
    </g>
    <path id="Path_13" data-name="Path 13" class="cls-3" d="M4512.6,135.1s-87.211,23.381-150.166,59.751-101.65,85.729-101.65,85.729-31.861-12.528-63.049-12.528-61.7,12.528-61.7,12.528-50.008,1.591-77.73,36.662-33.161,103.623-33.161,103.623-55.179-9.742-100.806,0-44.428,7.982-75.185,34.725-17.812,43.022-47.845,72.248-66.983,30.744-66.983,30.744-67.834-18.185-113.461,0S3540,649.475,3540,649.475l-39.427,47.453L3433.725,740.4s-55.438,16.674-84.894,30.313-32.929,24.242-32.929,24.242H4512.6Z" transform="translate(-2433.513 151.981) rotate(-5)"/>
    <path id="Path_12" data-name="Path 12" class="cls-4" d="M4201.739,135.1s-64.557,17.258-111.157,44.1-75.245,63.278-75.245,63.278-23.584-9.247-46.671-9.247-45.675,9.247-45.675,9.247-37.017,1.174-57.539,27.06-24.547,76.485-24.547,76.485-40.845-7.191-74.619,0-32.887,5.891-55.655,25.631-13.185,31.755-35.416,53.327-49.583,22.692-49.583,22.692-50.213-13.423-83.988,0-59.862,67.09-59.862,67.09L3452.6,549.79l-49.48,32.087s-41.037,12.307-62.841,22.374-24.375,17.893-24.375,17.893h885.837Z" transform="matrix(1, 0.017, -0.017, 1, -2235.82, -70.543)"/>
    <path id="Path_14" data-name="Path 14" class="cls-5" d="M-80.033,195.636s65.027,5.558,106.711,26.678,60.025,57.8,60.025,57.8,50.576-21.676,97.818,8.893,91.149,113.38,91.149,113.38,45.574-8.893,84.479,0,71.141,35.57,71.141,35.57,23.343,22.787,62.248,37.793,93.372,22.231,93.372,22.231H-80.033Z" transform="translate(57 3)"/>
    <path id="Path_11" data-name="Path 11" class="cls-6" d="M2040.4,517.326s-130.777-45.8-277.449-66.028-283.847,0-283.847,0-96.818,8.676-150.284,28.906-88.974,37.121-88.974,37.121-48.02,17.341-126.053,23.121-186.077,0-186.077,0l280.338,182.076H2040.4Z" transform="translate(122 14)"/>
    <path id="Path_8" data-name="Path 8" class="cls-7" d="M2176.971,514.743s227.017-25.652,468.57-15.391,362.543,39.333,725.087,92.346,673.784,82.085,673.784,82.085v220.6H2176.971Z" transform="translate(-2200 -27)"/>
    <path id="Path_9" data-name="Path 9" class="cls-8" d="M-78.032,439.293s405.831-44.46,696.511,0,619.705,128.939,619.705,128.939-231.207,6.669-507.322,43.8S-66.472,702.291-66.472,702.291Z" transform="translate(6 56)"/>
    <path id="Path_10" data-name="Path 10" class="cls-9" d="M1749.877,731.125s-219.257-30.355-423.352-30.355S933.5,731.125,933.5,731.125l83.813,242.834h653.16Z" transform="translate(-23 -16)"/>
    <path id="Path_1" data-name="Path 1" class="cls-10" d="M-44.463,575.794v593.579H2003.05V980.405S1374.457,712.517,862.579,611.364-44.463,575.794-44.463,575.794Z" transform="translate(-3 64)"/>
    <path id="Path_3" data-name="Path 3" class="cls-10" d="M3972.755,580.24s-147.406,12.716-356.381,72.083S3140,824.412,3140,824.412l832.753,263.9Z" transform="matrix(0.999, -0.035, 0.035, 0.999, -1906.348, 126.614)"/>
    <path id="Path_4" data-name="Path 4" class="cls-11" d="M3972.755,580.24s-135.368,1.631-345.879,60.561S3130.71,815.959,3130.71,815.959l859.684,269.392Z" transform="translate(-1765.21 -163.168) rotate(3)"/>
    <path id="Path_5" data-name="Path 5" class="cls-12" d="M3972.755,580.24s-135.368,1.631-345.879,60.561S3130.71,815.959,3130.71,815.959l859.684,269.392Z" transform="translate(-1729.667 167.302) rotate(-1)"/>
    <path id="Path_6" data-name="Path 6" class="cls-13" d="M3972.755,580.24s-135.368,1.631-345.879,60.561S3130.71,815.959,3130.71,815.959l859.684,269.392Z" transform="translate(-1639.21 51.832) rotate(3)"/>
    <path id="Path_2" data-name="Path 2" class="cls-14" d="M-44.463,575.794v593.579H2003.05V980.405s-7.088-15.954-33.885-26.955c-148.106-60.8-673.026-256.41-1106.586-342.087C350.7,510.211-44.463,575.794-44.463,575.794Z" transform="translate(-3 76)"/>
    <path id="Path_7" data-name="Path 7" class="cls-15" d="M2176.457,608.24S2620.927,561,2980.52,678.826s567.151,446.085,567.151,446.085H2176.457Z" transform="translate(-2199 36)"/>
    <g id="Group_4" data-name="Group 4" transform="translate(-352.537 -723.044)">
      <path id="Subtraction_1" data-name="Subtraction 1" class="cls-16" d="M53.9,171.828h0c-.009-.006-.961-.617-2.538-1.717-1.466-1.023-3.8-2.7-6.593-4.871-3.14-2.441-6.208-5-9.12-7.6-3.64-3.255-7.044-6.591-10.117-9.916s-6.328-7.19-9.674-11.491c-2.677-3.441-5.417-7.165-8.145-11.07C3.078,118.524.03,113.578,0,113.529v0c.038-.112.961-2.787,2.557-7.113,1.509-4.091,3.96-10.577,7.063-18.239L16.8,91.718l-6.788-4.5C14.172,76.99,18.44,67.26,22.694,58.3,26.22,50.873,30.361,42.661,35,33.893L50.45,41.519,36.031,31.96c4.94-9.271,9.535-17.467,12.52-22.709C51.782,3.574,53.878.035,53.9,0l.007.012c.545.911,5.513,9.235,11.96,20.686,3.963,7.039,7.688,13.84,11.07,20.217,4.228,7.97,7.93,15.294,11,21.768,1.943,4.092,3.853,8.307,5.678,12.525L78.875,82.631l15.568-5.5c2.061,4.836,4.046,9.758,5.9,14.629,1.482,3.9,2.884,7.773,4.167,11.519,2.179,6.362,3.278,10.213,3.289,10.251-.108.167-2.7,4.155-6.9,9.876-2.492,3.4-5.045,6.715-7.587,9.864-3.177,3.937-6.347,7.618-9.421,10.943-.239.259-.48.518-.717.771L68.653,133.934,81.584,146.66c-2.961,3.093-6.259,6.34-9.8,9.652-2.834,2.65-5.832,5.347-8.908,8.016-5.244,4.55-8.938,7.471-8.975,7.5Z" transform="translate(451.161 1205.165)"/>
      <path id="Subtraction_2" data-name="Subtraction 2" class="cls-17" d="M34.327,124.35h0c-.024-.017-2.427-1.774-5.815-4.768-2-1.767-3.954-3.618-5.808-5.5-2.318-2.356-4.486-4.77-6.443-7.176s-4.03-5.2-6.161-8.316C8.395,96.1,6.65,93.4,4.912,90.576,1.955,85.767.019,82.2,0,82.16v0c.06-.2.617-2.03,1.589-5.024.938-2.893,2.463-7.483,4.395-12.919L10.7,66.837,6.237,63.5C8.931,55.961,11.7,48.791,14.454,42.19,16.624,37,19.163,31.265,22,25.159L32.131,30.8l-9.463-7.071c3.207-6.857,6.206-12.942,8.157-16.84,2.1-4.193,3.489-6.86,3.5-6.886l.008.014c.35.664,3.534,6.73,7.614,14.965,2.524,5.094,4.9,10.016,7.05,14.63,2.693,5.768,5.05,11.068,7.008,15.753,1.3,3.109,2.574,6.313,3.79,9.523l-9.563,5.428,10.093-4.02C61.612,59.736,62.85,63.238,64,66.7c.924,2.771,1.8,5.525,2.6,8.184,1.367,4.544,2.045,7.248,2.052,7.275-.07.122-1.734,3.026-4.4,7.147-1.587,2.458-3.213,4.859-4.832,7.139-2.024,2.849-4.042,5.513-6,7.919-.174.214-.353.432-.531.649l-9.172-7.869,8.173,9.066c-1.883,2.231-3.978,4.572-6.226,6.959-1.8,1.91-3.7,3.854-5.653,5.777-3.331,3.283-5.667,5.382-5.69,5.4Z" transform="translate(475.907 1526.121) rotate(-151)"/>
      <path id="Path_16" data-name="Path 16" class="cls-18" d="M998.416,1910.345l-5.308,66.848L991.3,2017.75l7.117,1.527,6.1-1.527-2.992-42.115Z" transform="translate(-492.786 -614.011)"/>
    </g>
    <g id="Group_8" data-name="Group 8" transform="translate(130.463 -735.235)">
      <path id="Subtraction_1-2" data-name="Subtraction 1" class="cls-16" d="M13.459,42.908h0s-.24-.154-.634-.429c-.366-.255-.949-.674-1.646-1.216-.784-.61-1.55-1.249-2.277-1.9-.909-.813-1.759-1.646-2.526-2.476s-1.58-1.8-2.416-2.869c-.668-.859-1.353-1.789-2.034-2.764C.769,29.6.008,28.362,0,28.35H0c.01-.028.24-.7.638-1.776.377-1.022.989-2.641,1.764-4.554l1.792.885L2.5,21.78C3.539,19.226,4.6,16.8,5.667,14.558c.88-1.854,1.915-3.9,3.074-6.094l3.857,1.9L9,7.981c1.234-2.315,2.381-4.362,3.126-5.671C12.931.893,13.454.009,13.459,0l0,0c.136.228,1.377,2.306,2.987,5.166.99,1.758,1.92,3.456,2.764,5.048,1.056,1.99,1.98,3.819,2.748,5.436.485,1.022.962,2.074,1.418,3.128L19.7,20.634l3.888-1.374c.515,1.208,1.01,2.437,1.473,3.653.37.973.72,1.941,1.041,2.876.544,1.589.819,2.55.821,2.56-.027.042-.675,1.038-1.724,2.466-.622.848-1.26,1.677-1.895,2.463-.793.983-1.585,1.9-2.352,2.733l-.179.193-3.625-2.759,3.229,3.178c-.739.772-1.563,1.583-2.448,2.41-.708.662-1.456,1.335-2.225,2-1.309,1.136-2.232,1.866-2.241,1.873Z" transform="translate(424.675 1205.165)"/>
      <path id="Subtraction_2-2" data-name="Subtraction 2" class="cls-17" d="M8.572,31.052h0c-.006,0-.606-.443-1.452-1.191-.5-.441-.987-.9-1.45-1.374C5.091,27.9,4.549,27.3,4.06,26.7s-1.006-1.3-1.539-2.077c-.426-.622-.861-1.295-1.3-2C.488,21.417,0,20.525,0,20.517H0c.015-.05.154-.507.4-1.255.234-.723.615-1.869,1.1-3.226l1.177.655-1.114-.832c.673-1.883,1.363-3.674,2.052-5.322.542-1.3,1.176-2.728,1.884-4.253l2.53,1.408L5.661,5.925C6.461,4.213,7.21,2.693,7.7,1.72,8.222.673,8.569.006,8.572,0l0,0c.087.166.882,1.681,1.9,3.737.63,1.272,1.223,2.5,1.761,3.653.672,1.44,1.261,2.764,1.75,3.934.324.776.643,1.576.946,2.378l-2.388,1.355,2.52-1c.321.86.63,1.734.918,2.6.231.692.449,1.38.649,2.044.341,1.135.511,1.81.512,1.817-.017.031-.433.756-1.1,1.785-.4.614-.8,1.213-1.207,1.783-.505.711-1.009,1.377-1.5,1.978l-.133.162-2.29-1.965,2.041,2.264c-.47.557-.993,1.142-1.555,1.738-.449.477-.924.962-1.412,1.443-.832.82-1.415,1.344-1.421,1.349Z" transform="translate(430.855 1285.313) rotate(-151)"/>
      <path id="Path_16-2" data-name="Path 16" class="cls-18" d="M993.076,1910.345l-1.326,16.693-.452,10.127,1.777.382,1.523-.382-.747-10.517Z" transform="translate(-554.799 -682.414)"/>
    </g>
    <g id="Group_10" data-name="Group 10" transform="translate(170.463 -748.435)">
      <path id="Subtraction_1-3" data-name="Subtraction 1" class="cls-16" d="M9.631,30.7h0s-.172-.11-.453-.307c-.262-.183-.679-.482-1.178-.87-.561-.436-1.109-.893-1.63-1.359-.65-.582-1.259-1.178-1.808-1.772S3.431,25.11,2.833,24.341c-.478-.615-.968-1.28-1.455-1.978C.55,21.178.005,20.294,0,20.285H0c.007-.02.172-.5.457-1.271.27-.731.708-1.89,1.262-3.259L3,16.388l-1.213-.8c.744-1.828,1.506-3.566,2.266-5.167.63-1.327,1.37-2.794,2.2-4.361l2.76,1.363L6.438,5.711c.883-1.657,1.7-3.121,2.237-4.058C9.252.639,9.627.006,9.631,0V0c.1.163.985,1.65,2.137,3.7.708,1.258,1.374,2.473,1.978,3.612.755,1.424,1.417,2.733,1.966,3.889.347.731.688,1.484,1.014,2.238l-2.634,1.326,2.782-.983c.368.864.723,1.744,1.054,2.614.265.7.515,1.389.745,2.058.389,1.137.586,1.825.588,1.832-.019.03-.483.742-1.233,1.765-.445.607-.9,1.2-1.356,1.763-.568.7-1.134,1.361-1.683,1.955l-.128.138-2.594-1.974L14.577,26.2c-.529.553-1.118,1.133-1.751,1.725-.506.473-1.042.955-1.592,1.432-.937.813-1.6,1.335-1.6,1.34Z" transform="translate(422.168 1205.165)"/>
      <path id="Subtraction_2-3" data-name="Subtraction 2" class="cls-17" d="M6.134,22.219h0S5.7,21.9,5.094,21.367c-.357-.316-.706-.647-1.038-.983-.414-.421-.8-.852-1.151-1.282s-.72-.93-1.1-1.486c-.3-.445-.616-.926-.927-1.431C.349,15.325,0,14.687,0,14.68H0c.011-.036.11-.363.284-.9.168-.517.44-1.337.785-2.308l.842.469-.8-.6C1.6,10,2.09,8.718,2.583,7.538,2.97,6.61,3.424,5.586,3.931,4.5L5.741,5.5,4.05,4.239C4.623,3.014,5.159,1.927,5.508,1.23,5.883.481,6.131,0,6.134,0V0c.062.119.631,1.2,1.361,2.674.451.91.875,1.79,1.26,2.614.481,1.031.9,1.978,1.252,2.815.232.556.46,1.128.677,1.7l-1.709.97,1.8-.718c.23.615.451,1.241.657,1.86.165.5.321.987.464,1.462.244.812.365,1.3.367,1.3-.012.022-.31.541-.785,1.277-.284.439-.574.868-.863,1.276-.362.509-.722.985-1.072,1.415l-.095.116L7.813,17.358l1.46,1.62c-.336.4-.711.817-1.112,1.243-.322.341-.661.689-1.01,1.032-.6.587-1.013.962-1.017.965Z" transform="translate(426.589 1262.513) rotate(-151)"/>
      <path id="Path_16-3" data-name="Path 16" class="cls-18" d="M992.57,1910.345l-.949,11.944-.323,7.247,1.272.273,1.09-.273-.535-7.525Z" transform="translate(-560.67 -688.89)"/>
    </g>
    <g id="Group_9" data-name="Group 9" transform="translate(33.463 -752.858)">
      <path id="Subtraction_1-4" data-name="Subtraction 1" class="cls-16" d="M10.037,32h0s-.179-.115-.473-.32c-.273-.191-.708-.5-1.228-.907-.585-.455-1.156-.931-1.7-1.416-.678-.606-1.312-1.227-1.884-1.847s-1.178-1.339-1.8-2.14c-.5-.641-1.009-1.334-1.517-2.061C.573,22.072.006,21.151,0,21.142H0c.007-.021.179-.519.476-1.325.281-.762.737-1.97,1.315-3.4l1.336.66-1.264-.838c.775-1.9,1.57-3.717,2.362-5.386.657-1.383,1.428-2.912,2.292-4.545L9.4,7.732,6.71,5.952C7.63,4.225,8.486,2.7,9.041,1.723c.6-1.057.992-1.716,1-1.723V0c.1.17,1.027,1.72,2.227,3.852C13,5.165,13.7,6.432,14.328,7.619c.787,1.484,1.477,2.848,2.049,4.054.362.762.718,1.547,1.057,2.333l-2.745,1.382,2.9-1.024c.384.9.753,1.817,1.1,2.724.276.726.537,1.448.776,2.145.406,1.185.611,1.9.613,1.909-.02.031-.5.774-1.285,1.839-.464.632-.94,1.25-1.413,1.837-.592.733-1.182,1.419-1.754,2.038L15.489,27l-2.7-2.058,2.408,2.37c-.551.576-1.166,1.181-1.825,1.8-.528.493-1.086,1-1.659,1.493-.976.847-1.665,1.391-1.671,1.4Z" transform="translate(422.434 1205.165)"/>
      <path id="Subtraction_2-4" data-name="Subtraction 2" class="cls-17" d="M6.393,23.157h0s-.452-.33-1.083-.888c-.372-.329-.736-.674-1.082-1.025-.432-.439-.835-.888-1.2-1.336s-.751-.969-1.147-1.549c-.317-.464-.642-.966-.966-1.492C.364,15.972,0,15.307,0,15.3H0c.011-.037.115-.378.3-.936.175-.539.459-1.394.818-2.406l.878.488-.831-.621c.5-1.4,1.017-2.74,1.53-3.969.4-.967.877-2.034,1.405-3.172l1.887,1.05L4.221,4.418c.6-1.277,1.156-2.41,1.519-3.136C6.131.5,6.39,0,6.393,0V0c.065.124.658,1.253,1.418,2.787.47.949.912,1.865,1.313,2.725.5,1.074.941,2.061,1.305,2.934.242.579.479,1.176.706,1.773L9.355,11.232l1.88-.749c.239.641.47,1.293.685,1.938.172.516.335,1.029.484,1.524.255.846.381,1.35.382,1.355-.013.023-.323.564-.819,1.331-.3.458-.6.9-.9,1.329-.377.531-.753,1.027-1.117,1.475l-.1.121L8.143,18.091l1.522,1.688c-.351.415-.741.852-1.159,1.3-.335.356-.689.718-1.053,1.076-.62.611-1.055,1-1.06,1.006Z" transform="translate(427.043 1264.936) rotate(-151)"/>
      <path id="Path_16-4" data-name="Path 16" class="cls-18" d="M992.624,1910.345l-.989,12.449-.337,7.553,1.325.285,1.136-.285-.557-7.843Z" transform="translate(-560.046 -688.202)"/>
    </g>
    <g id="Group_5" data-name="Group 5" transform="translate(-209.537 -805.223)">
      <path id="Subtraction_1-5" data-name="Subtraction 1" class="cls-16" d="M60.478,192.8h0c-.01-.007-1.079-.692-2.847-1.927-1.645-1.148-4.263-3.028-7.4-5.466-3.523-2.74-6.966-5.61-10.233-8.532-4.084-3.652-7.9-7.4-11.352-11.126s-7.1-8.068-10.855-12.894c-3-3.861-6.078-8.04-9.139-12.421C3.454,132.993.034,127.443,0,127.388v0c.043-.125,1.078-3.127,2.869-7.981,1.694-4.591,4.443-11.868,7.926-20.465l8.052,3.975-7.616-5.049c4.67-11.477,9.459-22.395,14.233-32.45,3.956-8.332,8.6-17.546,13.812-27.385l17.332,8.556L40.429,35.861c5.543-10.4,10.7-19.6,14.048-25.482C58.1,4.01,60.455.039,60.478,0l.008.013c.612,1.023,6.186,10.363,13.42,23.211,4.447,7.9,8.626,15.53,12.421,22.684,4.744,8.943,8.9,17.161,12.347,24.425,2.18,4.592,4.323,9.321,6.371,14.054L88.5,92.717l17.468-6.172c2.313,5.426,4.54,10.949,6.618,16.415,1.663,4.374,3.236,8.722,4.676,12.925,2.445,7.139,3.678,11.46,3.691,11.5-.122.187-3.033,4.662-7.745,11.082-2.8,3.81-5.661,7.534-8.514,11.068-3.565,4.417-7.122,8.548-10.571,12.279-.268.29-.539.581-.8.865l-16.29-12.4,14.51,14.279c-3.323,3.47-7.023,7.114-11,10.83-3.18,2.973-6.544,6-10,8.995-5.884,5.1-10.03,8.384-10.071,8.416Z" transform="translate(455.47 1205.165)"/>
      <path id="Subtraction_2-5" data-name="Subtraction 2" class="cls-17" d="M38.518,139.529h0c-.027-.019-2.723-1.991-6.525-5.35-2.244-1.983-4.436-4.06-6.517-6.175-2.6-2.643-5.034-5.352-7.23-8.052s-4.522-5.839-6.913-9.331c-1.912-2.793-3.871-5.818-5.82-8.989-3.317-5.4-5.49-9.4-5.512-9.444v0c.068-.223.693-2.277,1.783-5.638,1.053-3.247,2.763-8.4,4.931-14.5L12,75l-5-3.74c3.023-8.463,6.125-16.509,9.219-23.916,2.435-5.829,5.284-12.258,8.467-19.11l11.368,6.326L25.435,26.622c3.6-7.694,6.964-14.522,9.153-18.9C36.943,3.022,38.5.029,38.518,0l.009.016c.392.746,3.965,7.551,8.544,16.791,2.832,5.715,5.494,11.239,7.911,16.416C58,39.7,60.648,45.643,62.845,50.9c1.458,3.489,2.888,7.084,4.253,10.685l-10.731,6.09,11.325-4.51c1.442,3.864,2.83,7.793,4.126,11.678,1.037,3.11,2.018,6.2,2.916,9.183,1.534,5.1,2.294,8.133,2.3,8.163-.078.137-1.945,3.4-4.932,8.02-1.781,2.757-3.605,5.452-5.422,8.01-2.271,3.2-4.536,6.186-6.732,8.886-.2.24-.4.485-.6.728L49.061,109l9.17,10.173c-2.113,2.5-4.463,5.131-6.986,7.809-2.019,2.143-4.153,4.324-6.343,6.482-3.737,3.684-6.359,6.039-6.385,6.062Z" transform="translate(483.237 1565.3) rotate(-151)"/>
      <path id="Path_16-5" data-name="Path 16" class="cls-18" d="M999.284,1910.345l-5.956,75.008-2.03,45.507,7.986,1.714,6.845-1.714-3.357-47.256Z" transform="translate(-482.697 -602.882)"/>
    </g>
    <g id="Group_11" data-name="Group 11" transform="translate(17.514 -34.474)">
      <path id="Subtraction_1-6" data-name="Subtraction 1" class="cls-19" d="M28.974,92.37h0s-.517-.332-1.364-.923c-.788-.55-2.043-1.451-3.544-2.619-1.688-1.312-3.337-2.688-4.9-4.088-1.957-1.75-3.786-3.543-5.439-5.33s-3.4-3.865-5.2-6.177c-1.439-1.85-2.912-3.852-4.378-5.951C1.655,63.715.016,61.056,0,61.03H0c.021-.06.517-1.5,1.374-3.824.811-2.2,2.129-5.686,3.8-9.8l3.858,1.9L5.381,46.886c2.238-5.5,4.532-10.729,6.819-15.547,1.9-3.992,4.122-8.406,6.617-13.12l8.3,4.1-7.752-5.139c2.656-4.984,5.126-9.39,6.73-12.208C27.837,1.921,28.963.019,28.974,0l0,.006c.293.49,2.964,4.965,6.43,11.12,2.131,3.784,4.133,7.44,5.951,10.868,2.273,4.284,4.263,8.221,5.915,11.7,1.044,2.2,2.071,4.465,3.052,6.733L42.4,44.42l8.369-2.957c1.108,2.6,2.175,5.246,3.171,7.864.8,2.1,1.551,4.179,2.24,6.192,1.171,3.42,1.762,5.49,1.768,5.511-.058.09-1.453,2.234-3.71,5.309-1.34,1.825-2.712,3.61-4.079,5.3-1.708,2.116-3.412,4.1-5.064,5.883l-.385.414L36.906,72l6.952,6.841c-1.592,1.662-3.365,3.408-5.269,5.188-1.524,1.424-3.135,2.874-4.789,4.309-2.819,2.446-4.805,4.016-4.825,4.032Z" transform="translate(1646.948 630.888)"/>
      <path id="Subtraction_2-6" data-name="Subtraction 2" class="cls-20" d="M18.453,66.847h0c-.013-.009-1.3-.954-3.126-2.563-1.075-.95-2.125-1.945-3.122-2.958-1.246-1.266-2.412-2.564-3.464-3.858S6.575,54.671,5.429,53c-.916-1.338-1.854-2.787-2.789-4.306C1.051,46.106.01,44.186,0,44.167H0c.032-.107.332-1.091.854-2.7.5-1.555,1.324-4.023,2.363-6.945l2.534,1.41-2.4-1.792C4.8,30.083,6.287,26.228,7.77,22.68c1.167-2.793,2.532-5.873,4.057-9.155l5.446,3.031-5.087-3.8C13.909,9.068,15.522,5.8,16.571,3.7,17.7,1.448,18.446.014,18.453,0l0,.008c.188.357,1.9,3.618,4.093,8.045,1.357,2.738,2.632,5.384,3.79,7.865,1.447,3.1,2.715,5.95,3.767,8.468.7,1.671,1.384,3.394,2.037,5.119L27,32.422l5.426-2.161c.691,1.851,1.356,3.733,1.977,5.595.5,1.49.967,2.97,1.4,4.4.735,2.443,1.1,3.9,1.1,3.911-.038.066-.932,1.627-2.363,3.842-.853,1.321-1.727,2.612-2.6,3.838-1.088,1.531-2.173,2.964-3.225,4.257l-.286.349-4.93-4.23L27.9,57.1c-1.012,1.2-2.138,2.458-3.347,3.741-.967,1.027-1.99,2.072-3.039,3.106-1.791,1.765-3.047,2.893-3.059,2.9Z" transform="matrix(-0.848, 0.53, -0.53, -0.848, 1724.255, 779.908)"/>
      <path id="Path_16-6" data-name="Path 16" class="cls-21" d="M995.125,1910.345l-2.854,35.936-.972,21.8,3.826.821,3.279-.821-1.609-22.64Z" transform="translate(681.104 -1230.447)"/>
    </g>
    <g id="Group_12" data-name="Group 12" transform="translate(99.514 -125.958)">
      <path id="Subtraction_1-7" data-name="Subtraction 1" class="cls-19" d="M41.089,130.991h0c-.007,0-.733-.47-1.934-1.309-1.117-.78-2.9-2.057-5.026-3.714-2.393-1.861-4.733-3.812-6.952-5.8-2.775-2.481-5.37-5.025-7.713-7.559s-4.824-5.482-7.375-8.76c-2.041-2.623-4.13-5.462-6.209-8.439C2.346,90.356.023,86.585,0,86.548v0c.029-.085.733-2.124,1.949-5.422C3.1,78,4.969,73.06,7.334,67.219l5.471,2.7L7.631,66.49c3.173-7.8,6.427-15.215,9.67-22.047,2.688-5.661,5.845-11.921,9.384-18.605L38.46,31.651,27.468,24.364c3.766-7.068,7.269-13.316,9.544-17.312C39.476,2.725,41.073.027,41.089,0l.006.009c.416.695,4.2,7.04,9.118,15.77,3.021,5.366,5.861,10.551,8.439,15.412,3.223,6.076,6.045,11.659,8.388,16.594,1.481,3.12,2.937,6.332,4.328,9.549L60.13,62.992,72,58.8c1.571,3.687,3.084,7.439,4.5,11.152,1.13,2.971,2.2,5.926,3.177,8.781,1.661,4.85,2.5,7.786,2.507,7.815-.083.127-2.06,3.168-5.262,7.529-1.9,2.589-3.846,5.119-5.784,7.52-2.422,3-4.838,5.808-7.182,8.342-.182.2-.366.395-.546.588L52.337,102.1l9.858,9.7c-2.257,2.358-4.771,4.833-7.472,7.358-2.161,2.02-4.446,4.076-6.791,6.111-4,3.468-6.814,5.7-6.842,5.718Z" transform="translate(1646.948 630.888)"/>
      <path id="Subtraction_2-7" data-name="Subtraction 2" class="cls-20" d="M26.169,94.8h0c-.018-.013-1.85-1.352-4.433-3.635-1.524-1.347-3.014-2.758-4.428-4.2-1.767-1.8-3.42-3.636-4.912-5.47s-3.072-3.967-4.7-6.339c-1.3-1.9-2.63-3.952-3.954-6.107C1.491,65.383.015,62.661,0,62.633v0c.046-.152.471-1.547,1.211-3.83.715-2.206,1.877-5.7,3.35-9.848l3.593,2-3.4-2.541c2.054-5.75,4.161-11.217,6.264-16.248,1.655-3.96,3.59-8.328,5.753-12.983l7.724,4.3-7.214-5.391C19.725,12.86,22.012,8.221,23.5,5.25c1.6-3.2,2.66-5.23,2.67-5.25l.006.011c.267.507,2.694,5.13,5.8,11.408,1.924,3.883,3.732,7.636,5.375,11.153,2.053,4.4,3.85,8.437,5.342,12.009.99,2.37,1.962,4.813,2.889,7.259L38.3,45.979l7.694-3.064c.98,2.625,1.923,5.294,2.8,7.934.7,2.113,1.371,4.212,1.981,6.239,1.042,3.464,1.559,5.525,1.564,5.546-.053.093-1.322,2.307-3.351,5.449-1.21,1.873-2.45,3.7-3.684,5.442-1.543,2.172-3.082,4.2-4.574,6.037-.133.163-.269.329-.405.494l-6.992-6,6.23,6.911c-1.435,1.7-3.032,3.486-4.746,5.305-1.372,1.456-2.822,2.938-4.309,4.4-2.539,2.5-4.32,4.1-4.338,4.119Z" transform="matrix(-0.848, 0.53, -0.53, -0.848, 1756.578, 842.216)"/>
      <path id="Path_16-7" data-name="Path 16" class="cls-21" d="M996.724,1910.345l-4.047,50.961-1.379,30.918,5.426,1.164,4.651-1.164-2.281-32.106Z" transform="translate(691.747 -1209.955)"/>
    </g>
    <path id="Path_46" data-name="Path 46" class="cls-22" d="M497.831,489.792s31.578,4.726,42.082,4.726-22.061,38.564-22.061,38.564S501.707,543.5,489.875,543.5,471.5,527.243,471.5,527.243s5.064-13.152,12.067-22.69A72.477,72.477,0,0,1,497.831,489.792Z" transform="matrix(0.995, 0.105, -0.105, 0.995, 56.082, -54.038)"/>
    <g id="Group_7" data-name="Group 7" transform="translate(-105 -5.88)">
      <path id="Union_1" data-name="Union 1" class="cls-23" d="M0,65.922V37.073H.1c.012-1.167.256-12.1,5.214-21.752C10.556,5.111,15.978,0,22.684,0s11.035,6.025,16,16.235a49.655,49.655,0,0,1,4.591,20.838h0V65.922Z" transform="translate(601.703 441.968)"/>
      <g id="Group_6" data-name="Group 6" transform="translate(600.396 469.69)">
        <rect id="Rectangle_11" data-name="Rectangle 11" class="cls-24" width="25.622" height="27.519" transform="translate(9.315 9.332)"/>
        <path id="Path_26" data-name="Path 26" class="cls-25" d="M15.186,0V15.186H0Z" transform="translate(0 23.074) rotate(-45)"/>
        <path id="Path_27" data-name="Path 27" class="cls-25" d="M15.186,0V15.186H0Z" transform="translate(22.125 0) rotate(45)"/>
        <path id="Path_29" data-name="Path 29" class="cls-25" d="M15.186,0V15.186H0Z" transform="translate(22.125 46.149) rotate(-135)"/>
        <path id="Path_28" data-name="Path 28" class="cls-25" d="M15.186,0V15.186H0Z" transform="translate(44.251 23.074) rotate(135)"/>
      </g>
      <path id="Path_31" data-name="Path 31" class="cls-26" d="M1575.338-401.981c2.212-.757,15.358-7.892,15.358-7.892v19.892l-15.358,13.513Z" transform="translate(-930.357 884.358)"/>
      <line id="Line_7" data-name="Line 7" class="cls-27" y2="19.233" transform="translate(655.395 478.24)"/>
      <line id="Line_3" data-name="Line 3" class="cls-28" y2="40.069" transform="translate(642.573 467.021)"/>
      <line id="Line_6" data-name="Line 6" class="cls-27" y2="22.438" transform="translate(648.984 481.445)"/>
      <path id="Path_32" data-name="Path 32" class="cls-24" d="M1582.344-385.172a103.357,103.357,0,0,0,11.069-5.269,76.334,76.334,0,0,0,9.257-6.282s-2.163-15.552-9.257-25.938-19.118-15.6-19.118-15.6l-10.666,11.55a38.834,38.834,0,0,1,14.419,14.429C1583.532-402.455,1582.344-385.172,1582.344-385.172Z" transform="translate(-938.48 868.801)"/>
      <path id="Path_33" data-name="Path 33" class="cls-29" d="M1564.5-428.349a37.419,37.419,0,0,1,4.083-5.231,38.608,38.608,0,0,1,5.1-4.338s12,7.144,17.863,15.694,8.931,24.114,8.931,24.114-4.935,3.038-8.166,4.976-8.293,4.338-8.293,4.338.142-14.757-4.083-23.6S1564.5-428.349,1564.5-428.349Z" transform="translate(-937.904 869.459)"/>
      <line id="Line_4" data-name="Line 4" class="cls-27" y2="27.247" transform="translate(610.518 450.993)"/>
      <line id="Line_14" data-name="Line 14" class="cls-27" x1="0.005" y2="34.861" transform="translate(618.757 443.927)"/>
      <line id="Line_5" data-name="Line 5" class="cls-27" y2="35.26" transform="translate(602.505 470.226)"/>
      <path id="Path_34" data-name="Path 34" class="cls-24" d="M1574.458-426.641s-10.648,2.074-16.414,11.22-7.251,22.466-7.251,22.466v2.919h-4.471s-.654-9.132.787-16.041a45.859,45.859,0,0,1,5.766-13.52,33.145,33.145,0,0,1,8.151-8.947c5.269-3.927,11.531-7.754,11.531-7.754l5.565-1.113,6.833-.814Z" transform="translate(-949 868.824)"/>
      <path id="Path_35" data-name="Path 35" class="cls-29" d="M1644.4-452.918l-3.573,3.19-6.762,6.124a27.777,27.777,0,0,0-12.121,6.124c-6,5.1-12.121,22.328-12.121,22.328s1.1-5.774,2.514-11.726c.959-4.051,2.143-8.348,3.03-9.608a40.471,40.471,0,0,1,10.021-9.544l8.676-4.848Z" transform="translate(-1008.867 884.459)"/>
      <line id="Line_1" data-name="Line 1" class="cls-27" y2="35.26" transform="translate(624.943 442.98)"/>
      <line id="Line_2" data-name="Line 2" class="cls-27" y2="25.644" transform="translate(636.162 452.596)"/>
      <line id="Line_8" data-name="Line 8" class="cls-30" y1="9.422" x2="9.422" transform="translate(637.601 441.1)"/>
      <line id="Line_16" data-name="Line 16" class="cls-30" y1="9.422" x2="9.422" transform="translate(631.713 435.211)"/>
      <line id="Line_10" data-name="Line 10" class="cls-31" y1="11.778" x2="11.778" transform="translate(644.668 452.877)"/>
      <line id="Line_11" data-name="Line 11" class="cls-31" y1="11.778" x2="12.955" transform="translate(648.201 467.01)"/>
      <line id="Line_12" data-name="Line 12" class="cls-32" x1="11.778" y2="11.778" transform="translate(624.646 430.5)"/>
      <line id="Line_13" data-name="Line 13" class="cls-33" x1="4.711" y2="8.244" transform="translate(610.513 439.922)"/>
      <line id="Line_15" data-name="Line 15" class="cls-33" x1="4.711" y2="7.067" transform="translate(618.757 435.211)"/>
    </g>
  </g>
</svg>
