<svg xmlns="http://www.w3.org/2000/svg" viewBox="0 0 277.159 277.054">
  <defs>
    <style>
      .cls-1 {
        fill: #c9b53a;
      }

      .cls-2 {
        fill: #f5d145;
      }

      .cls-3, .cls-4 {
        fill: #d1b143;
      }

      .cls-3 {
        opacity: 0.31;
      }

      .cls-5 {
        fill: #262317;
      }

      .cls-6 {
        fill: #93872b;
      }

      .cls-7 {
        fill: #fff;
      }
    </style>
  </defs>
  <g id="Group_50" data-name="Group 50" transform="translate(0 -0.05)">
    <path id="Path_70" data-name="Path 70" class="cls-1" d="M21.312,126.853c-.939,0-2.682-1.609-1.744-1.609s.671-1.744,1.609-1.744a1.678,1.678,0,0,1,.134,3.353Z" transform="translate(6.586 42.126)"/>
    <path id="Path_71" data-name="Path 71" class="cls-2" d="M139.757,2.263c9.389-2.951,19.18-2.951,29.507,0C181.2,2.8,189.248,7.091,193.406,15c10.327,5.1,19.85,11.266,25.483,22.8,4.56,6.974,6.3,13.949,4.024,20.655,25.215,22,79.267,102.47,40.908,174.495-13.144,21.46-35.006,36.616-68.4,43.59-63.575,3.085-116.151-6.84-162.289-24.142C12.339,252.135,2.146,224.1,0,175.282c2.682-25.618,8.986-49.223,19.716-70.415,15.29-19.85,30.58-39.432,41.578-43.59,17.168-33.4,37.286-47.614,59.014-50.967Z" transform="translate(0 0)"/>
    <path id="Path_72" data-name="Path 72" class="cls-3" d="M136.247,14.245c-3.085-4.024-7.109-7.511-19.18-7.645C102.314,10.892,91.986,22.158,83,35.7,85.012,51.4,94.669,62.53,110.227,70.175c21.594,0,40.505-3.755,55.93-12.071a50.76,50.76,0,0,0,5.767-24.142C168.839,22.292,153.817,17.6,136.247,14.245Z" transform="translate(28.323 2.235)"/>
    <path id="Path_73" data-name="Path 73" class="cls-4" d="M129.36,12.685c-1.207-1.609-2.817-3.085-7.779-3.085-5.9,1.609-10.059,6.17-13.681,11.669,1.878,5.5,5.633,10.059,11,13.815,8.718,0,16.229-1.475,22.4-4.828a21.229,21.229,0,0,0,2.28-9.657C142.5,15.9,136.468,14.026,129.36,12.685Z" transform="translate(36.819 3.259)"/>
    <path id="Path_74" data-name="Path 74" class="cls-5" d="M116.3,26.2c4.963-7.645,10.6-13.681,17.436-16.5,5.1.8,8.718,2.682,10.327,6.3-8.047,2.28-13.815,5.767-17.838,10.328H116.3Z" transform="translate(39.686 3.293)"/>
    <path id="Path_75" data-name="Path 75" class="cls-1" d="M195.291,104.546c1.341-1.475,4.292-3.085,5.633-1.475,1.073,1.207,2.146,4.158,1.475,5.633s-3.621,1.744-5.633,1.475C194.621,109.911,193.816,106.289,195.291,104.546Z" transform="translate(66.384 34.926)"/>
    <path id="Path_76" data-name="Path 76" class="cls-1" d="M180.535,110.334c.268-.4,1.073-.8,1.207-.268a1.8,1.8,0,0,1,.268,1.207c0,.536-.8.536-1.207.268A.874.874,0,0,1,180.535,110.334Z" transform="translate(61.557 37.453)"/>
    <path id="Path_77" data-name="Path 77" class="cls-1" d="M189.351,113.885c.4.134.8-.536,1.207-.268s.8,1.341.268,1.207c-.671-.268-.939.268-1.207.268C189.217,115.226,188.948,113.75,189.351,113.885Z" transform="translate(64.545 38.731)"/>
    <path id="Path_78" data-name="Path 78" class="cls-1" d="M174.594,112.8a6.246,6.246,0,0,0,2.682-.8c1.341,2.548-.671,4.024-2.146,3.219C174.459,114.548,173.789,112.671,174.594,112.8Z" transform="translate(59.452 38.201)"/>
    <path id="Path_79" data-name="Path 79" class="cls-1" d="M180.861,93.164c-2.012.134-3.219-1.744-4.694-4.56-1.207-2.28,2.012-5.1,4.56-4.694,2.012.4,4.024,2.548,4.694,4.56C186.092,90.884,183.409,93.03,180.861,93.164Z" transform="translate(60.025 28.603)"/>
    <path id="Path_80" data-name="Path 80" class="cls-1" d="M170.98,98.811c.268-.4-.939-1.341-2.28-2.012,1.609-2.682,4.024-1.475,4.024.268C172.724,98.007,170.444,99.75,170.98,98.811Z" transform="translate(57.566 32.479)"/>
    <path id="Path_81" data-name="Path 81" class="cls-1" d="M189.341,95.832S188,95.162,188,94.491c0-.8.939-2.012,1.341-1.341a6.358,6.358,0,0,0,1.341,1.341C191.219,94.893,189.341,95.832,189.341,95.832Z" transform="translate(64.152 31.702)"/>
    <path id="Path_82" data-name="Path 82" class="cls-1" d="M164.636,148.034c.268-.4,1.073-.8,1.207-.268a1.8,1.8,0,0,1,.268,1.207c0,.536-.8.536-1.207.268A.874.874,0,0,1,164.636,148.034Z" transform="translate(56.132 50.318)"/>
    <path id="Path_83" data-name="Path 83" class="cls-1" d="M158.816,150.4a6.246,6.246,0,0,0,2.682-.8c1.341,2.548-.671,4.024-2.146,3.219C158.548,152.148,157.878,150.271,158.816,150.4Z" transform="translate(54.038 51.032)"/>
    <path id="Path_84" data-name="Path 84" class="cls-1" d="M155.08,136.511c.268-.4-.939-1.341-2.28-2.012,1.609-2.682,4.024-1.475,4.024.268C156.824,135.707,154.544,137.316,155.08,136.511Z" transform="translate(52.141 45.343)"/>
    <path id="Path_85" data-name="Path 85" class="cls-1" d="M173.441,133.532s-1.341-.671-1.341-1.341c0-.8.939-2.012,1.341-1.341a6.357,6.357,0,0,0,1.341,1.341C175.453,132.593,173.441,133.532,173.441,133.532Z" transform="translate(58.727 44.567)"/>
    <path id="Path_86" data-name="Path 86" class="cls-1" d="M38.413,143.634c.268-.4,1.073-.8,1.207-.268a1.8,1.8,0,0,1,.268,1.207c0,.536-.8.536-1.207.268C38.413,144.707,38.279,144.036,38.413,143.634Z" transform="translate(13.09 48.816)"/>
    <path id="Path_87" data-name="Path 87" class="cls-1" d="M32.609,146.1a6.246,6.246,0,0,0,2.682-.8c1.341,2.548-.671,4.024-2.146,3.219C32.475,147.848,31.67,145.971,32.609,146.1Z" transform="translate(10.981 49.564)"/>
    <path id="Path_88" data-name="Path 88" class="cls-1" d="M28.88,132.111c.268-.4-.939-1.341-2.28-2.012,1.609-2.682,4.024-1.475,4.024.268C30.758,131.307,28.478,133.05,28.88,132.111Z" transform="translate(9.077 43.842)"/>
    <path id="Path_89" data-name="Path 89" class="cls-1" d="M47.241,129.132s-1.341-.671-1.341-1.341c0-.8.939-2.012,1.341-1.341a6.358,6.358,0,0,0,1.341,1.341C49.253,128.193,47.241,129.132,47.241,129.132Z" transform="translate(15.663 43.065)"/>
    <path id="Path_90" data-name="Path 90" class="cls-1" d="M197.867,123.078c.134-.268-.4-.671-.939-.939-.4-.268.4-.939.939-.939a.917.917,0,0,1,.939.939C198.671,122.675,197.6,123.614,197.867,123.078Z" transform="translate(67.162 41.341)"/>
    <circle id="Ellipse_1" data-name="Ellipse 1" class="cls-6" cx="24.142" cy="24.142" r="24.142" transform="translate(151.962 114.39)"/>
    <circle id="Ellipse_2" data-name="Ellipse 2" class="cls-7" cx="20.655" cy="20.655" r="20.655" transform="translate(153.974 119.353)"/>
    <circle id="Ellipse_3" data-name="Ellipse 3" class="cls-5" cx="4.694" cy="4.694" r="4.694" transform="translate(166.716 135.314)"/>
    <circle id="Ellipse_4" data-name="Ellipse 4" class="cls-6" cx="24.142" cy="24.142" r="24.142" transform="translate(77.523 114.39)"/>
    <circle id="Ellipse_5" data-name="Ellipse 5" class="cls-7" cx="20.655" cy="20.655" r="20.655" transform="translate(81.011 116.402)"/>
    <circle id="Ellipse_6" data-name="Ellipse 6" class="cls-5" cx="4.694" cy="4.694" r="4.694" transform="translate(101.666 133.838)"/>
    <path id="Path_91" data-name="Path 91" class="cls-5" d="M158.79,146.722c0,4.024-20.253,11.132-44.127,11.132S70,148.063,70,145.917s20.789,3.89,44.663,3.89S158.79,142.7,158.79,146.722Z" transform="translate(23.886 49.618)"/>
    <path id="Path_92" data-name="Path 92" class="cls-5" d="M118.086,173.361c0,.671-6.036,2.28-13.01,2.28S92.2,174.568,92.2,173.9s5.9-.536,12.876-.536S118.086,172.824,118.086,173.361Z" transform="translate(31.462 59.058)"/>
    <path id="Path_93" data-name="Path 93" class="cls-5" d="M107.791,177.838c0,.4-2.146,1.744-4.828,1.744S98,178.777,98,178.375s2.28-.4,4.963-.4S107.791,177.436,107.791,177.838Z" transform="translate(33.441 60.617)"/>
    <path id="Path_94" data-name="Path 94" class="cls-5" d="M152.915,81.01c.4-.268,2.682.8,4.158,2.951s2.146,4.56,1.744,4.828-1.609-1.744-3.085-3.89C154.256,82.62,152.513,81.144,152.915,81.01Z" transform="translate(52.16 27.613)"/>
    <path id="Path_95" data-name="Path 95" class="cls-5" d="M52.311,85.03c-.268-.4.671-2.682,2.817-4.292s4.426-2.414,4.694-2.012-1.609,1.744-3.755,3.219S52.58,85.432,52.311,85.03Z" transform="translate(17.835 26.812)"/>
    <path id="Path_96" data-name="Path 96" class="cls-4" d="M218.435,137c1.609,35.275-16.363,67.6-51.235,83.157l33.531-43.322Z" transform="translate(57.055 46.732)"/>
  </g>
</svg>
