<svg xmlns="http://www.w3.org/2000/svg" xmlns:xlink="http://www.w3.org/1999/xlink" viewBox="0 0 419.391 368.359">
  <defs>
    <style>
      .cls-1 {
        fill: url(#radial-gradient);
      }

      .cls-2 {
        fill: url(#radial-gradient-2);
      }

      .cls-3 {
        fill: url(#radial-gradient-3);
      }

      .cls-4 {
        fill: url(#radial-gradient-4);
      }

      .cls-5 {
        fill: url(#radial-gradient-5);
      }

      .cls-6 {
        fill: url(#radial-gradient-6);
      }

      .cls-7 {
        fill: url(#radial-gradient-7);
      }

      .cls-8 {
        fill: url(#radial-gradient-8);
      }

      .cls-9 {
        fill: url(#linear-gradient);
      }

      .cls-10 {
        fill: url(#radial-gradient-9);
      }

      .cls-11 {
        fill: url(#radial-gradient-10);
      }
    </style>
    <radialGradient id="radial-gradient" cx="0.454" cy="0.235" r="0.62" gradientTransform="matrix(0.932, -0.163, 0.145, 0.932, -0.004, 0.09)" gradientUnits="objectBoundingBox">
      <stop offset="0" stop-color="#9e2621"/>
      <stop offset="1" stop-color="#4f1311"/>
    </radialGradient>
    <radialGradient id="radial-gradient-2" cx="0.454" cy="0.235" r="0.495" gradientTransform="matrix(0.698, -0.674, 0.602, 0.698, -0.005, 0.377)" xlink:href="#radial-gradient"/>
    <radialGradient id="radial-gradient-3" cx="0.454" cy="0.235" r="0.618" gradientTransform="matrix(0.936, -0.163, 0.147, 0.936, -0.005, 0.089)" xlink:href="#radial-gradient"/>
    <radialGradient id="radial-gradient-4" cx="0.449" cy="0.434" r="0.586" gradientTransform="translate(0.066 0.064) scale(0.854 0.854)" xlink:href="#radial-gradient"/>
    <radialGradient id="radial-gradient-5" cx="0.469" cy="0.37" r="0.645" gradientTransform="matrix(0.775, 0.228, -0.144, 0.775, 0.159, -0.023)" xlink:href="#radial-gradient"/>
    <radialGradient id="radial-gradient-6" cx="0.5" cy="0.269" r="0.878" gradientTransform="matrix(0.575, 0.181, -0.062, 0.575, 0.229, 0.024)" gradientUnits="objectBoundingBox">
      <stop offset="0" stop-color="#a42924"/>
      <stop offset="1" stop-color="#4f1311"/>
    </radialGradient>
    <radialGradient id="radial-gradient-7" cy="0.269" r="1.15" gradientTransform="matrix(0.439, 0.181, -0.036, 0.439, 0.29, 0.06)" xlink:href="#radial-gradient-6"/>
    <radialGradient id="radial-gradient-8" cx="0.5" cy="0.5" r="0.604" gradientTransform="matrix(2.209, 0.02, -0.1, 2.209, -0.555, -0.615)" gradientUnits="objectBoundingBox">
      <stop offset="0" stop-color="#524510"/>
      <stop offset="1" stop-color="#100b03"/>
    </radialGradient>
    <linearGradient id="linear-gradient" x1="2.349" y1="0.33" x2="0.228" y2="0.566" gradientUnits="objectBoundingBox">
      <stop offset="0" stop-color="#60681f"/>
      <stop offset="1" stop-color="#303410"/>
    </linearGradient>
    <radialGradient id="radial-gradient-9" cx="0.42" cy="0.372" r="0.481" gradientTransform="matrix(0.876, 0.737, -1.907, 1.351, 0.762, -0.44)" gradientUnits="objectBoundingBox">
      <stop offset="0" stop-color="#4d491a"/>
      <stop offset="1" stop-color="#0f0f05"/>
    </radialGradient>
    <radialGradient id="radial-gradient-10" cx="0.891" cy="0.5" r="0.309" gradientTransform="matrix(2.531, -0.146, 0.958, 2.531, -1.843, -0.635)" xlink:href="#linear-gradient"/>
  </defs>
  <g id="Group_47" data-name="Group 47" transform="translate(-6322.419 -936.098)">
    <g id="Group_46" data-name="Group 46" transform="translate(6322.419 936.098)">
      <path id="Path_49" data-name="Path 49" class="cls-1" d="M6921.273-395.024c.814,0,1.922-2.552,4.323-4.086a12.84,12.84,0,0,1,5.023-1.325l-2.952-1.6v-3.317s22.26-29.392,42.3-43.289,37.878-12.3,37.878-12.3,15.438,2.725,24.529,7.75c3.709,2.05,7.834,8.032,14.812,10.334,9.909,3.269,22.641,2.577,22.641,2.577s9.051.524,15.94-4.816c8.993-10.493,16.664-32.182,32.724-42.542a103.127,103.127,0,0,1,49.719-16.1s12.51-1.049,22.1,2.149a42.584,42.584,0,0,1,16.267,10.641s16.485,3.044,24.725,15.711,8.234,34.957,8.234,34.957a83.929,83.929,0,0,1,3.822,10.685,33.085,33.085,0,0,1,1.1,8.5,69.385,69.385,0,0,1,9.754,14.58,78.962,78.962,0,0,1,5.5,17.395l5.9,58.538s8.608,25.569,0,44.631-34.434,31.616-34.434,31.616,3.573,18.159-10.895,41.239-50.809,38.236-50.809,38.236Z" transform="translate(-6877.458 503.902)"/>
      <path id="Path_54" data-name="Path 54" class="cls-2" d="M6921.273-403.732c.75,0,1.769-2.348,3.978-3.759a11.809,11.809,0,0,1,4.621-1.219l-2.715-1.474v-3.051s20.479-27.041,38.921-39.826,34.848-11.314,34.848-11.314,14.2,2.507,22.567,7.13c3.412,1.886,7.207,7.39,13.627,9.507,9.116,3.007,20.83,2.371,20.83,2.371s8.327.482,14.665-4.431c8.273-9.653,15.331-29.608,30.107-39.139a94.879,94.879,0,0,1,45.742-14.812s11.51-.965,20.334,1.977a39.188,39.188,0,0,1,14.966,9.79s15.166,2.8,22.747,14.454,7.576,32.161,7.576,32.161a77.331,77.331,0,0,1,3.517,9.831,30.473,30.473,0,0,1,1.009,7.82,63.833,63.833,0,0,1,8.974,13.414,72.591,72.591,0,0,1,5.056,16l5.432,53.856s7.92,23.524,0,41.061-31.681,29.087-31.681,29.087,3.288,16.707-10.022,37.94-46.745,35.178-46.745,35.178Z" transform="translate(-6863.549 523.087)"/>
      <path id="Path_55" data-name="Path 55" class="cls-3" d="M6921.273-414.821c.664,0,1.567-2.088,3.524-3.343a10.433,10.433,0,0,1,4.094-1.084l-2.405-1.311v-2.714s18.143-24.048,34.482-35.417,30.874-10.062,30.874-10.062,12.583,2.229,19.993,6.341c3.023,1.677,6.386,6.572,12.073,8.455,8.077,2.674,18.454,2.108,18.454,2.108s7.377.428,12.993-3.94c7.33-8.585,13.582-26.331,26.673-34.806a83.826,83.826,0,0,1,40.526-13.172s10.2-.858,18.016,1.758a34.715,34.715,0,0,1,13.259,8.706s13.437,2.49,20.153,12.854,6.712,28.6,6.712,28.6a68.907,68.907,0,0,1,3.115,8.742,27.162,27.162,0,0,1,.894,6.954,56.779,56.779,0,0,1,7.951,11.929,64.786,64.786,0,0,1,4.479,14.232l4.812,47.894s7.017,20.92,0,36.516-28.067,25.867-28.067,25.867,2.913,14.857-8.879,33.74-41.415,31.283-41.415,31.283Z" transform="translate(-6851.423 572.304)"/>
      <path id="Path_47" data-name="Path 47" class="cls-4" d="M6808.705-153.057s-1.582-18.571,4.506-33.085c4.216-10.051,14.363-16.964,22.137-19.185,18.913-5.4,54.6,24.1,54.6,24.1l186.436,46.732s17.432,20.134,18.2,51.159c16.233,22.628,10.415,54.586,7,73.787-7.835,44.04-31.341,48.859-31.341,48.859s-38.883,20.938-85.354,16.074-100.533-35.528-100.533-35.528-24.7-17.012-38.187-35.308a87.9,87.9,0,0,1-15.742-37.878s-26.127-28.81-30.991-53.127S6808.705-153.057,6808.705-153.057Z" transform="translate(-6798.419 312.237)"/>
      <path id="Path_57" data-name="Path 57" class="cls-5" d="M6808.145-159.347s-1.5-16.364,4.261-29.153c3.987-8.857,13.581-14.948,20.931-16.9,17.883-4.762,51.629,21.239,51.629,21.239l176.284,41.179a74.133,74.133,0,0,1,17.209,45.08c15.35,19.939,9.848,48.1,6.617,65.019-7.409,38.807-29.635,43.052-29.635,43.052s-36.765,18.45-80.706,14.164-95.059-31.306-95.059-31.306-23.36-14.99-36.108-31.112a74.367,74.367,0,0,1-14.884-33.376s-24.705-25.387-29.3-46.814S6808.145-159.347,6808.145-159.347Z" transform="translate(-6783.482 317.35)"/>
      <path id="Path_48" data-name="Path 48" class="cls-6" d="M6871.617-214.492s-18.693-7.21-33.45,9.023-11.314,47.716-11.314,47.716,3.321,14.266,8.363,24.1a50.574,50.574,0,0,0,11.806,15.249l19.185,7.871s15.618,24.6,32.958,42.8a208.112,208.112,0,0,0,36.4,30.007s46.117-.984,82.642-13.282,63.458-35.91,63.458-35.91,18.078-7.01,24.1-19.185,0-29.515,0-29.515,40.583-42.8,29.022-59.03-75.263-5.9-75.263-5.9-60.26-14.223-107.238-17.709S6871.617-214.492,6871.617-214.492Z" transform="translate(-6816.488 320.741)"/>
      <path id="Path_56" data-name="Path 56" class="cls-7" d="M41.421,3.3S24.258-1.748,10.708,9.624.32,43.052.32,43.052,3.369,53.046,8,59.938a39.484,39.484,0,0,0,10.84,10.683l17.615,5.514s14.341,17.231,30.262,29.982a191.635,191.635,0,0,0,33.423,21.022s42.343-.689,75.879-9.3a210.014,210.014,0,0,0,58.264-25.157s16.6-4.911,22.131-13.44,0-20.677,0-20.677,37.262-29.982,26.648-41.354-69.1-4.135-69.1-4.135S158.628,3.106,115.494.664,41.421,3.3,41.421,3.3Z" transform="translate(23.524 111.336) rotate(3)"/>
      <path id="Path_50" data-name="Path 50" class="cls-8" d="M7681.081-120.859l-1.25-5.323-16.951-7.958s-1.84-6.389-5.438-10.643a25.574,25.574,0,0,0-8.957-6.373,32.288,32.288,0,0,0-1.347,6.373,45.019,45.019,0,0,0,0,7.2s-.992-2.2-2.959-1.343-3.789,4.787-3.789,4.787v3.653a18.448,18.448,0,0,1-1.122,5.2l-10.417,4.427-5.816,4.132-2.459,7.674v17.709l2.459,6.887a103.852,103.852,0,0,0-1.59,15.112,31.377,31.377,0,0,0,1.59,10.468,32.1,32.1,0,0,1,9.949,11.923c4.059,8.117,6.284,20.544,6.284,20.544s6.438,4.111,10.251,7.186a22.061,22.061,0,0,1,5,5.112h6.4a50.856,50.856,0,0,1,6.519-17.168c5.042-7.871,13.65-14.314,13.65-14.314V-56.772l1.506-17.4Z" transform="translate(-7327.358 276.961)"/>
      <path id="Path_51" data-name="Path 51" class="cls-9" d="M7664.477-129.173l-.906-3.862-12.3-5.775a24.287,24.287,0,0,0-3.946-7.722,18.555,18.555,0,0,0-6.5-4.624,23.413,23.413,0,0,0-.978,4.624,32.66,32.66,0,0,0,0,5.224s-.72-1.6-2.147-.975-2.75,3.473-2.75,3.473v2.65a13.381,13.381,0,0,1-.814,3.774l-7.559,3.212-6,8.566v12.849l1.784,5a75.337,75.337,0,0,0-1.154,10.965,22.762,22.762,0,0,0,1.154,7.6,23.3,23.3,0,0,1,7.219,8.651c2.944,5.889,4.559,14.906,4.559,14.906s4.672,2.983,7.438,5.214a16,16,0,0,1,3.627,3.709h4.64a36.9,36.9,0,0,1,4.729-12.457,46.966,46.966,0,0,1,9.9-10.386v-8.109L7665.57-95.3Z" transform="translate(-7315.465 295.666)"/>
      <path id="Path_53" data-name="Path 53" class="cls-10" d="M7700.344-162.6s18.539-5.912,30.854-14.136,12.077-8.9,18.407-18.76,4.76-16.588,7.75-19.118,4.952-1.938,8.268-1.378a7.72,7.72,0,0,1,4.994,3.617,30.183,30.183,0,0,0,4.134-7.406,120.966,120.966,0,0,0,3.961-12.229,11.294,11.294,0,0,1,5.856-1.722,24.516,24.516,0,0,1,7.578,1.722s2.67,1.12,2.067,9.645-4.479,24.457-4.479,24.457-4.306,12.142-14.984,28.074-27.729,35.652-27.729,35.652l-9.817,1.722-23.94,12.918s-.3,2.756-4.995,6.545-13.779,8.612-13.779,8.612Z" transform="translate(-7374.911 330.09)"/>
      <path id="Path_52" data-name="Path 52" class="cls-11" d="M7665.808-53.265s5.828-2.689,10.012-3.022a69.985,69.985,0,0,1,8.923,0s-3.968,8.243-3.318,14.046,5.915,9.167,5.915,9.167l-1.731,6.949,1.731,4.731-4.761,3.992a29.69,29.69,0,0,1-2.021,5.914,10.675,10.675,0,0,1-2.885,3.549l3.751,2.809L7682.578-.4a18.385,18.385,0,0,1-5.266,3.956c-3.643,1.959-9.307,4.425-9.307,4.425s-5.845-18.51-5.845-34.109A99.332,99.332,0,0,1,7665.808-53.265Z" transform="translate(-7349.296 219.294)"/>
    </g>
  </g>
</svg>
