<svg xmlns="http://www.w3.org/2000/svg" viewBox="0 0 321.173 322.264">
  <defs>
    <style>
      .cls-1 {
        fill: #55b257;
      }

      .cls-2 {
        fill: #168039;
        opacity: 0.31;
      }

      .cls-3 {
        fill: #044c29;
      }

      .cls-4 {
        fill: #d1b143;
      }

      .cls-5 {
        fill: #01251c;
        opacity: 0.68;
      }

      .cls-6 {
        fill: #fff;
      }

      .cls-7 {
        fill: #262317;
      }

      .cls-8 {
        fill: #d3d7d8;
        stroke: #432918;
        stroke-miterlimit: 10;
      }
    </style>
  </defs>
  <g id="Group_52" data-name="Group 52" transform="translate(0.013 -0.012)">
    <path id="Path_123" data-name="Path 123" class="cls-1" d="M320.2,164.012c-1.734,8.672-3.736,17.477-6,26.016-.667,2.8-1.468,5.47-2.4,8.272-6.937,23.08-16.543,44.56-30.818,60.97-17.877,14.409-36.422,29.084-54.3,33.754-7.738,1.067-18.278,1.868-20.412,3.6-1.734,1.067-1.734,5.737-3.335,9.472h0a11.529,11.529,0,0,1-2.8,3.869,26.606,26.606,0,0,1-5.47.8,115.658,115.658,0,0,1-12.007.133c-4.536-.133-9.606-.4-14.942-.8h-.267c-6.27-.4-12.941-.667-19.612-.934-2.668,0-5.47-.133-8.138-.133-5.87,0-11.74.267-16.943.8-7.2-1.334-10.273-4.536-12.407-8-2.268-.133-4.669-.4-7.071-.667a89.033,89.033,0,0,1-18.678-4.669C58.706,279.682,37.36,260.2,21.35,237.79c-28.284-40.691-28.684-84.184,0-130.745A264.565,264.565,0,0,1,80.319,64.753a348.817,348.817,0,0,1,65.639-26.416,70.679,70.679,0,0,1,7.871.934,24.226,24.226,0,0,1,9.873,3.736,29.422,29.422,0,0,1,6-4,46.273,46.273,0,0,1,10.94-4,55.748,55.748,0,0,1,7.071-1.2c28.15-.133,50.163,2.4,61.37,9.339,26.683,11.34,49.1,29.885,63.1,62.3C319.929,117.184,322.864,136.4,320.2,164.012Z" transform="translate(0 11.288)"/>
    <path id="Path_124" data-name="Path 124" class="cls-2" d="M213.776,121.235c3.068-.667,4.136-2.4,5.6-1.468,2,1.067,3.469,4.536,1.468,5.6-1.6.934-3.869,2.135-5.6,1.468C213.109,126.038,211.508,121.635,213.776,121.235Z" transform="translate(71.065 39.924)"/>
    <path id="Path_125" data-name="Path 125" class="cls-2" d="M227.687,97.134c1.334-1.468,4.269-3.068,5.6-1.468,1.067,1.2,2.135,4.136,1.468,5.6s-3.6,1.734-5.6,1.468C227.02,102.471,226.22,98.869,227.687,97.134Z" transform="translate(75.832 31.738)"/>
    <path id="Path_126" data-name="Path 126" class="cls-2" d="M198.111,112.548c2.8-.133,4.669-2.135,6.27-1.734,2.4.8,3.6,4.669,1.734,6.27-1.334,1.067-4.136,2.4-6.27,1.734C197.31,118.018,195.576,112.681,198.111,112.548Z" transform="translate(65.784 37.004)"/>
    <path id="Path_127" data-name="Path 127" class="cls-2" d="M212.935,102.931c.267-.4,1.067-.8,1.2-.267a1.794,1.794,0,0,1,.267,1.2c0,.534-.8.534-1.2.267A.869.869,0,0,1,212.935,102.931Z" transform="translate(71.106 34.213)"/>
    <path id="Path_128" data-name="Path 128" class="cls-2" d="M221.75,106.483c.4.133.8-.534,1.2-.267s.8,1.334.267,1.2c-.667-.267-.934.267-1.2.267C221.616,107.684,221.349,106.349,221.75,106.483Z" transform="translate(74.032 35.465)"/>
    <path id="Path_129" data-name="Path 129" class="cls-2" d="M207.005,105.281a5.413,5.413,0,0,0,2.268-.667c.8-.4,1.067,1.468.667,2.268a1.71,1.71,0,0,1-2.268.667C206.872,107.149,206.071,105.281,207.005,105.281Z" transform="translate(69.031 34.932)"/>
    <path id="Path_130" data-name="Path 130" class="cls-2" d="M196.322,100.813a1.762,1.762,0,1,1,3.069,1.734c-.4.8-3.335,1.334-2.4.667S195.788,101.614,196.322,100.813Z" transform="translate(65.572 33.396)"/>
    <path id="Path_131" data-name="Path 131" class="cls-2" d="M189.3,118.144c0-.8,1.067-.534,1.868-.534.934.133,1.067,1.067.534,1.868-.4.667-2.4.934-1.868.534C190.1,119.745,189.3,118.811,189.3,118.144Z" transform="translate(63.255 39.279)"/>
    <path id="Path_132" data-name="Path 132" class="cls-2" d="M212.436,67.572c.133,2.268-4.136-1.868-4.136-4.136a4.157,4.157,0,0,1,4.136-4.136c2.268,0,5.337,2.135,4.136,4.136C215.5,64.9,212.3,65.7,212.436,67.572Z" transform="translate(69.604 19.81)"/>
    <path id="Path_133" data-name="Path 133" class="cls-2" d="M184.436,67.772c-1.468,1.734-4.136-1.868-4.136-4.136a4.157,4.157,0,0,1,4.136-4.136c2.268,0,5.737,2.4,4.136,4.136Z" transform="translate(60.248 19.877)"/>
    <path id="Path_134" data-name="Path 134" class="cls-2" d="M213.135,85.715c-2,.133-3.2-1.734-4.669-4.536-1.2-2.268,2-5.07,4.536-4.669,2,.4,4,2.535,4.669,4.536C218.471,83.447,215.67,85.582,213.135,85.715Z" transform="translate(69.572 25.547)"/>
    <path id="Path_135" data-name="Path 135" class="cls-2" d="M196.461,75.568c.133-.267-.4-.667-.934-.934-.4-.267.4-.934.934-.934a.912.912,0,0,1,.934.934C197.395,75.168,196.328,76.1,196.461,75.568Z" transform="translate(65.3 24.621)"/>
    <path id="Path_136" data-name="Path 136" class="cls-2" d="M195.034,66.168c0-.133-.934-.4-.934-.934a.934.934,0,1,1,1.868,0C195.968,65.768,195.034,66.435,195.034,66.168Z" transform="translate(64.859 21.481)"/>
    <path id="Path_137" data-name="Path 137" class="cls-2" d="M201.8,79.935c-.934,0-2.668-1.6-1.734-1.6s.667-1.734,1.6-1.734a1.669,1.669,0,0,1,.133,3.335Z" transform="translate(66.763 25.59)"/>
    <path id="Path_138" data-name="Path 138" class="cls-2" d="M203.289,91.369c.267-.4-.667-1.067-1.734-1.734-.8-.534.8-1.734,1.734-1.734a1.766,1.766,0,0,1,1.734,1.734C205.023,90.568,202.755,92.169,203.289,91.369Z" transform="translate(67.277 29.366)"/>
    <path id="Path_139" data-name="Path 139" class="cls-2" d="M221.634,88.417s-1.334-.667-1.334-1.334c0-.8.934-2,1.334-1.334a6.325,6.325,0,0,0,1.334,1.334C223.635,87.483,221.634,88.417,221.634,88.417Z" transform="translate(73.613 28.582)"/>
    <path id="Path_140" data-name="Path 140" class="cls-2" d="M131.71,101.24C98.624,108.444,59.267,82.7,59.4,67.886a6.542,6.542,0,0,1,1.067-3.335,348.816,348.816,0,0,1,65.639-26.416,70.679,70.679,0,0,1,7.871.934,24.226,24.226,0,0,1,9.873,3.736,29.422,29.422,0,0,1,6-4,46.273,46.273,0,0,1,10.94-4c19.612,5.737,35.488,21.746,43.226,33.353C211.224,78.693,166.4,93.769,131.71,101.24Z" transform="translate(19.852 11.624)"/>
    <path id="Path_141" data-name="Path 141" class="cls-3" d="M127.232,88.4C102.418,93.734,73.067,74.522,73.2,63.449c0-8.805,29.351-17.344,54.032-24.948a12.49,12.49,0,0,1,2.135-.534A24.226,24.226,0,0,1,139.24,41.7a29.422,29.422,0,0,1,6-4c16.41,3.2,29.751,16.41,36.022,25.882C186.6,71.587,153.115,82.794,127.232,88.4Z" transform="translate(24.463 12.593)"/>
    <path id="Path_142" data-name="Path 142" class="cls-4" d="M125.565,229.368c-2.4.267-3.335.133-2.135-1.2a.131.131,0,0,1,.133-.133.49.49,0,0,1,.4-.133A6.681,6.681,0,0,1,125.565,229.368Z" transform="translate(41.072 76.144)"/>
    <path id="Path_143" data-name="Path 143" class="cls-4" d="M120.08,233.667c-2.4.267-3.469.133-2.135-1.334C118.346,231.933,119.013,232.466,120.08,233.667Z" transform="translate(39.219 77.582)"/>
    <path id="Path_144" data-name="Path 144" class="cls-2" d="M113.822,242.756c-5.87,0-11.74.267-16.943.8-7.2-1.334-10.273-4.536-12.407-8-2.268-.133-4.669-.4-7.071-.667,4-1.6,9.072-3.068,14.008-2.668C101.148,232.884,112.221,240.221,113.822,242.756Z" transform="translate(25.866 77.564)"/>
    <path id="Path_145" data-name="Path 145" class="cls-5" d="M128.419,46.247c5.337,4.669,7.6,15.609,7.2,23.08-.534,9.206-15.076,10.273-23.614,5.47s-16.143-20.412-7.2-23.08C112.142,49.582,123.215,41.711,128.419,46.247Z" transform="translate(33.683 14.985)"/>
    <path id="Path_146" data-name="Path 146" class="cls-2" d="M44.01,81.919c-2.668-1.734-4.536-1.2-5.07-2.935-.667-2.135.8-5.6,2.935-5.07,1.868.534,4.269,1.334,5.07,2.935C48.013,78.85,45.878,83.119,44.01,81.919Z" transform="translate(12.961 24.674)"/>
    <path id="Path_147" data-name="Path 147" class="cls-2" d="M237.173,150.9c-.667,2.8-1.468,5.47-2.4,8.272a2.4,2.4,0,0,1-1.334-.267c-2.4-.8-4.269-6.137-1.734-6.27C234.1,152.5,235.706,151.167,237.173,150.9Z" transform="translate(77.019 50.416)"/>
    <path id="Path_148" data-name="Path 148" class="cls-2" d="M30.672,93.356c-.534.133-1.2-.133-1.067-.667a4.681,4.681,0,0,1,.667-1.067c.4-.267.934.133,1.067.667A.825.825,0,0,1,30.672,93.356Z" transform="translate(9.89 30.581)"/>
    <path id="Path_149" data-name="Path 149" class="cls-2" d="M27.073,84.525c-.267-.4-1.067-.133-1.067-.534-.133-.534.4-1.468.667-1.067.267.667.934.534,1.067.667C28.006,83.858,27.206,85.059,27.073,84.525Z" transform="translate(8.686 27.671)"/>
    <path id="Path_150" data-name="Path 150" class="cls-2" d="M36.786,96.319a7.242,7.242,0,0,0-2-1.2c-.934-.267.267-1.734,1.2-2a1.58,1.58,0,0,1,2,1.2C38.253,95.252,37.453,96.986,36.786,96.319Z" transform="translate(11.514 31.086)"/>
    <path id="Path_151" data-name="Path 151" class="cls-2" d="M230.013,140.813a1.916,1.916,0,0,1,2.4-.667,1.875,1.875,0,0,1,.667,2.4c-.4.8-3.335,1.334-2.4.667C231.614,142.681,229.613,141.747,230.013,140.813Z" transform="translate(76.841 46.762)"/>
    <path id="Path_152" data-name="Path 152" class="cls-2" d="M223,158.244c0-.8,1.067-.534,1.868-.534.934.133,1.067,1.067.534,1.868-.4.667-2.4.934-1.868.534C223.8,159.712,223,158.911,223,158.244Z" transform="translate(74.516 52.678)"/>
    <path id="Path_153" data-name="Path 153" class="cls-2" d="M19.05,107.553c1.468,1.334.934,3.469,0,6.537-.8,2.4-5.07,2.135-6.537,0-1.2-1.734-1.067-4.536,0-6.537C13.847,105.418,17.183,105.952,19.05,107.553Z" transform="translate(3.901 35.462)"/>
    <path id="Path_154" data-name="Path 154" class="cls-2" d="M230.261,115.668c.133-.267-.4-.667-.934-.934-.4-.267.4-.934.934-.934a.912.912,0,0,1,.934.934C231.061,115.268,229.994,116.068,230.261,115.668Z" transform="translate(76.593 38.02)"/>
    <path id="Path_155" data-name="Path 155" class="cls-2" d="M235.5,119.935c-.934,0-2.668-1.6-1.734-1.6s.667-1.734,1.6-1.734a1.654,1.654,0,0,1,1.734,1.6A1.579,1.579,0,0,1,235.5,119.935Z" transform="translate(78.024 38.956)"/>
    <path id="Path_156" data-name="Path 156" class="cls-2" d="M236.989,131.469c.267-.4-.667-1.067-1.734-1.734-.8-.534.8-1.734,1.734-1.734a1.766,1.766,0,0,1,1.734,1.734C238.723,130.668,236.455,132.269,236.989,131.469Z" transform="translate(78.537 42.765)"/>
    <path id="Path_157" data-name="Path 157" class="cls-2" d="M14.2,97.574s.534,1.468,0,2-2,.8-2,0a10.006,10.006,0,0,0,0-2C12.2,96.907,14.2,97.574,14.2,97.574Z" transform="translate(4.081 32.499)"/>
    <circle id="Ellipse_13" data-name="Ellipse 13" class="cls-2" cx="24.014" cy="24.014" r="24.014" transform="translate(166.104 142.881)"/>
    <circle id="Ellipse_14" data-name="Ellipse 14" class="cls-2" cx="24.014" cy="24.014" r="24.014" transform="translate(79.252 142.881)"/>
    <circle id="Ellipse_15" data-name="Ellipse 15" class="cls-6" cx="20.546" cy="20.546" r="20.546" transform="translate(82.72 144.883)"/>
    <circle id="Ellipse_16" data-name="Ellipse 16" class="cls-6" cx="20.546" cy="20.546" r="20.546" transform="translate(168.105 147.818)"/>
    <circle id="Ellipse_17" data-name="Ellipse 17" class="cls-7" cx="4.669" cy="4.669" r="4.669" transform="translate(103.266 162.226)"/>
    <circle id="Ellipse_18" data-name="Ellipse 18" class="cls-7" cx="4.669" cy="4.669" r="4.669" transform="translate(180.779 163.694)"/>
    <path id="Path_158" data-name="Path 158" class="cls-7" d="M211.559,218.137c-24.415.667-48.029,1.067-70.576.934H129.109c-14.942-.133-29.351-.4-43.226-.934-13.074-1.2-25.482-6.4-27.883-11.74.667-7.6,2.935-14.142,8-19.211,2.935-2.135,13.208-3.736,26.949-4.8,4.8-.4,9.873-.667,15.343-.934a8.807,8.807,0,0,0,1.868-.133c4.8-.267,9.873-.4,15.076-.534h.4c5.6-.133,11.474-.267,17.21-.267h.133c5.87,0,11.74-.133,17.344,0h.8c6,0,11.874.133,17.344.133,7.471.133,14.542.4,20.546.667,11.74.534,20.279,1.334,22.947,2.135a51.418,51.418,0,0,1,17.877,12.407C240.909,205.6,225.433,212.267,211.559,218.137Z" transform="translate(19.384 60.292)"/>
    <path id="Path_159" data-name="Path 159" class="cls-8" d="M98.945,184.6v19.345a7.863,7.863,0,0,1-2.135,5.2,15.536,15.536,0,0,1-7.738,4.669c-4.669-2.8-9.339-6.4-9.873-9.873V183.8c5.337-.4,11.207-.8,17.477-1.067a7.788,7.788,0,0,1,1.067-2.935,11.026,11.026,0,0,1,1.067,2.935A8.2,8.2,0,0,1,98.945,184.6Z" transform="translate(26.467 60.073)"/>
    <path id="Path_160" data-name="Path 160" class="cls-8" d="M112,184.6v19.345a9.686,9.686,0,0,1-1.334,3.335c-2.135,3.335-6.137,6.537-8.538,6.537-4,0-8.138-1.067-9.606-4.669a9.37,9.37,0,0,1-.267-5.2V184.6a8.808,8.808,0,0,1,.133-1.868,7.788,7.788,0,0,1,1.067-2.935,11.026,11.026,0,0,1,1.067,2.935c5.47-.267,11.34-.4,17.21-.667a5.673,5.673,0,0,1,.267,1.468h0Z" transform="translate(30.753 60.073)"/>
    <path id="Path_161" data-name="Path 161" class="cls-8" d="M127.38,206.382a67.46,67.46,0,0,1-.267,7.2,8.746,8.746,0,0,1-2.268,5.6,10.671,10.671,0,0,1-7.6,3.069c-2.268,0-4.269-1.468-6-3.2a29.72,29.72,0,0,1-4-5.47,29.929,29.929,0,0,1-1.334-9.873c0-6.137.667-13.475,1.334-20.812h0v-1.334c6.4-.133,13.074-.267,19.612-.267,0,.4.133.667.133,1.067C127.113,195.842,127.38,201.579,127.38,206.382Z" transform="translate(35.389 60.574)"/>
    <path id="Path_162" data-name="Path 162" class="cls-8" d="M141.679,181.2v26.683c-3.335,5.07-4.4,9.873-9.873,9.873a10,10,0,0,1-9.739-7.871,10.3,10.3,0,0,1-.267-2V181.333C128.471,181.2,135.141,181.2,141.679,181.2Z" transform="translate(40.701 60.54)"/>
    <path id="Path_163" data-name="Path 163" class="cls-8" d="M157.045,181.447V203.06a9.873,9.873,0,1,1-19.745,0V181.314C144.1,181.18,150.775,181.314,157.045,181.447Z" transform="translate(45.88 60.56)"/>
    <path id="Path_164" data-name="Path 164" class="cls-8" d="M175.547,182.067v25.749c-2,4.536-5.6,9.339-9.873,9.873h-3.6a9.85,9.85,0,0,1-9.873-9.873V181.4C160.605,181.533,168.61,181.8,175.547,182.067Z" transform="translate(50.859 60.607)"/>
    <path id="Path_165" data-name="Path 165" class="cls-7" d="M117.677,201.05a3.23,3.23,0,0,0,1.734-.534c.667-.4.8,1.2.534,1.734a1.349,1.349,0,0,1-1.734.534C117.543,202.384,117.01,200.916,117.677,201.05Z" transform="translate(39.221 66.973)"/>
    <path id="Path_166" data-name="Path 166" class="cls-7" d="M87.963,202.81a3.478,3.478,0,0,0,1.468-.4c.534-.267.667.934.4,1.468a1.073,1.073,0,0,1-1.468.4C87.83,204.011,87.429,202.676,87.963,202.81Z" transform="translate(29.311 67.614)"/>
    <path id="Path_167" data-name="Path 167" class="cls-7" d="M147.763,197.11a3.478,3.478,0,0,0,1.468-.4c.534-.267.667.934.4,1.468a1.073,1.073,0,0,1-1.468.4C147.63,198.177,147.229,196.976,147.763,197.11Z" transform="translate(49.292 65.71)"/>
    <path id="Path_168" data-name="Path 168" class="cls-7" d="M147.8,201.835c.133-.267-.4-.667-1.067-1.067-.534-.267.534-1.067,1.067-1.067a1.148,1.148,0,0,1,1.067,1.067C148.871,201.3,147.537,202.368,147.8,201.835Z" transform="translate(48.985 66.722)"/>
    <path id="Path_169" data-name="Path 169" class="cls-7" d="M121.238,78.843A428.879,428.879,0,0,0,153.791,7.067c-8-6.137-16.01-8.405-23.748-6.27,1.868,23.08-6.137,49.5-17.344,75.378C113.5,78.443,115.9,79.644,121.238,78.843Z" transform="translate(37.661 0)"/>
    <path id="Path_170" data-name="Path 170" class="cls-7" d="M157.315,100.71c.4-.267,2.668.8,4.136,2.935s2.135,4.536,1.734,4.8-1.6-1.734-3.068-3.869S156.914,100.977,157.315,100.71Z" transform="translate(52.548 33.633)"/>
    <path id="Path_171" data-name="Path 171" class="cls-7" d="M52.511,107.8c-.267-.4.667-2.668,2.8-4.269s4.4-2.4,4.669-2-1.6,1.734-3.736,3.2S52.645,108.2,52.511,107.8Z" transform="translate(17.535 33.885)"/>
  </g>
</svg>
