<svg xmlns="http://www.w3.org/2000/svg" xmlns:xlink="http://www.w3.org/1999/xlink" viewBox="0 0 1920 1080">
  <defs>
    <style>
      .cls-1 {
        fill: none;
      }

      .cls-2 {
        clip-path: url(#clip-Web_1920_2);
      }

      .cls-3 {
        fill: url(#linear-gradient);
      }

      .cls-30, .cls-35, .cls-4 {
        fill: #47838f;
      }

      .cls-18, .cls-36, .cls-5 {
        fill: #fff;
      }

      .cls-5 {
        stroke: #707070;
      }

      .cls-6 {
        clip-path: url(#clip-path);
      }

      .cls-7 {
        fill: #64b2c2;
      }

      .cls-8 {
        clip-path: url(#clip-path-2);
      }

      .cls-9 {
        clip-path: url(#clip-path-3);
      }

      .cls-10 {
        clip-path: url(#clip-path-4);
      }

      .cls-11 {
        clip-path: url(#clip-path-5);
      }

      .cls-12 {
        clip-path: url(#clip-path-6);
      }

      .cls-13 {
        fill: #323b40;
      }

      .cls-14 {
        fill: url(#linear-gradient-2);
      }

      .cls-15 {
        fill: url(#linear-gradient-3);
      }

      .cls-16 {
        clip-path: url(#clip-path-7);
      }

      .cls-17 {
        fill: #a3a428;
      }

      .cls-19 {
        clip-path: url(#clip-path-8);
      }

      .cls-20 {
        clip-path: url(#clip-path-9);
      }

      .cls-21, .cls-36 {
        opacity: 0.93;
      }

      .cls-22 {
        fill: red;
        font-size: 21px;
        font-family: SegoeUI-Bold, Segoe UI;
        font-weight: 700;
        opacity: 0.52;
      }

      .cls-23 {
        fill: #b7d271;
      }

      .cls-24 {
        fill: #9175c2;
      }

      .cls-25 {
        fill: #f97472;
      }

      .cls-26 {
        fill: #41403c;
      }

      .cls-27 {
        fill: url(#linear-gradient-6);
      }

      .cls-28 {
        fill: #f3f3ee;
      }

      .cls-29 {
        fill: #5a5b18;
      }

      .cls-30, .cls-32 {
        opacity: 0.85;
      }

      .cls-31 {
        fill: #498490;
      }

      .cls-33 {
        fill: url(#linear-gradient-7);
      }

      .cls-34 {
        fill: #c5d227;
      }

      .cls-35 {
        opacity: 0.53;
      }

      .cls-37 {
        clip-path: url(#clip-path-10);
      }

      .cls-38 {
        fill: url(#radial-gradient);
      }

      .cls-39 {
        stroke: none;
      }
    </style>
    <linearGradient id="linear-gradient" x1="0.477" y1="-0.16" x2="0.469" y2="0.518" gradientUnits="objectBoundingBox">
      <stop offset="0" stop-color="#f9f9f9"/>
      <stop offset="1" stop-color="#64b2c2"/>
    </linearGradient>
    <clipPath id="clip-path">
      <rect class="cls-1" width="232" height="308"/>
    </clipPath>
    <clipPath id="clip-path-2">
      <rect class="cls-1" width="105" height="58"/>
    </clipPath>
    <clipPath id="clip-path-3">
      <rect class="cls-1" width="201.267" height="45.252"/>
    </clipPath>
    <clipPath id="clip-path-4">
      <rect class="cls-1" width="94.812" height="28.418"/>
    </clipPath>
    <clipPath id="clip-path-5">
      <rect class="cls-1" width="63.932" height="28.418"/>
    </clipPath>
    <clipPath id="clip-path-6">
      <rect class="cls-1" width="27.941" height="28.418"/>
    </clipPath>
    <linearGradient id="linear-gradient-2" x1="0.162" y1="0.328" x2="0.805" y2="1.741" gradientUnits="objectBoundingBox">
      <stop offset="0" stop-color="#c5d227"/>
      <stop offset="1" stop-color="#636914"/>
    </linearGradient>
    <linearGradient id="linear-gradient-3" x1="0.189" y1="1.361" x2="1.285" y2="4.896" gradientUnits="objectBoundingBox">
      <stop offset="0" stop-color="#5a5b18"/>
      <stop offset="1" stop-color="#121205"/>
    </linearGradient>
    <clipPath id="clip-path-7">
      <rect class="cls-1" width="99.464" height="34.281"/>
    </clipPath>
    <clipPath id="clip-path-8">
      <rect class="cls-1" width="67.873" height="34.281"/>
    </clipPath>
    <clipPath id="clip-path-9">
      <rect class="cls-1" width="33.57" height="34.281"/>
    </clipPath>
    <linearGradient id="linear-gradient-6" x1="0.5" y1="0" x2="0.5" y2="1.803" xlink:href="#linear-gradient-2"/>
    <linearGradient id="linear-gradient-7" x1="0.379" y1="-0.484" x2="0.71" y2="2.084" xlink:href="#linear-gradient-2"/>
    <clipPath id="clip-path-10">
      <rect class="cls-1" width="1861.327" height="162.937"/>
    </clipPath>
    <radialGradient id="radial-gradient" cx="0.5" cy="0.305" r="0.894" gradientTransform="matrix(0.648, -0.077, 0.043, 0.855, 0.163, 0.083)" gradientUnits="objectBoundingBox">
      <stop offset="0" stop-color="#fff" stop-opacity="0.522"/>
      <stop offset="1" stop-color="#fffffb" stop-opacity="0"/>
    </radialGradient>
    <clipPath id="clip-Web_1920_2">
      <rect width="1920" height="1080"/>
    </clipPath>
  </defs>
  <g id="Web_1920_2" data-name="Web 1920 – 2" class="cls-2">
    <rect class="cls-18" width="1920" height="1080"/>
    <path id="Path_44" data-name="Path 44" class="cls-3" d="M0,0H1951V1103H0Z" transform="translate(-15 -11)"/>
    <rect id="Rectangle_14" data-name="Rectangle 14" class="cls-4" width="1976" height="146" transform="translate(-21 -11)"/>
    <g id="Group_40" data-name="Group 40" transform="translate(-439 298)">
      <g id="Rectangle_15" data-name="Rectangle 15" class="cls-5" transform="translate(1580 590)">
        <rect class="cls-39" width="11" height="1"/>
        <rect class="cls-1" x="0.5" y="0.5" width="10"/>
      </g>
      <rect id="Rectangle_16" data-name="Rectangle 16" class="cls-4" width="248" height="376" transform="translate(1440 285)"/>
      <g id="Repeat_Grid_1" data-name="Repeat Grid 1" class="cls-6" transform="translate(1448 301)">
        <g transform="translate(-3935 727)">
          <rect id="Rectangle_17" data-name="Rectangle 17" class="cls-7" width="232" height="91" transform="translate(3935 -727)"/>
        </g>
        <g transform="translate(-3935 831)">
          <rect id="Rectangle_17-2" data-name="Rectangle 17" class="cls-7" width="232" height="91" transform="translate(3935 -727)"/>
        </g>
        <g transform="translate(-3935 935)">
          <rect id="Rectangle_17-3" data-name="Rectangle 17" class="cls-7" width="232" height="91" transform="translate(3935 -727)"/>
        </g>
      </g>
      <g id="Group_14" data-name="Group 14" transform="translate(-2491 1028)">
        <g id="Repeat_Grid_2" data-name="Repeat Grid 2" class="cls-8" transform="translate(3956 -693)">
          <g id="Group_13" data-name="Group 13" transform="translate(-3956 694)">
            <rect id="Rectangle_18" data-name="Rectangle 18" class="cls-4" width="9" height="56" transform="translate(3958 -694)"/>
            <rect id="Rectangle_19" data-name="Rectangle 19" class="cls-4" width="13" height="5" transform="translate(3956 -641)"/>
          </g>
          <g id="Group_13-2" data-name="Group 13" transform="translate(-3941 694)">
            <rect id="Rectangle_18-2" data-name="Rectangle 18" class="cls-4" width="9" height="56" transform="translate(3958 -694)"/>
            <rect id="Rectangle_19-2" data-name="Rectangle 19" class="cls-4" width="13" height="5" transform="translate(3956 -641)"/>
          </g>
          <g id="Group_13-3" data-name="Group 13" transform="translate(-3926 694)">
            <rect id="Rectangle_18-3" data-name="Rectangle 18" class="cls-4" width="9" height="56" transform="translate(3958 -694)"/>
            <rect id="Rectangle_19-3" data-name="Rectangle 19" class="cls-4" width="13" height="5" transform="translate(3956 -641)"/>
          </g>
          <g id="Group_13-4" data-name="Group 13" transform="translate(-3911 694)">
            <rect id="Rectangle_18-4" data-name="Rectangle 18" class="cls-4" width="9" height="56" transform="translate(3958 -694)"/>
            <rect id="Rectangle_19-4" data-name="Rectangle 19" class="cls-4" width="13" height="5" transform="translate(3956 -641)"/>
          </g>
          <g id="Group_13-5" data-name="Group 13" transform="translate(-3896 694)">
            <rect id="Rectangle_18-5" data-name="Rectangle 18" class="cls-4" width="9" height="56" transform="translate(3958 -694)"/>
            <rect id="Rectangle_19-5" data-name="Rectangle 19" class="cls-4" width="13" height="5" transform="translate(3956 -641)"/>
          </g>
          <g id="Group_13-6" data-name="Group 13" transform="translate(-3881 694)">
            <rect id="Rectangle_18-6" data-name="Rectangle 18" class="cls-4" width="9" height="56" transform="translate(3958 -694)"/>
            <rect id="Rectangle_19-6" data-name="Rectangle 19" class="cls-4" width="13" height="5" transform="translate(3956 -641)"/>
          </g>
        </g>
        <rect id="Rectangle_20" data-name="Rectangle 20" class="cls-4" width="103" height="67" transform="translate(4051 -702)"/>
      </g>
      <g id="Repeat_Grid_3" data-name="Repeat Grid 3" class="cls-9" transform="translate(1463 450.748)">
        <g id="Group_15" data-name="Group 15" transform="translate(-3927 990)">
          <rect id="Rectangle_21" data-name="Rectangle 21" class="cls-4" width="32.267" height="39.743" rx="6" transform="translate(3927 -984.491)"/>
          <rect id="Rectangle_22" data-name="Rectangle 22" class="cls-4" width="23.61" height="17.314" transform="translate(3931.328 -990)"/>
        </g>
        <g id="Group_15-2" data-name="Group 15" transform="translate(-3874 990)">
          <rect id="Rectangle_21-2" data-name="Rectangle 21" class="cls-4" width="32.267" height="39.743" rx="6" transform="translate(3927 -984.491)"/>
          <rect id="Rectangle_22-2" data-name="Rectangle 22" class="cls-4" width="23.61" height="17.314" transform="translate(3931.328 -990)"/>
        </g>
        <g id="Group_15-3" data-name="Group 15" transform="translate(-3821 990)">
          <rect id="Rectangle_21-3" data-name="Rectangle 21" class="cls-4" width="32.267" height="39.743" rx="6" transform="translate(3927 -984.491)"/>
          <rect id="Rectangle_22-3" data-name="Rectangle 22" class="cls-4" width="23.61" height="17.314" transform="translate(3931.328 -990)"/>
        </g>
        <g id="Group_15-4" data-name="Group 15" transform="translate(-3768 990)">
          <rect id="Rectangle_21-4" data-name="Rectangle 21" class="cls-4" width="32.267" height="39.743" rx="6" transform="translate(3927 -984.491)"/>
          <rect id="Rectangle_22-4" data-name="Rectangle 22" class="cls-4" width="23.61" height="17.314" transform="translate(3931.328 -990)"/>
        </g>
      </g>
      <g id="Repeat_Grid_4" data-name="Repeat Grid 4" class="cls-10" transform="translate(1458 571.9)">
        <g id="Group_16" data-name="Group 16" transform="translate(-3986 916)">
          <rect id="Rectangle_23" data-name="Rectangle 23" class="cls-4" width="25.316" height="5.001" transform="translate(3986 -916)"/>
          <path id="Path_37" data-name="Path 37" class="cls-4" d="M0,0H23.988L19.549,29.479H5.105Z" transform="translate(3986.625 -913.5)"/>
        </g>
        <g id="Group_16-2" data-name="Group 16" transform="translate(-3952 916)">
          <rect id="Rectangle_23-2" data-name="Rectangle 23" class="cls-4" width="25.316" height="5.001" transform="translate(3986 -916)"/>
          <path id="Path_37-2" data-name="Path 37" class="cls-4" d="M0,0H23.988L19.549,29.479H5.105Z" transform="translate(3986.625 -913.5)"/>
        </g>
        <g id="Group_16-3" data-name="Group 16" transform="translate(-3918 916)">
          <rect id="Rectangle_23-3" data-name="Rectangle 23" class="cls-4" width="25.316" height="5.001" transform="translate(3986 -916)"/>
          <path id="Path_37-3" data-name="Path 37" class="cls-4" d="M0,0H23.988L19.549,29.479H5.105Z" transform="translate(3986.625 -913.5)"/>
        </g>
      </g>
      <g id="Repeat_Grid_5" data-name="Repeat Grid 5" class="cls-11" transform="translate(1473.33 543.463)">
        <g id="Group_16-4" data-name="Group 16" transform="translate(-3986 916)">
          <rect id="Rectangle_23-4" data-name="Rectangle 23" class="cls-4" width="25.316" height="5.001" transform="translate(3986 -916)"/>
          <path id="Path_37-4" data-name="Path 37" class="cls-4" d="M0,0H23.988L19.549,29.479H5.105Z" transform="translate(3986.625 -913.5)"/>
        </g>
        <g id="Group_16-5" data-name="Group 16" transform="translate(-3950 916)">
          <rect id="Rectangle_23-5" data-name="Rectangle 23" class="cls-4" width="25.316" height="5.001" transform="translate(3986 -916)"/>
          <path id="Path_37-5" data-name="Path 37" class="cls-4" d="M0,0H23.988L19.549,29.479H5.105Z" transform="translate(3986.625 -913.5)"/>
        </g>
      </g>
      <g id="Repeat_Grid_6" data-name="Repeat Grid 6" class="cls-12" transform="translate(1491.437 515.026)">
        <g id="Group_16-6" data-name="Group 16" transform="translate(-3986 916)">
          <rect id="Rectangle_23-6" data-name="Rectangle 23" class="cls-4" width="25.316" height="5.001" transform="translate(3986 -916)"/>
          <path id="Path_37-6" data-name="Path 37" class="cls-4" d="M0,0H23.988L19.549,29.479H5.105Z" transform="translate(3986.625 -913.5)"/>
        </g>
      </g>
      <g id="Group_16-7" data-name="Group 16" transform="translate(-2405.67 1481.263)">
        <rect id="Rectangle_23-7" data-name="Rectangle 23" class="cls-4" width="27.85" height="5.501" transform="translate(3986 -916)"/>
        <path id="Path_37-7" data-name="Path 37" class="cls-4" d="M0,0H26.388L21.505,32.429H5.616Z" transform="translate(3986.688 -913.249)"/>
      </g>
      <g id="Group_17" data-name="Group 17" transform="translate(-2363.67 1481.263)">
        <rect id="Rectangle_23-8" data-name="Rectangle 23" class="cls-4" width="27.85" height="5.501" transform="translate(3986 -916)"/>
        <path id="Path_37-8" data-name="Path 37" class="cls-4" d="M0,0H26.388L21.505,32.429H5.616Z" transform="translate(3986.688 -913.249)"/>
      </g>
    </g>
    <rect id="Rectangle_66" data-name="Rectangle 66" class="cls-13" width="1976" height="146" transform="translate(-28 958)"/>
    <rect id="Rectangle_16-2" data-name="Rectangle 16" class="cls-4" width="564.332" height="375" transform="translate(1247 583)"/>
    <g id="Group_44" data-name="Group 44" transform="translate(1256.057 597.054)">
      <rect id="Rectangle_17-4" data-name="Rectangle 17" class="cls-7" width="546.217" height="92.201"/>
      <rect id="Rectangle_17-5" data-name="Rectangle 17" class="cls-7" width="546.217" height="92.201" transform="translate(0 105.373)"/>
      <rect id="Rectangle_17-6" data-name="Rectangle 17" class="cls-7" width="546.217" height="92.201" transform="translate(0 210.745)"/>
    </g>
    <g id="Group_37" data-name="Group 37" transform="translate(144 158)">
      <rect id="Rectangle_25" data-name="Rectangle 25" class="cls-14" width="245.247" height="407.349" transform="translate(1443 409.651)"/>
      <rect id="Rectangle_26" data-name="Rectangle 26" class="cls-15" width="227.447" height="93.261" transform="translate(1451.9 427.875)"/>
      <rect id="Rectangle_26-2" data-name="Rectangle 26" class="cls-15" width="227.447" height="93.261" transform="translate(1451.9 542.576)"/>
      <rect id="Rectangle_26-3" data-name="Rectangle 26" class="cls-15" width="227.447" height="116.845" transform="translate(1451.9 657.276)"/>
      <g id="Repeat_Grid_7" data-name="Repeat Grid 7" class="cls-16" transform="translate(1473.296 742.314)">
        <g id="Group_19" data-name="Group 19" transform="translate(-4006.33 178.537)">
          <g id="Group_16-8" data-name="Group 16" transform="translate(20.33 737.463)">
            <path id="Path_37-9" data-name="Path 37" class="cls-17" d="M0,0H23.988L19.549,29.479H5.105Z" transform="translate(3986.625 -913.5)"/>
            <rect id="Rectangle_23-9" data-name="Rectangle 23" class="cls-18" width="25.316" height="5.001" transform="translate(3986 -916)"/>
          </g>
        </g>
        <g id="Group_19-2" data-name="Group 19" transform="translate(-3972.33 178.537)">
          <g id="Group_16-9" data-name="Group 16" transform="translate(20.33 737.463)">
            <path id="Path_37-10" data-name="Path 37" class="cls-17" d="M0,0H23.988L19.549,29.479H5.105Z" transform="translate(3986.625 -913.5)"/>
            <rect id="Rectangle_23-10" data-name="Rectangle 23" class="cls-18" width="25.316" height="5.001" transform="translate(3986 -916)"/>
          </g>
        </g>
        <g id="Group_19-3" data-name="Group 19" transform="translate(-3938.33 178.537)">
          <g id="Group_16-10" data-name="Group 16" transform="translate(20.33 737.463)">
            <path id="Path_37-11" data-name="Path 37" class="cls-17" d="M0,0H23.988L19.549,29.479H5.105Z" transform="translate(3986.625 -913.5)"/>
            <rect id="Rectangle_23-11" data-name="Rectangle 23" class="cls-18" width="25.316" height="5.001" transform="translate(3986 -916)"/>
          </g>
        </g>
      </g>
      <g id="Repeat_Grid_8" data-name="Repeat Grid 8" class="cls-19" transform="translate(1490.52 710.011)">
        <g id="Group_19-4" data-name="Group 19" transform="translate(-4006.33 178.537)">
          <g id="Group_16-11" data-name="Group 16" transform="translate(20.33 737.463)">
            <path id="Path_37-12" data-name="Path 37" class="cls-17" d="M0,0H23.988L19.549,29.479H5.105Z" transform="translate(3986.625 -913.5)"/>
            <rect id="Rectangle_23-12" data-name="Rectangle 23" class="cls-18" width="25.316" height="5.001" transform="translate(3986 -916)"/>
          </g>
        </g>
        <g id="Group_19-5" data-name="Group 19" transform="translate(-3972.33 178.537)">
          <g id="Group_16-12" data-name="Group 16" transform="translate(20.33 737.463)">
            <path id="Path_37-13" data-name="Path 37" class="cls-17" d="M0,0H23.988L19.549,29.479H5.105Z" transform="translate(3986.625 -913.5)"/>
            <rect id="Rectangle_23-13" data-name="Rectangle 23" class="cls-18" width="25.316" height="5.001" transform="translate(3986 -916)"/>
          </g>
        </g>
      </g>
      <g id="Repeat_Grid_9" data-name="Repeat Grid 9" class="cls-20" transform="translate(1507.672 677.708)">
        <g id="Group_19-6" data-name="Group 19" transform="translate(-4006.33 178.537)">
          <g id="Group_16-13" data-name="Group 16" transform="translate(20.33 737.463)">
            <path id="Path_37-14" data-name="Path 37" class="cls-17" d="M0,0H23.988L19.549,29.479H5.105Z" transform="translate(3986.625 -913.5)"/>
            <rect id="Rectangle_23-14" data-name="Rectangle 23" class="cls-18" width="25.316" height="5.001" transform="translate(3986 -916)"/>
          </g>
        </g>
      </g>
      <g id="Group_20" data-name="Group 20" class="cls-21" transform="translate(1596.163 725.883)">
        <rect id="Rectangle_27" data-name="Rectangle 27" class="cls-18" width="55.742" height="23.583"/>
        <rect id="Rectangle_28" data-name="Rectangle 28" class="cls-18" width="7.504" height="31.087" transform="translate(23.583 17.152)"/>
      </g>
      <text id="SALE" class="cls-22" transform="translate(1599.379 744.595)"><tspan x="0" y="0">SALE</tspan></text>
      <g id="Group_35" data-name="Group 35">
        <g id="Group_34" data-name="Group 34">
          <rect id="Rectangle_29" data-name="Rectangle 29" class="cls-7" width="31.02" height="47.421" transform="translate(1470.45 584.464)"/>
          <rect id="Rectangle_30" data-name="Rectangle 30" class="cls-18" width="34.467" height="3.952" transform="translate(1468.727 631.885)"/>
          <rect id="Rectangle_31" data-name="Rectangle 31" class="cls-18" width="25.85" height="29.638" transform="translate(1473.036 598.296)"/>
        </g>
        <g id="Group_33" data-name="Group 33">
          <rect id="Rectangle_33" data-name="Rectangle 33" class="cls-23" width="31.02" height="47.421" transform="translate(1515.473 584.464)"/>
          <rect id="Rectangle_32" data-name="Rectangle 32" class="cls-18" width="34.467" height="3.952" transform="translate(1513.75 631.885)"/>
          <rect id="Rectangle_34" data-name="Rectangle 34" class="cls-18" width="25.85" height="29.638" transform="translate(1518.058 598.296)"/>
        </g>
        <g id="Group_32" data-name="Group 32">
          <rect id="Rectangle_36" data-name="Rectangle 36" class="cls-7" width="31.02" height="47.421" transform="translate(1560.496 584.464)"/>
          <rect id="Rectangle_35" data-name="Rectangle 35" class="cls-18" width="34.467" height="3.952" transform="translate(1558.773 631.885)"/>
          <rect id="Rectangle_37" data-name="Rectangle 37" class="cls-18" width="25.85" height="29.638" transform="translate(1563.081 598.296)"/>
        </g>
        <g id="Group_31" data-name="Group 31">
          <rect id="Rectangle_39" data-name="Rectangle 39" class="cls-23" width="31.02" height="47.421" transform="translate(1629.102 584.464)"/>
          <rect id="Rectangle_38" data-name="Rectangle 38" class="cls-18" width="34.467" height="3.952" transform="translate(1627.379 631.885)"/>
          <rect id="Rectangle_40" data-name="Rectangle 40" class="cls-18" width="25.85" height="29.638" transform="translate(1631.687 598.296)"/>
        </g>
      </g>
      <g id="Group_30" data-name="Group 30">
        <g id="Group_29" data-name="Group 29">
          <rect id="Rectangle_42" data-name="Rectangle 42" class="cls-18" width="25.309" height="18.56" transform="translate(1576.003 472.627)"/>
          <rect id="Rectangle_41" data-name="Rectangle 41" class="cls-7" width="34.589" height="42.604" rx="6" transform="translate(1571.364 478.533)"/>
        </g>
        <g id="Group_21" data-name="Group 21" transform="translate(1619.602 472.627)">
          <rect id="Rectangle_44" data-name="Rectangle 44" class="cls-18" width="25.309" height="18.56" transform="translate(4.64)"/>
          <rect id="Rectangle_43" data-name="Rectangle 43" class="cls-24" width="34.589" height="42.604" rx="6" transform="translate(0 5.905)"/>
        </g>
        <g id="Group_22" data-name="Group 22" transform="translate(1466.583 472.627)">
          <rect id="Rectangle_44-2" data-name="Rectangle 44" class="cls-18" width="25.309" height="18.56" transform="translate(4.64)"/>
          <rect id="Rectangle_43-2" data-name="Rectangle 43" class="cls-25" width="34.589" height="42.604" rx="6" transform="translate(0 5.905)"/>
        </g>
        <g id="Group_23" data-name="Group 23" transform="translate(1528.758 472.627)">
          <rect id="Rectangle_44-3" data-name="Rectangle 44" class="cls-18" width="25.309" height="18.56" transform="translate(4.64)"/>
          <rect id="Rectangle_43-3" data-name="Rectangle 43" class="cls-25" width="34.589" height="42.604" rx="6" transform="translate(0 5.905)"/>
        </g>
      </g>
    </g>
    <g id="Group_28" data-name="Group 28" transform="translate(37 128)">
      <g id="Group_26" data-name="Group 26" transform="translate(-4017 -68)">
        <rect id="Rectangle_53" data-name="Rectangle 53" class="cls-26" width="193.14" height="73.469" transform="translate(4439 619.138)"/>
        <rect id="Rectangle_54" data-name="Rectangle 54" class="cls-26" width="91.31" height="37.113" transform="translate(4532.831 554)"/>
        <rect id="Rectangle_56" data-name="Rectangle 56" class="cls-18" width="76.499" height="26.509" transform="translate(4539.736 559.302)"/>
        <rect id="Rectangle_55" data-name="Rectangle 55" class="cls-26" width="15.148" height="67.41" transform="translate(4585.938 588.841)"/>
      </g>
      <g id="Group_27" data-name="Group 27" transform="translate(-57 172)">
        <rect id="Rectangle_47" data-name="Rectangle 47" class="cls-27" width="484.235" height="215.458" transform="translate(204.886 468.543)"/>
        <path id="Union_2" data-name="Union 2" class="cls-28" d="M318.072,65.216a7,7,0,0,1-7-7V37.625H9a9,9,0,0,1-9-9V9A9,9,0,0,1,9,0H530.191a9,9,0,0,1,9,9V28.625a8.98,8.98,0,0,1-.578,3.179,6.976,6.976,0,0,1,.578,2.788V58.217a7,7,0,0,1-7,7Z" transform="translate(180 436)"/>
      </g>
      <g id="Group_25" data-name="Group 25" transform="translate(-3972 232)">
        <rect id="Rectangle_48" data-name="Rectangle 48" class="cls-18" width="84.508" height="84.508" transform="translate(4172.934 489.903)"/>
        <rect id="Rectangle_49" data-name="Rectangle 49" class="cls-29" width="97.942" height="12.568" transform="translate(4166 460)"/>
        <rect id="Rectangle_51" data-name="Rectangle 51" class="cls-18" width="13.435" height="40.737" transform="translate(4181.602 460)"/>
        <rect id="Rectangle_52" data-name="Rectangle 52" class="cls-18" width="13.435" height="40.737" transform="translate(4235.773 460)"/>
      </g>
    </g>
    <g id="Group_45" data-name="Group 45" transform="translate(-54 90)">
      <path id="Subtraction_3" data-name="Subtraction 3" class="cls-30" d="M-1663.831,198.2H-1990V0h326.169V198.194ZM-1983.767,6.232V192.378h314.12V6.232Z" transform="translate(2093 252)"/>
      <rect id="Rectangle_60" data-name="Rectangle 60" class="cls-31" width="21.606" height="13.712" transform="translate(377.647 280.254)"/>
      <g id="Group_36" data-name="Group 36" class="cls-32" transform="translate(133.332 280.254)">
        <rect id="Rectangle_59" data-name="Rectangle 59" class="cls-31" width="237.667" height="13.712" transform="translate(0 0)"/>
        <rect id="Rectangle_61" data-name="Rectangle 61" class="cls-31" width="169.109" height="13.712" transform="translate(96.812 61.494)"/>
        <rect id="Rectangle_62" data-name="Rectangle 62" class="cls-31" width="265.921" height="13.712" transform="translate(0 30.747)"/>
        <rect id="Rectangle_65" data-name="Rectangle 65" class="cls-31" width="265.921" height="57.339" transform="translate(0 94.319)"/>
        <rect id="Rectangle_64" data-name="Rectangle 64" class="cls-31" width="90.164" height="13.712" transform="translate(0 61.494)"/>
      </g>
    </g>
    <g id="Group_39" data-name="Group 39" transform="translate(-2859.473 528.256)">
      <rect id="Rectangle_67" data-name="Rectangle 67" class="cls-33" width="363.445" height="154.308" transform="translate(4084.764 290.566)"/>
      <path id="Path_39" data-name="Path 39" class="cls-34" d="M-29.343,0H313.334V60.228H-50.19Z" transform="translate(4134.875 232)"/>
      <g id="Group_38" data-name="Group 38" transform="translate(4099.06 239.061)">
        <path id="Path_41" data-name="Path 41" class="cls-35" d="M-30.976,0H284.858V60.228H-50.19Z" transform="translate(50.19)"/>
        <path id="Intersection_1" data-name="Intersection 1" class="cls-36" d="M0,12.046,3.843,0H335.048V12.046Z" transform="translate(0 48.182)"/>
      </g>
      <rect id="Rectangle_69" data-name="Rectangle 69" class="cls-29" width="365.314" height="46.521" transform="translate(4082.895 400.223)"/>
    </g>
    <g id="Repeat_Grid_10" data-name="Repeat Grid 10" class="cls-37" transform="translate(29.825 117)">
      <g id="Group_42" data-name="Group 42" transform="translate(-2840.825 -1702)">
        <path id="Path_43" data-name="Path 43" class="cls-38" d="M2865.056,1772.391h89.685l37.412,101.546H2835.825Z" transform="translate(5 -9)"/>
        <g id="Group_41" data-name="Group 41" transform="translate(45 197)">
          <path id="Path_42" data-name="Path 42" class="cls-4" d="M49.2,0c27.17,0,49.2,17.2,49.2,38.419S0,59.637,0,38.419,22.026,0,49.2,0Z" transform="translate(2821 1538.988)"/>
          <rect id="Rectangle_70" data-name="Rectangle 70" class="cls-4" width="16.573" height="67.497" transform="translate(2862.052 1505)"/>
        </g>
      </g>
      <g id="Group_42-2" data-name="Group 42" transform="translate(-2608.825 -1702)">
        <path id="Path_43-2" data-name="Path 43" class="cls-38" d="M2865.056,1772.391h89.685l37.412,101.546H2835.825Z" transform="translate(5 -9)"/>
        <g id="Group_41-2" data-name="Group 41" transform="translate(45 197)">
          <path id="Path_42-2" data-name="Path 42" class="cls-4" d="M49.2,0c27.17,0,49.2,17.2,49.2,38.419S0,59.637,0,38.419,22.026,0,49.2,0Z" transform="translate(2821 1538.988)"/>
          <rect id="Rectangle_70-2" data-name="Rectangle 70" class="cls-4" width="16.573" height="67.497" transform="translate(2862.052 1505)"/>
        </g>
      </g>
      <g id="Group_42-3" data-name="Group 42" transform="translate(-2376.825 -1702)">
        <path id="Path_43-3" data-name="Path 43" class="cls-38" d="M2865.056,1772.391h89.685l37.412,101.546H2835.825Z" transform="translate(5 -9)"/>
        <g id="Group_41-3" data-name="Group 41" transform="translate(45 197)">
          <path id="Path_42-3" data-name="Path 42" class="cls-4" d="M49.2,0c27.17,0,49.2,17.2,49.2,38.419S0,59.637,0,38.419,22.026,0,49.2,0Z" transform="translate(2821 1538.988)"/>
          <rect id="Rectangle_70-3" data-name="Rectangle 70" class="cls-4" width="16.573" height="67.497" transform="translate(2862.052 1505)"/>
        </g>
      </g>
      <g id="Group_42-4" data-name="Group 42" transform="translate(-2144.825 -1702)">
        <path id="Path_43-4" data-name="Path 43" class="cls-38" d="M2865.056,1772.391h89.685l37.412,101.546H2835.825Z" transform="translate(5 -9)"/>
        <g id="Group_41-4" data-name="Group 41" transform="translate(45 197)">
          <path id="Path_42-4" data-name="Path 42" class="cls-4" d="M49.2,0c27.17,0,49.2,17.2,49.2,38.419S0,59.637,0,38.419,22.026,0,49.2,0Z" transform="translate(2821 1538.988)"/>
          <rect id="Rectangle_70-4" data-name="Rectangle 70" class="cls-4" width="16.573" height="67.497" transform="translate(2862.052 1505)"/>
        </g>
      </g>
      <g id="Group_42-5" data-name="Group 42" transform="translate(-1912.825 -1702)">
        <path id="Path_43-5" data-name="Path 43" class="cls-38" d="M2865.056,1772.391h89.685l37.412,101.546H2835.825Z" transform="translate(5 -9)"/>
        <g id="Group_41-5" data-name="Group 41" transform="translate(45 197)">
          <path id="Path_42-5" data-name="Path 42" class="cls-4" d="M49.2,0c27.17,0,49.2,17.2,49.2,38.419S0,59.637,0,38.419,22.026,0,49.2,0Z" transform="translate(2821 1538.988)"/>
          <rect id="Rectangle_70-5" data-name="Rectangle 70" class="cls-4" width="16.573" height="67.497" transform="translate(2862.052 1505)"/>
        </g>
      </g>
      <g id="Group_42-6" data-name="Group 42" transform="translate(-1680.825 -1702)">
        <path id="Path_43-6" data-name="Path 43" class="cls-38" d="M2865.056,1772.391h89.685l37.412,101.546H2835.825Z" transform="translate(5 -9)"/>
        <g id="Group_41-6" data-name="Group 41" transform="translate(45 197)">
          <path id="Path_42-6" data-name="Path 42" class="cls-4" d="M49.2,0c27.17,0,49.2,17.2,49.2,38.419S0,59.637,0,38.419,22.026,0,49.2,0Z" transform="translate(2821 1538.988)"/>
          <rect id="Rectangle_70-6" data-name="Rectangle 70" class="cls-4" width="16.573" height="67.497" transform="translate(2862.052 1505)"/>
        </g>
      </g>
      <g id="Group_42-7" data-name="Group 42" transform="translate(-1448.825 -1702)">
        <path id="Path_43-7" data-name="Path 43" class="cls-38" d="M2865.056,1772.391h89.685l37.412,101.546H2835.825Z" transform="translate(5 -9)"/>
        <g id="Group_41-7" data-name="Group 41" transform="translate(45 197)">
          <path id="Path_42-7" data-name="Path 42" class="cls-4" d="M49.2,0c27.17,0,49.2,17.2,49.2,38.419S0,59.637,0,38.419,22.026,0,49.2,0Z" transform="translate(2821 1538.988)"/>
          <rect id="Rectangle_70-7" data-name="Rectangle 70" class="cls-4" width="16.573" height="67.497" transform="translate(2862.052 1505)"/>
        </g>
      </g>
      <g id="Group_42-8" data-name="Group 42" transform="translate(-1216.825 -1702)">
        <path id="Path_43-8" data-name="Path 43" class="cls-38" d="M2865.056,1772.391h89.685l37.412,101.546H2835.825Z" transform="translate(5 -9)"/>
        <g id="Group_41-8" data-name="Group 41" transform="translate(45 197)">
          <path id="Path_42-8" data-name="Path 42" class="cls-4" d="M49.2,0c27.17,0,49.2,17.2,49.2,38.419S0,59.637,0,38.419,22.026,0,49.2,0Z" transform="translate(2821 1538.988)"/>
          <rect id="Rectangle_70-8" data-name="Rectangle 70" class="cls-4" width="16.573" height="67.497" transform="translate(2862.052 1505)"/>
        </g>
      </g>
      <g id="Group_42-9" data-name="Group 42" transform="translate(-984.825 -1702)">
        <path id="Path_43-9" data-name="Path 43" class="cls-38" d="M2865.056,1772.391h89.685l37.412,101.546H2835.825Z" transform="translate(5 -9)"/>
        <g id="Group_41-9" data-name="Group 41" transform="translate(45 197)">
          <path id="Path_42-9" data-name="Path 42" class="cls-4" d="M49.2,0c27.17,0,49.2,17.2,49.2,38.419S0,59.637,0,38.419,22.026,0,49.2,0Z" transform="translate(2821 1538.988)"/>
          <rect id="Rectangle_70-9" data-name="Rectangle 70" class="cls-4" width="16.573" height="67.497" transform="translate(2862.052 1505)"/>
        </g>
      </g>
    </g>
  </g>
</svg>
