<svg xmlns="http://www.w3.org/2000/svg" viewBox="0 0 170.183 309.728">
  <defs>
    <style>
      .cls-1 {
        fill: #f1d844;
      }

      .cls-2, .cls-3, .cls-5, .cls-6, .cls-7, .cls-8, .cls-9 {
        fill: #262317;
      }

      .cls-2 {
        opacity: 0.64;
      }

      .cls-3, .cls-4 {
        opacity: 0.82;
      }

      .cls-4 {
        fill: #f8f4e6;
      }

      .cls-6 {
        opacity: 0.09;
      }

      .cls-7 {
        opacity: 0.26;
      }

      .cls-8 {
        opacity: 0.18;
      }

      .cls-9 {
        opacity: 0.72;
      }

      .cls-10 {
        fill: #c9b53a;
      }
    </style>
  </defs>
  <g id="Group_56" data-name="Group 56" transform="translate(-2999.588 -1678)">
    <g id="Group_53" data-name="Group 53" transform="translate(2999.588 1677.9)">
      <path id="Path_172" data-name="Path 172" class="cls-1" d="M170.119,136.443c0,6.849-.311,14.113-1.038,21.9-.1.83-.1,1.66-.208,2.594-7.575,29.056-16.915,55.309-29.886,75.545a112.324,112.324,0,0,1-7.99,11.1,11.366,11.366,0,0,1-1.038,1.141c-2.49,2.8-4.981,5.5-7.471,8.2-.83.83-1.557,1.764-2.387,2.594l-.311.311c-1.764,1.868-3.632,3.839-5.4,5.707v.1l-2.8,2.8c-1.349,1.349-2.7,2.7-4.151,4.047-.519.519-1.141,1.038-1.66,1.557-.623.623-1.245,1.141-1.868,1.764l-.1.1c-.726.726-1.557,1.349-2.283,2.075l-.208.208c-.726.623-1.453,1.245-2.179,1.972l-1.868,1.557L95.4,283.278c-1.245,1.038-2.49,1.972-3.736,3.009-.623.519-1.245.934-1.868,1.453-1.868,1.453-3.839,2.8-5.811,4.151a125.79,125.79,0,0,1-23.867,12.868h0c-.519.208-1.038.415-1.66.623-1.141.415-2.179.83-3.321,1.245-.519.208-1.141.415-1.66.623a28.628,28.628,0,0,1-2.8.83c-.208,0-.311.1-.519.208-.934.311-1.868.519-2.8.83a137.64,137.64,0,0,1-17.952.623H27.124c-.519,0-1.141-.1-1.66-.1h-.623a10.222,10.222,0,0,1-1.764-.208h0c-.83-.1-1.557-.208-2.283-.311-.415-.1-.83-.1-1.245-.208A27.571,27.571,0,0,1,9.69,305.8a19.8,19.8,0,0,1-2.179-1.557l-.623-.623c-2.283-.83-3.839-7.783-5.189-15.773l.311-.311c.623-.623,1.245-1.141,1.972-1.764,1.868-1.764,3.839-3.424,5.811-5.189,1.557-1.453,3.217-2.8,4.877-4.255q17.745-15.254,38.914-30.612c1.141-.83,2.283-1.66,3.528-2.49.726-.726,1.349-1.453,2.075-2.179,5.4-5.811,10.9-12.037,16.084-18.679,1.764-2.179,3.424-4.358,5.085-6.641,7.99-10.9,15.047-22.414,19.82-33.725a152.593,152.593,0,0,0,7.679-23.245c.519-1.972.934-3.943,1.349-5.915a290.485,290.485,0,0,0,5.915-46.074c0-11,2.075-20.443,6.33-28.537a36.751,36.751,0,0,1,1.972-3.424c.623-1.038,1.349-1.972,1.972-2.906-4.151-3.839-.311-37.565-7.16-47.942l-6.226,1.972-1.868-8.717c-3.839-6.226-2.387-11.622,0-16.811,5.5,8.82,11.518,17.018,20.858,20.65a103.488,103.488,0,0,0,.519,18.99c.311,2.075.623,4.151.934,6.122.415,2.179.934,4.255,1.453,6.226.415,1.349.83,2.7,1.245,3.943a55.658,55.658,0,0,0,2.906,6.641,26.389,26.389,0,0,0,1.66,2.906,39.509,39.509,0,0,0,3.839,5.189,11.361,11.361,0,0,0,1.038,1.141c.726.726,1.453,1.349,2.179,1.972a7.269,7.269,0,0,1,1.038.83c.1.1.208.1.311.208.415.311.83.623,1.349,1.038a5.2,5.2,0,0,1,.83.726,1.25,1.25,0,0,1,.519.519,2.424,2.424,0,0,1,.726.726l.519.519c.623.623,1.245,1.245,1.868,1.972.208.208.311.415.519.519.415.415.726.934,1.141,1.349.311.415.726.934,1.038,1.349a5.755,5.755,0,0,0,.623.83,2.264,2.264,0,0,0,.415.519,24.845,24.845,0,0,1,2.179,3.528,7.738,7.738,0,0,0,.726,1.245,12.388,12.388,0,0,1,.83,1.66l.934,1.868c.208.519.519,1.038.726,1.66.519,1.245,1.038,2.49,1.453,3.736.208.623.415,1.349.623,1.972.1.208.1.415.208.623.1.415.311.83.415,1.245.1.519.311,1.038.415,1.557.1.311.208.623.311,1.038l.934,4.047c.1.726.311,1.349.415,2.075.1.623.208,1.349.311,2.075s.208,1.349.311,2.075c0,.208.1.519.1.726,0,.311.1.726.1,1.038a9.138,9.138,0,0,1,.208,1.764c.1.623.1,1.141.208,1.764,0,.519.1.934.1,1.453a20.15,20.15,0,0,1,.208,2.49c.1,1.349.208,2.594.208,3.943,0,.726.1,1.349.1,2.075a11.278,11.278,0,0,0,.1,1.868v1.868C170.119,134.782,170.119,135.613,170.119,136.443Z" transform="translate(0.064 0.011)"/>
      <path id="Path_173" data-name="Path 173" class="cls-2" d="M121.22,80.1A22.988,22.988,0,0,0,117.07,91l-4.67,55C115.306,119.429,118.107,92.449,121.22,80.1Z" transform="translate(4.238 3.016)"/>
      <path id="Path_174" data-name="Path 174" class="cls-2" d="M141.549,87.694c-2.075-9.858-4.047-19.82-6.849-24.594a.1.1,0,0,1,.1.1,39.508,39.508,0,0,0,3.839,5.189Z" transform="translate(5.078 2.375)"/>
      <path id="Path_175" data-name="Path 175" class="cls-3" d="M163.993,152.6c-.1.83-.1,1.66-.208,2.594-7.575,29.056-16.915,55.31-29.886,75.545V224.72Z" transform="translate(5.048 5.75)"/>
      <path id="Path_176" data-name="Path 176" class="cls-3" d="M7.511,293.507l-.623-.623c-2.283-.83-3.839-7.783-5.189-15.773l.311-.311a17.313,17.313,0,0,1,7.16,3.217C10.417,285.205,9.794,289.668,7.511,293.507Z" transform="translate(0.064 10.432)"/>
      <path id="Path_177" data-name="Path 177" class="cls-4" d="M9.754,295.165c-.415.934-.934,1.868-1.453,2.8a6.714,6.714,0,0,0-.934-.83C4.047,295.892,1.868,285.93,0,274.619l.519-.519a35,35,0,0,1,3.528,1.038c-.623.623-1.245,1.141-1.972,1.764l-.311.311c1.349,7.99,2.906,14.943,5.189,15.773l.623.623A19.808,19.808,0,0,0,9.754,295.165Z" transform="translate(0 10.33)"/>
      <path id="Path_178" data-name="Path 178" class="cls-3" d="M9.69,295.128a19.8,19.8,0,0,1-2.179-1.557l-.623-.623c-2.283-.83-3.839-7.783-5.189-15.773l.311-.311c.623-.623,1.245-1.141,1.972-1.764a23.259,23.259,0,0,1,6.745,3.528C12.077,284.854,11.662,290.354,9.69,295.128Z" transform="translate(0.064 10.368)"/>
      <path id="Path_179" data-name="Path 179" class="cls-3" d="M126.006,72.947c-.83,3.113-2.387,4.773-4.462,5.5a30.132,30.132,0,0,1-4.047-.519,36.749,36.749,0,0,1,1.972-3.424c.623-1.038,1.349-1.972,1.972-2.906-4.151-3.839-.311-37.565-7.16-47.942l-6.226,1.972-1.868-8.717c-3.839-6.226-2.387-11.622,0-16.811,5.5,8.82,11.518,17.018,20.858,20.65a103.488,103.488,0,0,0,.519,18.99c-1.245-3.943-3.424-4.566-6.019-3.528C121.44,51.051,122.374,64.126,126.006,72.947Z" transform="translate(3.914 0)"/>
      <path id="Path_180" data-name="Path 180" class="cls-5" d="M133.061,184.468c0,1.038-.311,1.868-.623,1.868-1.66-.208-.934-.83-.623-1.868s.311-1.868.623-1.868C132.853,182.6,133.061,183.43,133.061,184.468Z" transform="translate(4.954 6.881)"/>
      <path id="Path_181" data-name="Path 181" class="cls-5" d="M119.434,175.615c0,.208-.311.311-.415.415-.519.623-.623.208-.415-.415.1-.208.208-.415.415-.415A.446.446,0,0,1,119.434,175.615Z" transform="translate(4.468 6.602)"/>
      <path id="Path_182" data-name="Path 182" class="cls-6" d="M133.023,132.4c3.424-2.387,3.321,37.357-1.557,41.612-3.424,3.113-39.329,51.781-40.367,49.706C107.911,192.9,122.335,162.393,133.023,132.4Z" transform="translate(3.435 4.984)"/>
      <path id="Path_183" data-name="Path 183" class="cls-7" d="M130.848,143.6c2.387-1.66,2.283,25.735-1.038,28.641-2.387,2.075-27.084,35.7-27.81,34.244C113.622,185.318,123.48,164.253,130.848,143.6Z" transform="translate(3.846 5.408)"/>
      <path id="Path_184" data-name="Path 184" class="cls-7" d="M129.641,152.8c1.453-1.038,1.349,15.773-.623,17.537-1.453,1.349-16.6,21.9-17.018,20.962A274.789,274.789,0,0,0,129.641,152.8Z" transform="translate(4.223 5.755)"/>
      <path id="Path_185" data-name="Path 185" class="cls-6" d="M78.373,207.6c-.934,10.792-8.509,30.4-15.047,29.574-1.349-.208-5.707,0-11.726.415,1.141-.83,2.283-1.66,3.528-2.49.726-.726,1.349-1.453,2.075-2.179,5.4-5.811,10.9-12.037,16.084-18.679C75.052,212.062,76.712,209.779,78.373,207.6Z" transform="translate(1.945 7.823)"/>
      <path id="Path_186" data-name="Path 186" class="cls-7" d="M73.088,214c-2.906,9.547-8.094,19.3-12.764,18.679a17.9,17.9,0,0,0-3.424,0C62.4,226.867,67.9,220.641,73.088,214Z" transform="translate(2.145 8.064)"/>
      <path id="Path_187" data-name="Path 187" class="cls-6" d="M127.986,240.06c-2.49,2.8-4.981,5.5-7.471,8.2-.83.83-1.557,1.764-2.387,2.594l-.311.311c-1.764,1.868-3.632,3.839-5.4,5.707v.1l-2.8,2.8c-1.349,1.349-2.7,2.7-4.151,4.047-.519.519-1.141,1.038-1.66,1.557-.623.623-1.245,1.141-1.868,1.764l-.1.1c-.726.726-1.557,1.349-2.283,2.075l-.208.208c-.726.623-1.453,1.245-2.179,1.972L95.3,273.059l-1.868,1.557c-1.245,1.038-2.49,1.972-3.736,3.009-.623.519-1.245.934-1.868,1.453-1.868,1.453-3.839,2.8-5.811,4.151A125.79,125.79,0,0,1,58.149,296.1h0c-.519.208-1.038.415-1.66.623-1.141.415-2.179.83-3.321,1.245-.519.208-1.141.415-1.66.623-.1,0-.1-.1-.208-.1,29.263-21.9,54.064-44.517,71.809-68.281C125.392,229.683,127.052,234.145,127.986,240.06Z" transform="translate(1.934 8.674)"/>
      <path id="Path_188" data-name="Path 188" class="cls-8" d="M20.149,297.6c.726.1,1.557.208,2.283.311A19.4,19.4,0,0,1,18.8,297.5,5.483,5.483,0,0,1,20.149,297.6Z" transform="translate(0.709 11.213)"/>
      <path id="Path_189" data-name="Path 189" class="cls-8" d="M169.342,133.732c0,6.849-.311,14.113-1.038,21.9-.1.83-.1,1.66-.208,2.594-7.575,29.056-16.915,55.31-29.886,75.545a112.323,112.323,0,0,1-7.99,11.1,11.364,11.364,0,0,1-1.038,1.141c-2.49,2.8-4.981,5.5-7.471,8.2-.83.83-1.557,1.764-2.387,2.594l-.311.311c-1.764,1.868-3.632,3.839-5.4,5.707v.1l-2.8,2.8c-1.349,1.349-2.7,2.7-4.151,4.047-.519.519-1.141,1.038-1.66,1.557-.623.623-1.245,1.141-1.868,1.764l-.1.1c-.726.726-1.557,1.349-2.283,2.075l-.208.208c-.726.623-1.453,1.245-2.179,1.972L96.5,279.01l-1.868,1.557c-1.245,1.038-2.49,1.972-3.736,3.009-.623.519-1.245.934-1.868,1.453-1.868,1.453-3.839,2.8-5.811,4.151a125.79,125.79,0,0,1-23.867,12.868h0c-.519.208-1.038.415-1.66.623-1.141.415-2.179.83-3.321,1.245-.519.208-1.141.415-1.66.623a28.612,28.612,0,0,1-2.8.83c-.208,0-.311.1-.519.208-.934.311-1.868.519-2.8.83a137.634,137.634,0,0,1-17.952.623H26.347c-.519,0-1.141-.1-1.66-.1h-.623a10.225,10.225,0,0,1-1.764-.208c25.009.311,95.884-47.112,120.788-129.4,0-.1.1-.208.1-.311,9.132-30.3,12.037-65.375,4.047-104.5,0-.1,0-.1-.1-.208.1.1.208.1.311.208.415.311.83.623,1.349,1.038a5.2,5.2,0,0,1,.83.726,1.251,1.251,0,0,1,.519.519,2.424,2.424,0,0,1,.726.726l.519.519c.623.623,1.245,1.245,1.868,1.972.208.208.311.415.519.519.415.415.726.934,1.141,1.349.311.415.726.934,1.038,1.349a5.756,5.756,0,0,0,.623.83,2.264,2.264,0,0,0,.415.519,24.847,24.847,0,0,1,2.179,3.528,7.738,7.738,0,0,0,.726,1.245,12.385,12.385,0,0,1,.83,1.66l.934,1.868c.208.519.519,1.038.726,1.66.519,1.245,1.038,2.49,1.453,3.736.208.623.415,1.349.623,1.972.1.208.1.415.208.623.1.415.311.83.415,1.245.1.519.311,1.038.415,1.557.1.311.208.623.311,1.038l.934,4.047c.1.726.311,1.349.415,2.075.1.623.208,1.349.311,2.075s.208,1.349.311,2.075c0,.208.1.519.1.726,0,.311.1.726.1,1.038a9.136,9.136,0,0,1,.208,1.764c.1.623.1,1.141.208,1.764,0,.519.1.934.1,1.453a20.15,20.15,0,0,1,.208,2.49c.1,1.349.208,2.594.208,3.943,0,.726.1,1.349.1,2.075a11.278,11.278,0,0,0,.1,1.868v1.868C169.342,132.072,169.342,132.9,169.342,133.732Z" transform="translate(0.841 2.722)"/>
      <path id="Path_190" data-name="Path 190" class="cls-9" d="M119.124,140.56c1.038-1.141,3.321-2.387,4.358-1.141.83.934,1.66,3.217,1.141,4.358s-2.8,1.349-4.358,1.141C118.5,144.607,117.878,141.806,119.124,140.56Z" transform="translate(4.467 5.233)"/>
      <path id="Path_191" data-name="Path 191" class="cls-9" d="M106.909,151.67c-.415.83-1.66,1.141-3.009,1.245.519-1.972.934-3.943,1.349-5.915.1.1.311.208.415.311C106.6,148.245,107.428,150.528,106.909,151.67Z" transform="translate(3.917 5.538)"/>
      <path id="Path_192" data-name="Path 192" class="cls-9" d="M100.291,265.832h0c-.83.83-1.66,1.453-2.387,2.179l-.208.208c-.726.623-1.453,1.245-2.179,1.972a3.126,3.126,0,0,1,.1-3.528c1.038-1.142,3.321-2.49,4.358-1.142Z" transform="translate(3.583 9.986)"/>
      <path id="Path_193" data-name="Path 193" class="cls-9" d="M15,269.839c-.519,1.142-2.8,1.349-4.358,1.142a1.5,1.5,0,0,1-1.141-.726c1.557-1.453,3.217-2.8,4.877-4.255C14.9,267.141,15.415,268.905,15,269.839Z" transform="translate(0.358 10.025)"/>
      <path id="Path_194" data-name="Path 194" class="cls-8" d="M100.4,224.115c.208-.311.83-.623.934-.208a1.4,1.4,0,0,1,.208.934c0,.415-.623.415-.934.208A1,1,0,0,1,100.4,224.115Z" transform="translate(3.784 8.43)"/>
      <path id="Path_195" data-name="Path 195" class="cls-8" d="M46.8,265.715c.208-.311.83-.623.934-.208a1.4,1.4,0,0,1,.208.934c0,.415-.623.415-.934.208A.676.676,0,0,1,46.8,265.715Z" transform="translate(1.761 9.999)"/>
      <path id="Path_196" data-name="Path 196" class="cls-9" d="M131.708,126.909c.311.1.623-.415.934-.208s.623,1.038.208.934c-.519-.208-.726.208-.934.208C131.5,127.947,131.293,126.806,131.708,126.909Z" transform="translate(4.957 4.771)"/>
      <path id="Path_197" data-name="Path 197" class="cls-9" d="M114.006,156.409c.311.1.623-.415.934-.208s.623,1.038.208.934c-.519-.208-.726.208-.934.208C113.9,157.447,113.694,156.306,114.006,156.409Z" transform="translate(4.292 5.883)"/>
      <path id="Path_198" data-name="Path 198" class="cls-9" d="M133.4,60.541a4.976,4.976,0,0,1-1.764.519c-1.557.1-2.49-1.349-3.632-3.528-.83-1.453.83-3.217,2.49-3.632A42.791,42.791,0,0,0,133.4,60.541Z" transform="translate(4.818 2.028)"/>
      <path id="Path_199" data-name="Path 199" class="cls-9" d="M129.2,50.326c-.934-.519-1.66-1.764-2.594-3.321a2.427,2.427,0,0,1,1.038-2.906Z" transform="translate(4.766 1.659)"/>
      <path id="Path_200" data-name="Path 200" class="cls-9" d="M143.128,72.309h-.208A4.3,4.3,0,0,1,141.26,72c-1.038-.415-1.453-1.349-1.66-2.7.726.726,1.453,1.349,2.179,1.972a7.27,7.27,0,0,1,1.038.83C142.921,72.206,143.024,72.206,143.128,72.309Z" transform="translate(5.263 2.609)"/>
      <path id="Path_201" data-name="Path 201" class="cls-9" d="M131.764,108.4c.208-.311-.726-1.038-1.764-1.557,1.245-2.075,3.113-1.141,3.113.208C133.113,107.778,131.349,109.127,131.764,108.4Z" transform="translate(4.901 3.979)"/>
      <path id="Path_202" data-name="Path 202" class="cls-9" d="M148.038,106.881S147,106.362,147,105.843c0-.623.726-1.557,1.038-1.038a4.919,4.919,0,0,0,1.038,1.038C149.594,106.154,148.038,106.881,148.038,106.881Z" transform="translate(5.542 3.942)"/>
      <path id="Path_203" data-name="Path 203" class="cls-9" d="M104.2,185.515c.208-.311.83-.623.934-.208a1.4,1.4,0,0,1,.208.934c0,.415-.623.415-.934.208A.676.676,0,0,1,104.2,185.515Z" transform="translate(3.925 6.975)"/>
      <path id="Path_204" data-name="Path 204" class="cls-9" d="M33.6,261.915c.208-.311.83-.623.934-.208a1.4,1.4,0,0,1,.208.934c0,.415-.623.415-.934.208A.794.794,0,0,1,33.6,261.915Z" transform="translate(1.265 9.856)"/>
      <path id="Path_205" data-name="Path 205" class="cls-9" d="M18.4,291.915c.208-.311.83-.623.934-.208a1.4,1.4,0,0,1,.208.934c0,.415-.623.415-.934.208A.676.676,0,0,1,18.4,291.915Z" transform="translate(0.69 10.987)"/>
      <path id="Path_206" data-name="Path 206" class="cls-9" d="M136.613,172.023a4.833,4.833,0,0,0,2.075-.623c1.038,1.972-.519,3.113-1.66,2.49C136.405,173.475,135.886,172.023,136.613,172.023Z" transform="translate(5.137 6.458)"/>
      <path id="Path_207" data-name="Path 207" class="cls-9" d="M101.264,210.8c.208-.311-.726-1.038-1.764-1.557,1.245-2.075,3.113-1.141,3.113.208C102.613,210.178,100.849,211.423,101.264,210.8Z" transform="translate(3.751 7.839)"/>
      <path id="Path_208" data-name="Path 208" class="cls-9" d="M24.864,283.2c.208-.311-.726-1.038-1.764-1.557,1.245-2.075,3.113-1.141,3.113.208C26.317,282.578,24.553,283.927,24.864,283.2Z" transform="translate(0.871 10.569)"/>
      <path id="Path_209" data-name="Path 209" class="cls-9" d="M124.038,190.381S123,189.862,123,189.343s.726-1.557,1.038-1.038a4.919,4.919,0,0,0,1.038,1.038C125.49,189.654,124.038,190.381,124.038,190.381Z" transform="translate(4.637 7.09)"/>
      <path id="Path_210" data-name="Path 210" class="cls-9" d="M152.829,132.153c.1-.208-.311-.519-.726-.726-.311-.208.311-.726.726-.726a.709.709,0,0,1,.726.726C153.556,131.841,152.726,132.568,152.829,132.153Z" transform="translate(5.731 4.924)"/>
      <path id="Path_211" data-name="Path 211" class="cls-10" d="M99.324,194.16c1.038-1.141,3.321-2.387,4.358-1.141.83.934,1.66,3.217,1.141,4.358s-2.8,1.349-4.358,1.141C98.7,198.311,98.078,195.509,99.324,194.16Z" transform="translate(3.72 7.254)"/>
      <path id="Path_212" data-name="Path 212" class="cls-10" d="M84.6,200.315c.208-.311.83-.623.934-.208a1.4,1.4,0,0,1,.208.934c0,.415-.623.415-.934.208A.676.676,0,0,1,84.6,200.315Z" transform="translate(3.186 7.533)"/>
      <path id="Path_213" data-name="Path 213" class="cls-10" d="M93.406,203.909c.311.1.623-.415.934-.208s.623,1.038.208.934c-.519-.208-.726.208-.934.208C93.3,204.843,93.094,203.806,93.406,203.909Z" transform="translate(3.516 7.674)"/>
      <path id="Path_214" data-name="Path 214" class="cls-10" d="M84.412,260.823a4.832,4.832,0,0,0,2.075-.623c1.038,1.972-.519,3.113-1.66,2.49C84.308,262.172,83.686,260.719,84.412,260.823Z" transform="translate(3.17 9.806)"/>
      <path id="Path_215" data-name="Path 215" class="cls-10" d="M89.539,239.261c-1.557.1-2.49-1.349-3.632-3.528-.934-1.764,1.557-3.943,3.528-3.632a5.589,5.589,0,0,1,3.632,3.528C93.69,237.5,91.511,239.157,89.539,239.261Z" transform="translate(3.231 8.746)"/>
      <path id="Path_216" data-name="Path 216" class="cls-10" d="M80.364,246.2c.208-.311-.726-1.038-1.764-1.557,1.245-2.075,3.113-1.141,3.113.208C81.713,245.578,79.949,246.927,80.364,246.2Z" transform="translate(2.963 9.174)"/>
      <path id="Path_217" data-name="Path 217" class="cls-10" d="M97.538,186.381s-1.038-.519-1.038-1.038c0-.623.726-1.557,1.038-1.038a4.919,4.919,0,0,0,1.038,1.038C98.99,185.654,97.538,186.381,97.538,186.381Z" transform="translate(3.638 6.939)"/>
      <path id="Path_218" data-name="Path 218" class="cls-10" d="M68.7,237.915c.208-.311.83-.623.934-.208a1.4,1.4,0,0,1,.208.934c0,.415-.623.415-.934.208C68.7,238.745,68.6,238.33,68.7,237.915Z" transform="translate(2.589 8.951)"/>
      <path id="Path_219" data-name="Path 219" class="cls-10" d="M62.812,240.323a4.833,4.833,0,0,0,2.075-.623c1.038,1.972-.519,3.113-1.66,2.49C62.708,241.672,62.086,240.219,62.812,240.323Z" transform="translate(2.356 9.033)"/>
      <path id="Path_220" data-name="Path 220" class="cls-10" d="M53.364,254.5c.208-.311-.726-1.038-1.764-1.557,1.245-2.075,3.113-1.141,3.113.208C54.713,253.878,52.949,255.123,53.364,254.5Z" transform="translate(1.945 9.487)"/>
      <path id="Path_221" data-name="Path 221" class="cls-10" d="M77.238,222.881s-1.038-.519-1.038-1.038.726-1.557,1.038-1.038a4.919,4.919,0,0,0,1.038,1.038C78.794,222.154,77.238,222.881,77.238,222.881Z" transform="translate(2.873 8.316)"/>
      <path id="Path_222" data-name="Path 222" class="cls-10" d="M101.729,212.753c.1-.208-.311-.519-.726-.726-.311-.208.311-.726.726-.726a.709.709,0,0,1,.726.726C102.456,212.441,101.522,213.064,101.729,212.753Z" transform="translate(3.805 7.963)"/>
    </g>
  </g>
</svg>
