<svg xmlns="http://www.w3.org/2000/svg" xmlns:xlink="http://www.w3.org/1999/xlink" viewBox="0 0 1366 4096">
  <defs>
    <style>
      .cls-1, .cls-26, .cls-27, .cls-29, .cls-30, .cls-31, .cls-32, .cls-71 {
        fill: none;
      }

      .cls-2 {
        clip-path: url(#clip-iPad_Pro_12.9in_4);
      }

      .cls-10, .cls-11, .cls-26, .cls-27, .cls-29, .cls-3, .cls-30, .cls-31, .cls-32, .cls-33, .cls-34, .cls-35, .cls-47, .cls-9 {
        stroke: #707070;
      }

      .cls-3 {
        fill: url(#linear-gradient);
      }

      .cls-4 {
        opacity: 0.11;
      }

      .cls-4, .cls-5 {
        fill: url(#linear-gradient-2);
      }

      .cls-5 {
        opacity: 0.72;
      }

      .cls-6 {
        opacity: 0.84;
        fill: url(#linear-gradient-5);
      }

      .cls-7 {
        opacity: 0.79;
        fill: url(#linear-gradient-6);
      }

      .cls-13, .cls-8 {
        opacity: 0.73;
      }

      .cls-8 {
        fill: url(#linear-gradient-8);
      }

      .cls-9 {
        fill: url(#linear-gradient-9);
      }

      .cls-10, .cls-61 {
        opacity: 0.52;
      }

      .cls-10 {
        fill: url(#linear-gradient-10);
      }

      .cls-11 {
        opacity: 0.3;
        fill: url(#linear-gradient-11);
      }

      .cls-12 {
        fill: #a3a428;
      }

      .cls-13 {
        fill: url(#linear-gradient-12);
      }

      .cls-14 {
        opacity: 0.66;
        fill: url(#linear-gradient-13);
      }

      .cls-15 {
        opacity: 0.57;
        fill: url(#linear-gradient-14);
      }

      .cls-16 {
        fill: url(#linear-gradient-15);
      }

      .cls-17 {
        opacity: 0.39;
        fill: url(#linear-gradient-16);
      }

      .cls-18, .cls-19, .cls-33, .cls-34 {
        fill: #403e15;
      }

      .cls-19, .cls-21, .cls-34 {
        opacity: 0.22;
      }

      .cls-20, .cls-35 {
        fill: #585815;
      }

      .cls-21 {
        fill: url(#linear-gradient-17);
      }

      .cls-22 {
        fill: #d96944;
      }

      .cls-23, .cls-47, .cls-68 {
        fill: #fff;
      }

      .cls-24 {
        fill: #86382c;
      }

      .cls-25 {
        fill: #9d3f33;
      }

      .cls-26 {
        opacity: 0.8;
      }

      .cls-27 {
        opacity: 0.65;
      }

      .cls-28 {
        fill: #ddcec7;
      }

      .cls-29 {
        opacity: 0.56;
      }

      .cls-31 {
        opacity: 0.6;
      }

      .cls-32 {
        opacity: 0.5;
      }

      .cls-36 {
        fill: url(#linear-gradient-18);
      }

      .cls-37, .cls-44, .cls-67 {
        fill: #47838f;
      }

      .cls-38 {
        fill: #41403c;
      }

      .cls-39 {
        fill: url(#linear-gradient-19);
      }

      .cls-40 {
        fill: #f3f3ee;
      }

      .cls-41 {
        fill: #5a5b18;
      }

      .cls-42 {
        clip-path: url(#clip-path);
      }

      .cls-43 {
        fill: url(#radial-gradient);
      }

      .cls-44, .cls-46 {
        opacity: 0.85;
      }

      .cls-45 {
        fill: #498490;
      }

      .cls-48 {
        clip-path: url(#clip-path-3);
      }

      .cls-49 {
        fill: #64b2c2;
      }

      .cls-50 {
        clip-path: url(#clip-path-4);
      }

      .cls-51 {
        clip-path: url(#clip-path-5);
      }

      .cls-52 {
        clip-path: url(#clip-path-6);
      }

      .cls-53 {
        clip-path: url(#clip-path-7);
      }

      .cls-54 {
        clip-path: url(#clip-path-8);
      }

      .cls-55 {
        fill: url(#linear-gradient-20);
      }

      .cls-56 {
        fill: url(#linear-gradient-21);
      }

      .cls-57 {
        clip-path: url(#clip-path-9);
      }

      .cls-58 {
        clip-path: url(#clip-path-10);
      }

      .cls-59 {
        clip-path: url(#clip-path-11);
      }

      .cls-60, .cls-68 {
        opacity: 0.93;
      }

      .cls-61 {
        fill: red;
        font-size: 16px;
        font-family: SegoeUI-Bold, Segoe UI;
        font-weight: 700;
      }

      .cls-62 {
        fill: #b7d271;
      }

      .cls-63 {
        fill: #9175c2;
      }

      .cls-64 {
        fill: #f97472;
      }

      .cls-65 {
        fill: url(#linear-gradient-24);
      }

      .cls-66 {
        fill: #c5d227;
      }

      .cls-67 {
        opacity: 0.53;
      }

      .cls-69 {
        fill: #323b40;
      }

      .cls-70 {
        stroke: none;
      }

      .cls-71 {
        clip-path: url(#clip);
      }
    </style>
    <linearGradient id="linear-gradient" x1="0.485" y1="0.865" x2="0.49" y2="-0.099" gradientUnits="objectBoundingBox">
      <stop offset="0" stop-color="#e4ecee"/>
      <stop offset="1" stop-color="#489fb1"/>
    </linearGradient>
    <linearGradient id="linear-gradient-2" x1="0.069" y1="1.944" x2="0.614" y2="0.231" gradientUnits="objectBoundingBox">
      <stop offset="0" stop-color="#64b2c2" stop-opacity="0.11"/>
      <stop offset="0.55" stop-color="#92c9d4" stop-opacity="0.373"/>
      <stop offset="1" stop-color="#fff"/>
    </linearGradient>
    <linearGradient id="linear-gradient-5" x1="0.561" y1="2.362" x2="0.614" y2="0.231" gradientUnits="objectBoundingBox">
      <stop offset="0" stop-color="#64b2c2" stop-opacity="0.11"/>
      <stop offset="0.549" stop-color="#80c0cd" stop-opacity="0.271"/>
      <stop offset="1" stop-color="#fff"/>
    </linearGradient>
    <linearGradient id="linear-gradient-6" x1="0.025" y1="2.136" x2="0.739" y2="-0.29" gradientUnits="objectBoundingBox">
      <stop offset="0" stop-color="#64b2c2"/>
      <stop offset="0.463" stop-color="#68b4c3"/>
      <stop offset="1" stop-color="#d7e4e6" stop-opacity="0.251"/>
    </linearGradient>
    <linearGradient id="linear-gradient-8" x1="0.5" y1="-0.169" x2="0.533" y2="1.11" gradientUnits="objectBoundingBox">
      <stop offset="0" stop-color="#b8b27e"/>
      <stop offset="1" stop-color="#5c593f"/>
    </linearGradient>
    <linearGradient id="linear-gradient-9" x1="0.5" y1="0.142" x2="0.47" y2="1.076" gradientUnits="objectBoundingBox">
      <stop offset="0" stop-color="#9c862f"/>
      <stop offset="1" stop-color="#4e4318"/>
    </linearGradient>
    <linearGradient id="linear-gradient-10" x1="0.304" y1="-1.066" x2="0.492" y2="0.746" gradientUnits="objectBoundingBox">
      <stop offset="0" stop-color="#585815"/>
      <stop offset="1" stop-color="#121204" stop-opacity="0.188"/>
    </linearGradient>
    <linearGradient id="linear-gradient-11" x1="0.469" y1="0.145" x2="0.529" y2="0.861" gradientUnits="objectBoundingBox">
      <stop offset="0" stop-color="#585815"/>
      <stop offset="1" stop-color="#121204"/>
    </linearGradient>
    <linearGradient id="linear-gradient-12" x1="0.287" y1="0.085" x2="0.764" y2="0.603" gradientUnits="objectBoundingBox">
      <stop offset="0" stop-color="#818120" stop-opacity="0.502"/>
      <stop offset="1" stop-color="#262609"/>
    </linearGradient>
    <linearGradient id="linear-gradient-13" x1="0.439" y1="0.837" x2="1.092" y2="-0.649" gradientUnits="objectBoundingBox">
      <stop offset="0" stop-color="#818120" stop-opacity="0.239"/>
      <stop offset="1" stop-color="#414110"/>
    </linearGradient>
    <linearGradient id="linear-gradient-14" x1="0.548" y1="0.626" x2="0.871" y2="-0.315" gradientUnits="objectBoundingBox">
      <stop offset="0" stop-color="#818120" stop-opacity="0.341"/>
      <stop offset="1" stop-color="#414110"/>
    </linearGradient>
    <linearGradient id="linear-gradient-15" x1="0.435" y1="-0.147" x2="0.574" y2="1.729" gradientUnits="objectBoundingBox">
      <stop offset="0" stop-color="#7c790d"/>
      <stop offset="1" stop-color="#3e3d07"/>
    </linearGradient>
    <linearGradient id="linear-gradient-16" x1="0.868" y1="0.452" x2="0.193" y2="1.106" gradientUnits="objectBoundingBox">
      <stop offset="0" stop-color="#545212" stop-opacity="0"/>
      <stop offset="0.774" stop-color="#212007" stop-opacity="0.753"/>
      <stop offset="1" stop-color="#111004"/>
    </linearGradient>
    <linearGradient id="linear-gradient-17" x1="0.5" x2="0.418" y2="0.795" gradientUnits="objectBoundingBox">
      <stop offset="0" stop-color="#343315"/>
      <stop offset="1" stop-color="#0d0c04" stop-opacity="0.09"/>
    </linearGradient>
    <linearGradient id="linear-gradient-18" x1="0.477" y1="-0.16" x2="0.469" y2="0.518" gradientUnits="objectBoundingBox">
      <stop offset="0" stop-color="#f9f9f9"/>
      <stop offset="1" stop-color="#64b2c2"/>
    </linearGradient>
    <linearGradient id="linear-gradient-19" x1="0.5" x2="0.5" y2="1.803" gradientUnits="objectBoundingBox">
      <stop offset="0" stop-color="#c5d227"/>
      <stop offset="1" stop-color="#636914"/>
    </linearGradient>
    <clipPath id="clip-path">
      <rect class="cls-1" width="1660.156" height="145.326"/>
    </clipPath>
    <radialGradient id="radial-gradient" cx="0.5" cy="0.305" r="0.894" gradientTransform="matrix(0.648, -0.077, 0.043, 0.855, 0.163, 0.083)" gradientUnits="objectBoundingBox">
      <stop offset="0" stop-color="#fff" stop-opacity="0.522"/>
      <stop offset="1" stop-color="#fffffb" stop-opacity="0"/>
    </radialGradient>
    <clipPath id="clip-path-3">
      <rect class="cls-1" width="206.926" height="274.712"/>
    </clipPath>
    <clipPath id="clip-path-4">
      <rect class="cls-1" width="93.652" height="51.731"/>
    </clipPath>
    <clipPath id="clip-path-5">
      <rect class="cls-1" width="179.514" height="40.362"/>
    </clipPath>
    <clipPath id="clip-path-6">
      <rect class="cls-1" width="84.564" height="25.347"/>
    </clipPath>
    <clipPath id="clip-path-7">
      <rect class="cls-1" width="57.022" height="25.347"/>
    </clipPath>
    <clipPath id="clip-path-8">
      <rect class="cls-1" width="24.921" height="25.347"/>
    </clipPath>
    <linearGradient id="linear-gradient-20" x1="0.162" y1="0.328" x2="0.805" y2="1.741" xlink:href="#linear-gradient-19"/>
    <linearGradient id="linear-gradient-21" x1="0.189" y1="1.361" x2="1.285" y2="4.896" gradientUnits="objectBoundingBox">
      <stop offset="0" stop-color="#5a5b18"/>
      <stop offset="1" stop-color="#121205"/>
    </linearGradient>
    <clipPath id="clip-path-9">
      <rect class="cls-1" width="88.714" height="30.576"/>
    </clipPath>
    <clipPath id="clip-path-10">
      <rect class="cls-1" width="60.538" height="30.576"/>
    </clipPath>
    <clipPath id="clip-path-11">
      <rect class="cls-1" width="29.942" height="30.576"/>
    </clipPath>
    <linearGradient id="linear-gradient-24" x1="0.379" y1="-0.484" x2="0.71" y2="2.084" xlink:href="#linear-gradient-19"/>
    <clipPath id="clip-iPad_Pro_12.9in_4">
      <rect width="1366" height="4096"/>
    </clipPath>
    <clipPath id="clip">
      <use xlink:href="#fill"/>
    </clipPath>
  </defs>
  <g id="iPad_Pro_12.9in_4" data-name="iPad Pro 12.9in – 4" class="cls-2">
    <rect class="cls-23" width="1366" height="4096"/>
    <g id="Rectangle_75" data-name="Rectangle 75" class="cls-3" transform="translate(-17.364 -21.602)">
      <rect class="cls-70" width="1461.484" height="1902.37"/>
      <rect class="cls-1" x="0.5" y="0.5" width="1460.484" height="1901.37"/>
    </g>
    <path id="Path_64" data-name="Path 64" class="cls-4" d="M0,0S47.444,9.253,81.691,23.646s55.3,33.927,55.3,33.927,17.333-4.958,34.3-4.958,33.568,4.958,33.568,4.958,27.2.63,42.286,14.509,18.04,41.008,18.04,41.008,30.018-3.855,54.839,0,24.169,3.159,40.9,13.742,9.69,17.026,26.028,28.592,36.44,12.167,36.44,12.167,36.9-7.2,61.724,0,43.994,35.971,43.994,35.971l21.448,18.779,36.364,17.2s30.159,6.6,46.183,12,17.914,9.594,17.914,9.594H0Z" transform="translate(-8.477 -102.317)"/>
    <path id="Path_72" data-name="Path 72" class="cls-5" d="M808.955,0S750,15.805,707.445,40.391s-68.714,57.952-68.714,57.952-21.538-8.469-42.62-8.469S554.4,98.343,554.4,98.343s-33.8,1.075-52.545,24.783-22.416,70.048-22.416,70.048-37.3-6.585-68.143,0-30.033,5.4-50.824,23.474-12.041,29.082-32.343,48.839a75.578,75.578,0,0,1-45.28,20.783s-45.855-12.293-76.7,0-54.667,61.444-54.667,61.444l-26.652,32.078L79.646,409.176S42.171,420.448,22.26,429.667,0,446.055,0,446.055H808.955Z" transform="matrix(1, -0.017, 0.017, 1, 860.348, -102.511)"/>
    <path id="Path_68" data-name="Path 68" class="cls-5" d="M808.955,0S750,15.805,707.445,40.391s-68.714,57.952-68.714,57.952-21.538-8.469-42.62-8.469S554.4,98.343,554.4,98.343s-33.8,1.075-52.545,24.783-22.416,70.048-22.416,70.048-37.3-6.585-68.143,0-30.033,5.4-50.824,23.474-12.041,29.082-32.343,48.839a75.578,75.578,0,0,1-45.28,20.783s-45.855-12.293-76.7,0-54.667,61.444-54.667,61.444l-26.652,32.078L79.646,409.176S42.171,420.448,22.26,429.667,0,446.055,0,446.055H808.955Z" transform="translate(833.261 -132.3) rotate(-15)"/>
    <path id="Path_80" data-name="Path 80" class="cls-6" d="M598.814,0s-43.639,11.666-75.141,29.813a194.6,194.6,0,0,0-50.864,42.775s-15.943-6.251-31.549-6.251-30.876,6.251-30.876,6.251-25.023.794-38.9,18.293-16.593,51.7-16.593,51.7-27.611-4.861-50.442,0-22.231,3.982-37.622,17.326-8.913,21.466-23.941,36.048a56.032,56.032,0,0,1-33.518,15.34s-33.943-9.073-56.774,0-40.466,45.352-40.466,45.352L92.4,280.326,58.957,302.016s-27.74,8.32-42.479,15.125S0,329.237,0,329.237H598.814Z" transform="translate(991.027 119.101)"/>
    <path id="Path_65" data-name="Path 65" class="cls-7" d="M0,0S43.957,3.757,72.135,18.034s40.576,39.073,40.576,39.073,34.189-14.652,66.124,6.011,61.615,76.643,61.615,76.643,30.808-6.011,57.107,0,48.09,24.045,48.09,24.045,15.78,15.4,42.079,25.548,63.118,15.028,63.118,15.028H0Z" transform="translate(-24.552 100.615) rotate(11)"/>
    <path id="Path_66" data-name="Path 66" class="cls-7" d="M-80.033,195.636S-36.076,199.393-7.9,213.67s40.576,39.073,40.576,39.073,34.189-14.652,66.124,6.011S160.417,335.4,160.417,335.4s30.808-6.011,57.107,0,48.09,24.045,48.09,24.045,15.78,15.4,42.079,25.548,63.118,15.028,63.118,15.028H-80.033Z" transform="translate(6.975 -13.628)"/>
    <path id="Path_67" data-name="Path 67" class="cls-8" d="M1679.878,493.018s-88.4-30.958-187.552-44.634-191.877,0-191.877,0-65.448,5.865-101.59,19.54-60.146,25.094-60.146,25.094-32.461,11.722-85.21,15.629-125.786,0-125.786,0l189.505,123.081h562.654Z" transform="translate(-193.279 1076.102)"/>
    <path id="Path_69" data-name="Path 69" class="cls-9" d="M2176.971,508.971s153.461-17.34,316.747-10.4,245.075,26.588,490.149,62.425,455.469,55.489,455.469,55.489V765.606H2176.971Z" transform="translate(-2184.695 1034.688)"/>
    <path id="Path_70" data-name="Path 70" class="cls-10" d="M-78.032,432.891s274.336-30.054,470.832,0,418.913,87.161,418.913,87.161S655.42,524.56,468.77,549.657-70.218,610.674-70.218,610.674Z" transform="translate(54.183 1111.872)"/>
    <path id="Path_78" data-name="Path 78" class="cls-11" d="M1485.359,721.29s-148.215-20.52-286.18-20.52S933.5,721.29,933.5,721.29l56.656,164.153h441.527Z" transform="translate(-293.17 972.077)"/>
    <path id="Path_74" data-name="Path 74" class="cls-12" d="M-44.463,569.02V970.271H1339.629V842.532S914.708,661.443,568.685,593.065-44.463,569.02-44.463,569.02Z" transform="translate(37.222 1073.423)"/>
    <path id="Path_73" data-name="Path 73" class="cls-12" d="M562.93,0S463.285,8.6,322.021,48.727,0,165.057,0,165.057L562.93,343.45Z" transform="matrix(0.999, -0.035, 0.035, 0.999, 871.173, 1613.458)"/>
    <path id="Path_81" data-name="Path 81" class="cls-13" d="M569.211,0S477.7,1.1,335.4,40.938,0,159.343,0,159.343L581.135,341.448Z" transform="translate(1009.649 1747.446) rotate(3)"/>
    <path id="Path_75" data-name="Path 75" class="cls-14" d="M569.211,0S477.7,1.1,335.4,40.938,0,159.343,0,159.343L581.135,341.448Z" transform="translate(924.475 1602.108) rotate(3)"/>
    <path id="Path_79" data-name="Path 79" class="cls-15" d="M569.211,0S477.7,1.1,335.4,40.938,0,159.343,0,159.343L581.135,341.448Z" transform="translate(978.453 1678.286) rotate(-1)"/>
    <path id="Path_76" data-name="Path 76" class="cls-16" d="M-44.463,569.02V970.271H1339.629V842.532s-4.791-10.785-22.906-18.221c-100.118-41.1-454.957-173.33-748.038-231.246C222.662,524.687-44.463,569.02-44.463,569.02Z" transform="translate(37.222 1081.535)"/>
    <path id="Path_77" data-name="Path 77" class="cls-17" d="M2176.457,606.224s332.525-37.062,601.55,55.376,424.307,349.966,424.307,349.966H2176.457Z" transform="translate(-2173.853 1040.24)"/>
    <g id="Group_61" data-name="Group 61" transform="translate(394.151 1527.618)">
      <path id="Subtraction_1" data-name="Subtraction 1" class="cls-18" d="M9.1,29.005h0s-.162-.1-.428-.29c-.247-.173-.641-.456-1.113-.822-.53-.412-1.048-.844-1.539-1.284C5.4,26.06,4.829,25.5,4.31,24.936S3.242,23.722,2.677,23c-.452-.581-.914-1.209-1.375-1.869C.52,20.007.005,19.173,0,19.164H0c.006-.019.162-.47.432-1.2.255-.691.668-1.785,1.192-3.079l1.211.6-1.146-.76c.7-1.727,1.423-3.369,2.141-4.882.6-1.254,1.294-2.64,2.078-4.12L8.516,7.009,6.082,5.395C6.916,3.83,7.692,2.447,8.2,1.562,8.741.6,9.095.006,9.1,0V0c.092.154.931,1.559,2.019,3.492.669,1.188,1.3,2.336,1.869,3.413.714,1.345,1.339,2.582,1.857,3.675.328.691.65,1.4.958,2.114l-2.489,1.253,2.628-.929c.348.816.683,1.647,1,2.469.25.658.487,1.312.7,1.944.368,1.074.553,1.724.555,1.73-.018.028-.456.7-1.165,1.667-.421.573-.852,1.133-1.281,1.665-.536.665-1.071,1.286-1.59,1.847l-.121.13-2.451-1.865,2.183,2.148c-.5.522-1.057,1.07-1.655,1.629-.478.447-.984.9-1.5,1.353C9.728,28.507,9.1,29,9.1,29.005Z" transform="translate(5.959)"/>
      <path id="Subtraction_2" data-name="Subtraction 2" class="cls-19" d="M5.795,20.991h0s-.41-.3-.982-.8c-.338-.3-.667-.611-.98-.929-.391-.4-.757-.805-1.088-1.211s-.68-.878-1.04-1.4c-.288-.42-.582-.875-.876-1.352C.33,14.478,0,13.875,0,13.869H0c.01-.034.1-.343.268-.848.158-.488.416-1.263.742-2.181l.8.443-.753-.563c.455-1.273.921-2.484,1.387-3.6.366-.877.795-1.844,1.274-2.875l1.71.952-1.6-1.194C4.368,2.848,4.874,1.82,5.2,1.162,5.558.455,5.792,0,5.795,0V0c.059.112.6,1.136,1.285,2.526.426.86.826,1.691,1.19,2.47.455.974.853,1.868,1.183,2.659.219.525.435,1.066.64,1.607l-1.614.916,1.7-.679c.217.581.426,1.172.621,1.757.156.468.3.933.439,1.382.231.767.345,1.223.346,1.228-.012.021-.293.511-.742,1.207-.268.415-.542.82-.816,1.205-.342.481-.682.931-1.013,1.337l-.09.109L7.381,16.4l1.38,1.53c-.318.377-.671.772-1.051,1.175-.3.322-.625.651-.954.975-.562.554-.957.908-.961.912Z" transform="translate(10.136 54.179) rotate(-151)"/>
      <path id="Path_16" data-name="Path 16" class="cls-20" d="M992.5,1910.345l-.9,11.284-.305,6.846,1.2.258,1.03-.258-.505-7.109Z" transform="translate(-977.346 -1894.955)"/>
    </g>
    <g id="Group_60" data-name="Group 60" transform="translate(421.19 1518.694)">
      <path id="Subtraction_1-2" data-name="Subtraction 1" class="cls-18" d="M6.51,20.754h0s-.116-.075-.306-.207-.459-.326-.8-.588c-.379-.295-.75-.6-1.1-.918-.44-.393-.851-.8-1.222-1.2s-.764-.868-1.168-1.388c-.323-.416-.654-.865-.984-1.337-.56-.8-.928-1.4-.932-1.4H0c0-.014.116-.337.309-.859.182-.494.478-1.278.853-2.2l.867.428-.82-.543c.5-1.235,1.018-2.411,1.532-3.493.426-.9.926-1.889,1.487-2.948l1.866.921L4.352,3.86c.6-1.12,1.152-2.11,1.512-2.743C6.254.432,6.508,0,6.51,0h0c.066.11.666,1.115,1.445,2.5.479.85.929,1.672,1.337,2.442.511.963.958,1.847,1.329,2.629.235.494.465,1,.686,1.513l-1.781.9,1.88-.664c.249.584.489,1.179.712,1.767.179.471.348.939.5,1.391.263.768.4,1.234.4,1.238-.013.02-.326.5-.834,1.193-.3.41-.609.811-.916,1.191-.384.475-.767.92-1.138,1.322l-.087.093L8.292,16.177l1.562,1.537c-.358.374-.756.766-1.184,1.166-.342.32-.7.646-1.076.968-.633.55-1.08.9-1.084.906Z" transform="translate(4.264)"/>
      <path id="Subtraction_2-2" data-name="Subtraction 2" class="cls-19" d="M4.146,15.02h0s-.293-.214-.7-.576c-.242-.213-.478-.437-.7-.665-.28-.285-.542-.576-.778-.867s-.487-.629-.744-1c-.206-.3-.417-.626-.627-.968C.236,10.359,0,9.928,0,9.924H0c.007-.024.075-.245.192-.607s.3-.9.531-1.56l.569.317-.539-.4c.325-.911.659-1.777.992-2.574.262-.627.569-1.32.911-2.057l1.224.681L2.738,2.866c.387-.828.75-1.563.985-2.034C3.977.325,4.145,0,4.146,0V0c.042.08.427.813.92,1.807.3.615.591,1.21.852,1.767.325.7.61,1.337.846,1.9.157.376.311.763.458,1.15l-1.155.656L7.287,6.8c.155.416.3.839.444,1.257.112.335.217.667.314.989.165.549.247.875.248.879s-.209.366-.531.863c-.192.3-.388.587-.584.862-.244.344-.488.666-.725.957l-.064.078-1.108-.95.987,1.1c-.227.269-.48.552-.752.841-.217.231-.447.465-.683.7-.4.4-.685.65-.687.653Z" transform="translate(7.253 38.767) rotate(-151)"/>
      <path id="Path_16-2" data-name="Path 16" class="cls-20" d="M992.158,1910.345l-.641,8.074-.219,4.9.86.185.737-.185-.361-5.087Z" transform="translate(-981.315 -1899.333)"/>
    </g>
    <path id="Path_71" data-name="Path 71" class="cls-21" d="M17.8,0S39.143,3.195,46.244,3.195,31.331,29.264,31.331,29.264s-10.914,7.045-18.913,7.045S0,25.316,0,25.316A77.4,77.4,0,0,1,8.157,9.978,48.994,48.994,0,0,1,17.8,0Z" transform="matrix(0.995, 0.105, -0.105, 0.995, 345.13, 1536.018)"/>
    <g id="Group_58" data-name="Group 58" transform="translate(357.547 1496.989)">
      <path id="Union_1" data-name="Union 1" class="cls-22" d="M0,44.563v-19.5H.066a36.284,36.284,0,0,1,3.525-14.7C7.136,3.455,10.8,0,15.334,0s7.459,4.073,10.815,10.975a33.566,33.566,0,0,1,3.1,14.086h0v19.5Z" transform="translate(3.062 7.752)"/>
      <g id="Group_6" data-name="Group 6" transform="translate(2.178 26.492)">
        <rect id="Rectangle_11" data-name="Rectangle 11" class="cls-23" width="17.32" height="18.603" transform="translate(6.297 6.309)"/>
        <path id="Path_26" data-name="Path 26" class="cls-24" d="M10.266,0V10.266H0Z" transform="translate(0 15.598) rotate(-45)"/>
        <path id="Path_27" data-name="Path 27" class="cls-24" d="M10.266,0V10.266H0Z" transform="translate(14.956 0) rotate(45)"/>
        <path id="Path_29" data-name="Path 29" class="cls-24" d="M10.266,0V10.266H0Z" transform="translate(14.956 31.196) rotate(-135)"/>
        <path id="Path_28" data-name="Path 28" class="cls-24" d="M10.266,0V10.266H0Z" transform="translate(29.913 15.598) rotate(135)"/>
      </g>
      <path id="Path_31" data-name="Path 31" class="cls-25" d="M1575.338-404.538c1.495-.512,10.382-5.335,10.382-5.335v13.446l-10.382,9.135Z" transform="translate(-1543.021 439.606)"/>
      <line id="Line_7" data-name="Line 7" class="cls-26" y2="13.001" transform="translate(39.357 32.272)"/>
      <line id="Line_3" data-name="Line 3" class="cls-27" y2="27.086" transform="translate(30.689 24.688)"/>
      <line id="Line_6" data-name="Line 6" class="cls-26" y2="15.168" transform="translate(35.023 34.438)"/>
      <path id="Path_32" data-name="Path 32" class="cls-23" d="M1576.28-402.374a69.864,69.864,0,0,0,7.482-3.562,51.593,51.593,0,0,0,6.258-4.246s-1.463-10.513-6.258-17.533-12.924-10.547-12.924-10.547l-7.21,7.808a26.252,26.252,0,0,1,9.747,9.754C1577.083-414.057,1576.28-402.374,1576.28-402.374Z" transform="translate(-1544.718 438.288)"/>
      <path id="Path_33" data-name="Path 33" class="cls-28" d="M1564.5-431.45a25.293,25.293,0,0,1,2.76-3.536,26.1,26.1,0,0,1,3.45-2.932s8.11,4.83,12.075,10.609,6.037,16.3,6.037,16.3-3.336,2.053-5.52,3.364-5.606,2.932-5.606,2.932.1-9.975-2.76-15.956S1564.5-431.45,1564.5-431.45Z" transform="translate(-1544.612 438.622)"/>
      <line id="Line_4" data-name="Line 4" class="cls-26" y2="18.418" transform="translate(9.02 13.853)"/>
      <line id="Line_14" data-name="Line 14" class="cls-26" x1="0.003" y2="23.566" transform="translate(14.59 9.076)"/>
      <line id="Line_5" data-name="Line 5" class="cls-26" y2="23.836" transform="translate(3.603 26.854)"/>
      <path id="Path_34" data-name="Path 34" class="cls-23" d="M1565.294-430.394s-7.2,1.4-11.1,7.584-4.9,15.187-4.9,15.187v1.973h-3.022a47.355,47.355,0,0,1,.532-10.844,31,31,0,0,1,3.9-9.139,22.406,22.406,0,0,1,5.51-6.048c3.561-2.654,7.795-5.242,7.795-5.242l3.762-.752,4.619-.55Z" transform="translate(-1546.174 438.291)"/>
      <path id="Path_35" data-name="Path 35" class="cls-28" d="M1633.194-452.918l-2.415,2.156-4.571,4.14a18.776,18.776,0,0,0-8.194,4.14c-4.054,3.45-8.194,15.094-8.194,15.094s.746-3.9,1.7-7.926c.649-2.738,1.448-5.643,2.048-6.495a27.358,27.358,0,0,1,6.775-6.451l5.865-3.277Z" transform="translate(-1607.266 453.622)"/>
      <line id="Line_1" data-name="Line 1" class="cls-26" y2="23.836" transform="translate(18.771 8.436)"/>
      <line id="Line_2" data-name="Line 2" class="cls-26" y2="17.335" transform="translate(26.355 14.937)"/>
      <line id="Line_8" data-name="Line 8" class="cls-29" y1="6.369" x2="6.369" transform="translate(27.328 7.165)"/>
      <line id="Line_16" data-name="Line 16" class="cls-29" y1="6.369" x2="6.369" transform="translate(23.348 3.185)"/>
      <line id="Line_10" data-name="Line 10" class="cls-30" y1="7.961" x2="7.961" transform="translate(32.105 15.127)"/>
      <line id="Line_11" data-name="Line 11" class="cls-30" y1="7.961" x2="8.758" transform="translate(34.494 24.68)"/>
      <line id="Line_12" data-name="Line 12" class="cls-31" x1="7.961" y2="7.961" transform="translate(18.571)"/>
      <line id="Line_13" data-name="Line 13" class="cls-32" x1="3.185" y2="5.573" transform="translate(9.017 6.369)"/>
      <line id="Line_15" data-name="Line 15" class="cls-32" x1="3.185" y2="4.777" transform="translate(14.59 3.185)"/>
    </g>
    <g id="Group_63" data-name="Group 63" transform="translate(1149.998 1613.119)">
      <path id="Subtraction_1-3" data-name="Subtraction 1" class="cls-33" d="M19.586,62.441h0s-.349-.224-.922-.624c-.533-.372-1.381-.981-2.4-1.77-1.141-.887-2.256-1.817-3.314-2.763-1.323-1.183-2.56-2.4-3.676-3.6s-2.3-2.613-3.515-4.176c-.973-1.25-1.968-2.6-2.96-4.023C1.118,43.071.011,41.273,0,41.255H0c.014-.041.349-1.013.929-2.585.548-1.487,1.439-3.844,2.567-6.628L6.1,33.33,3.637,31.694C5.15,27.978,6.7,24.442,8.247,21.185c1.281-2.7,2.786-5.682,4.473-8.869l5.613,2.771-5.24-3.474c1.8-3.369,3.465-6.347,4.55-8.252C18.817,1.3,19.579.013,19.586,0l0,0c.2.331,2,3.356,4.346,7.517,1.44,2.558,2.794,5.029,4.023,7.347,1.536,2.9,2.882,5.558,4,7.91.706,1.487,1.4,3.019,2.063,4.552l-5.357,2.7,5.657-2c.749,1.757,1.47,3.546,2.143,5.316.539,1.416,1.048,2.825,1.514,4.186.792,2.312,1.191,3.711,1.2,3.725-.039.061-.982,1.51-2.508,3.589-.906,1.234-1.833,2.44-2.757,3.585C32.753,49.86,31.6,51.2,30.484,52.406l-.26.28L24.948,48.67l4.7,4.624c-1.076,1.124-2.274,2.3-3.562,3.507-1.03.963-2.119,1.943-3.237,2.913-1.905,1.653-3.248,2.715-3.261,2.726Z"/>
      <path id="Subtraction_2-3" data-name="Subtraction 2" class="cls-34" d="M12.474,45.188h0c-.009-.006-.882-.645-2.113-1.733-.727-.642-1.437-1.315-2.111-2-.842-.856-1.63-1.733-2.341-2.608S4.444,36.957,3.67,35.826c-.619-.9-1.254-1.884-1.885-2.911C.711,31.167.007,29.869,0,29.856H0c.022-.072.224-.738.577-1.826.341-1.051.895-2.719,1.6-4.694l1.713.953L2.267,23.077c.979-2.741,1.984-5.347,2.986-7.745.789-1.888,1.711-3.97,2.742-6.189l3.682,2.049L8.237,8.622C9.4,6.13,10.492,3.919,11.2,2.5,11.964.979,12.469.009,12.474,0l0,.005c.127.241,1.284,2.446,2.767,5.438.917,1.851,1.779,3.64,2.562,5.317.978,2.1,1.835,4.022,2.547,5.725.472,1.13.935,2.294,1.377,3.46l-3.475,1.972,3.668-1.461c.467,1.251.917,2.524,1.336,3.782.336,1.007.654,2.008.944,2.974.5,1.651.743,2.634.746,2.644-.025.044-.63,1.1-1.6,2.6-.577.893-1.168,1.766-1.756,2.594-.735,1.035-1.469,2-2.18,2.878l-.193.236L15.889,35.3l2.97,3.295c-.684.811-1.445,1.662-2.263,2.529-.654.694-1.345,1.4-2.054,2.1-1.21,1.193-2.059,1.956-2.068,1.963Z" transform="matrix(-0.848, 0.53, -0.53, -0.848, 52.259, 100.736)"/>
      <path id="Path_16-3" data-name="Path 16" class="cls-35" d="M993.885,1910.345l-1.929,24.292-.657,14.738,2.586.555,2.217-.555-1.087-15.3Z" transform="translate(-974.091 -1877.215)"/>
    </g>
    <g id="Group_64" data-name="Group 64" transform="translate(1205.429 1551.277)">
      <path id="Subtraction_1-4" data-name="Subtraction 1" class="cls-33" d="M27.776,88.548h0s-.5-.318-1.308-.885c-.755-.527-1.958-1.391-3.4-2.51-1.618-1.258-3.2-2.577-4.7-3.919-1.876-1.677-3.63-3.4-5.214-5.11S9.9,72.419,8.172,70.2c-1.379-1.773-2.792-3.692-4.2-5.7C1.586,61.079.016,58.53,0,58.5H0c.02-.058.5-1.436,1.318-3.665.778-2.108,2.041-5.451,3.64-9.4l3.7,1.826-3.5-2.319C7.3,39.675,9.5,34.661,11.7,30.043c1.817-3.827,3.951-8.058,6.344-12.577L26,21.4,18.568,16.47c2.546-4.778,4.914-9,6.452-11.7C26.685,1.842,27.765.018,27.776,0l0,.006c.281.47,2.841,4.759,6.164,10.66,2.042,3.627,3.962,7.132,5.7,10.418,2.179,4.107,4.087,7.881,5.671,11.218,1,2.109,1.986,4.281,2.926,6.455l-7.6,3.825,8.023-2.835c1.062,2.492,2.085,5.029,3.04,7.539.764,2.009,1.486,4.006,2.147,5.936,1.123,3.279,1.689,5.263,1.695,5.283-.056.086-1.393,2.141-3.557,5.09-1.284,1.75-2.6,3.46-3.91,5.083-1.637,2.029-3.271,3.926-4.855,5.639l-.369.4L35.379,69.02l6.664,6.558c-1.526,1.594-3.225,3.267-5.051,4.974-1.461,1.365-3.005,2.755-4.591,4.131-2.7,2.345-4.606,3.85-4.625,3.865Z"/>
      <path id="Subtraction_2-4" data-name="Subtraction 2" class="cls-34" d="M17.69,64.081h0c-.012-.009-1.251-.914-3-2.457-1.03-.911-2.037-1.865-2.993-2.836-1.195-1.214-2.312-2.458-3.32-3.7S6.3,52.409,5.2,50.8c-.878-1.283-1.778-2.672-2.673-4.128C1.008,44.2.01,42.358,0,42.339H0c.031-.1.318-1.046.819-2.589.484-1.491,1.269-3.856,2.265-6.657l2.429,1.352-2.3-1.718C4.6,28.839,6.027,25.143,7.448,21.742c1.119-2.677,2.427-5.63,3.889-8.776l5.221,2.905-4.877-3.644c1.653-3.533,3.2-6.669,4.2-8.678C16.967,1.388,17.683.013,17.69,0l0,.007c.18.342,1.821,3.468,3.924,7.712,1.3,2.625,2.523,5.162,3.633,7.54,1.388,2.972,2.6,5.7,3.611,8.118.669,1.6,1.327,3.253,1.953,4.907l-4.928,2.8,5.2-2.072c.662,1.774,1.3,3.579,1.9,5.363.476,1.428.927,2.847,1.339,4.218.7,2.342,1.054,3.735,1.057,3.749-.036.063-.893,1.559-2.265,3.683-.818,1.266-1.656,2.5-2.49,3.679-1.043,1.468-2.083,2.841-3.092,4.081l-.274.334-4.726-4.055,4.212,4.672c-.97,1.15-2.05,2.356-3.209,3.586-.927.984-1.907,1.986-2.913,2.977-1.716,1.692-2.92,2.773-2.932,2.784Z" transform="matrix(-0.848, 0.53, -0.53, -0.848, 74.109, 142.855)"/>
      <path id="Path_16-4" data-name="Path 16" class="cls-35" d="M994.966,1910.345l-2.736,34.449-.932,20.9,3.668.787,3.144-.787-1.542-21.7Z" transform="translate(-966.897 -1863.363)"/>
    </g>
    <g id="Group_62" data-name="Group 62" transform="translate(67.649 1535.859)">
      <path id="Subtraction_1-5" data-name="Subtraction 1" class="cls-18" d="M36.435,116.153h0c-.006,0-.65-.417-1.715-1.161-.991-.692-2.569-1.824-4.457-3.293-2.122-1.65-4.2-3.38-6.165-5.14-2.46-2.2-4.761-4.456-6.839-6.7S12.981,95,10.719,92.089c-1.809-2.326-3.662-4.843-5.506-7.483C2.081,80.121.02,76.777,0,76.744v0c.026-.076.65-1.884,1.728-4.808,1.02-2.766,2.677-7.15,4.775-12.329L11.355,62,6.766,58.959c2.814-6.914,5.7-13.492,8.575-19.55,2.383-5.02,5.183-10.571,8.321-16.5L34.1,28.066,24.356,21.6C27.7,15.337,30.8,9.8,32.82,6.253,35,2.416,36.421.024,36.435,0l0,.008c.369.616,3.727,6.243,8.085,13.984,2.679,4.758,5.2,9.356,7.483,13.666C54.866,33.045,57.369,38,59.446,42.372c1.313,2.766,2.6,5.615,3.838,8.467l-9.966,5.018,10.524-3.718c1.393,3.269,2.735,6.6,3.987,9.889,1,2.635,1.95,5.255,2.817,7.786,1.473,4.3,2.216,6.9,2.223,6.93-.073.113-1.827,2.809-4.666,6.676-1.685,2.3-3.41,4.539-5.129,6.668-2.148,2.661-4.29,5.15-6.368,7.4l-.485.521-9.814-7.469,8.742,8.6c-2,2.091-4.231,4.286-6.626,6.524-1.916,1.791-3.942,3.614-6.022,5.419-3.545,3.075-6.042,5.051-6.067,5.07Z" transform="translate(23.863)"/>
      <path id="Subtraction_2-5" data-name="Subtraction 2" class="cls-19" d="M23.2,84.059h0c-.016-.012-1.641-1.2-3.931-3.223-1.352-1.194-2.673-2.446-3.926-3.72-1.567-1.592-3.032-3.225-4.356-4.851s-2.724-3.518-4.165-5.621c-1.152-1.683-2.332-3.5-3.507-5.415-2-3.251-3.307-5.665-3.32-5.689v0c.041-.134.417-1.372,1.074-3.4.634-1.956,1.665-5.059,2.971-8.733l3.186,1.773L4.216,42.928c1.821-5.1,3.69-9.946,5.554-14.408,1.467-3.512,3.183-7.385,5.1-11.513l6.849,3.811-6.4-4.78c2.168-4.635,4.2-8.749,5.514-11.383C22.256,1.821,23.2.017,23.2,0l.005.01c.236.449,2.389,4.549,5.147,10.116,1.706,3.443,3.31,6.771,4.766,9.89,1.82,3.9,3.414,7.482,4.737,10.649.878,2.1,1.74,4.268,2.562,6.437l-6.465,3.669,6.823-2.717c.869,2.328,1.705,4.695,2.486,7.035.625,1.873,1.216,3.735,1.757,5.533.924,3.072,1.382,4.9,1.387,4.918-.047.083-1.172,2.046-2.971,4.832-1.073,1.661-2.172,3.285-3.267,4.826-1.368,1.926-2.732,3.727-4.056,5.353l-.359.438-6.2-5.319L35.081,71.8c-1.273,1.508-2.689,3.091-4.209,4.7-1.216,1.291-2.5,2.605-3.821,3.905-2.252,2.219-3.831,3.638-3.847,3.652Z" transform="translate(40.591 216.962) rotate(-151)"/>
      <path id="Path_16-5" data-name="Path 16" class="cls-20" d="M996.11,1910.345l-3.589,45.188-1.223,27.416,4.811,1.032,4.124-1.032-2.023-28.47Z" transform="translate(-935.427 -1848.715)"/>
    </g>
    <g id="Group_59" data-name="Group 59" transform="translate(328.58 1515.705)">
      <path id="Subtraction_1-6" data-name="Subtraction 1" class="cls-18" d="M6.785,21.631h0s-.121-.078-.319-.216-.478-.34-.83-.613c-.4-.307-.781-.629-1.148-.957-.458-.41-.887-.83-1.274-1.248s-.8-.905-1.218-1.447c-.337-.433-.682-.9-1.025-1.394C.387,14.921,0,14.3,0,14.292H0c0-.014.121-.351.322-.9.19-.515.5-1.331.889-2.3l.9.446L1.26,10.98c.524-1.288,1.061-2.513,1.6-3.641.444-.935.965-1.969,1.55-3.072l1.945.96-1.815-1.2c.622-1.167,1.2-2.2,1.576-2.859C6.519.45,6.783,0,6.785,0h0c.069.115.694,1.163,1.506,2.6.5.886.968,1.742,1.394,2.545.532,1,1,1.925,1.385,2.74.245.515.485,1.046.715,1.577L9.929,10.4l1.96-.692c.26.609.509,1.228.743,1.842.187.491.363.979.525,1.45.274.8.413,1.286.414,1.29-.014.021-.34.523-.869,1.243-.314.427-.635.845-.955,1.242-.4.5-.8.959-1.186,1.378l-.09.1L8.643,16.861l1.628,1.6c-.373.389-.788.8-1.234,1.215-.357.334-.734.673-1.121,1.009-.66.573-1.125.941-1.13.944Z" transform="translate(4.444)"/>
      <path id="Subtraction_2-6" data-name="Subtraction 2" class="cls-19" d="M4.321,15.654h0s-.306-.223-.732-.6c-.252-.222-.5-.456-.731-.693-.292-.3-.565-.6-.811-.9s-.507-.655-.776-1.047C1.057,12.1.837,11.758.618,11.4.246,10.8,0,10.347,0,10.343H0c.008-.025.078-.255.2-.633s.31-.942.553-1.626l.593.33-.562-.42c.339-.949.687-1.852,1.034-2.683.273-.654.593-1.375.95-2.144l1.275.71-1.191-.89c.4-.863.781-1.629,1.027-2.12C4.145.339,4.32,0,4.321,0V0c.044.084.445.847.959,1.884.318.641.616,1.261.888,1.842.339.726.636,1.393.882,1.983.164.391.324.795.477,1.2l-1.2.683,1.271-.506c.162.433.318.874.463,1.31.116.349.226.7.327,1.03.172.572.257.912.258.916s-.218.381-.553.9c-.2.309-.4.612-.608.9-.255.359-.509.694-.755,1l-.067.082L5.5,12.229l1.029,1.141c-.237.281-.5.576-.784.876-.227.24-.466.485-.712.727-.419.413-.713.678-.716.68Z" transform="translate(7.559 40.404) rotate(-151)"/>
      <path id="Path_16-6" data-name="Path 16" class="cls-20" d="M992.194,1910.345l-.668,8.415-.228,5.105.9.192.768-.192-.377-5.3Z" transform="translate(-980.893 -1898.868)"/>
    </g>
    <g id="Group_57" data-name="Group 57" transform="translate(164.315 1480.307)">
      <path id="Subtraction_1-7" data-name="Subtraction 1" class="cls-18" d="M40.882,130.332h0c-.007,0-.729-.468-1.925-1.3-1.112-.776-2.882-2.047-5-3.695-2.381-1.852-4.709-3.792-6.917-5.768-2.761-2.469-5.343-5-7.674-7.521s-4.8-5.454-7.338-8.716C10,100.72,7.919,97.9,5.85,94.933,2.335,89.9.023,86.15,0,86.112v0C.03,86.026.73,84,1.94,80.716c1.145-3.1,3-8.023,5.358-13.834l5.443,2.687L7.592,66.156c3.157-7.758,6.394-15.139,9.621-21.936,2.674-5.633,5.816-11.861,9.337-18.512l11.716,5.784-10.937-7.25c3.747-7.032,7.233-13.249,9.5-17.225C39.277,2.711,40.867.027,40.882,0l.005.009C41.3.7,45.069,7.014,49.96,15.7c3.006,5.339,5.831,10.5,8.4,15.334,3.207,6.045,6.015,11.6,8.346,16.511,1.474,3.1,2.923,6.3,4.307,9.5l-11.182,5.63L71.636,58.5c1.564,3.668,3.069,7.4,4.474,11.1,1.124,2.957,2.188,5.9,3.161,8.737,1.653,4.826,2.487,7.747,2.495,7.776-.082.127-2.05,3.152-5.235,7.491-1.891,2.576-3.827,5.093-5.755,7.482-2.41,2.986-4.814,5.779-7.146,8.3-.181.2-.364.393-.544.585l-11.012-8.381,9.809,9.652c-2.246,2.346-4.747,4.809-7.435,7.321-2.15,2.01-4.423,4.055-6.757,6.08-3.977,3.451-6.78,5.667-6.808,5.689Z" transform="translate(26.776)"/>
      <path id="Subtraction_2-7" data-name="Subtraction 2" class="cls-19" d="M26.037,94.32h0c-.018-.013-1.841-1.346-4.411-3.617-1.517-1.34-3-2.745-4.406-4.174-1.758-1.787-3.4-3.618-4.887-5.443S9.277,77.139,7.66,74.779C6.367,72.89,5.044,70.846,3.726,68.7,1.483,65.055.015,62.345,0,62.319v0c.046-.151.468-1.539,1.2-3.811.712-2.195,1.868-5.676,3.334-9.8L8.114,50.7,4.731,48.168C6.775,42.447,8.871,37.008,10.963,32c1.646-3.94,3.572-8.286,5.724-12.918l7.685,4.276L17.194,18C19.626,12.8,21.9,8.18,23.381,5.223,24.973,2.043,26.027.02,26.037,0l.006.011c.265.5,2.68,5.1,5.775,11.351,1.914,3.863,3.714,7.6,5.348,11.1,2.042,4.375,3.831,8.4,5.316,11.949.985,2.358,1.953,4.788,2.875,7.223L38.1,45.747,45.758,42.7c.975,2.612,1.913,5.268,2.789,7.894.7,2.1,1.364,4.191,1.971,6.208,1.037,3.447,1.551,5.5,1.556,5.518-.053.093-1.315,2.3-3.334,5.421-1.2,1.864-2.437,3.686-3.665,5.415-1.535,2.161-3.066,4.182-4.551,6.007-.132.162-.267.328-.4.492l-6.957-5.968,6.2,6.877c-1.428,1.692-3.017,3.468-4.723,5.279-1.365,1.449-2.807,2.923-4.288,4.382-2.526,2.49-4.3,4.082-4.316,4.1Z" transform="translate(45.546 243.447) rotate(-151)"/>
      <path id="Path_16-7" data-name="Path 16" class="cls-20" d="M996.7,1910.345l-4.026,50.7-1.372,30.762,5.4,1.158,4.627-1.158-2.27-31.945Z" transform="translate(-928.606 -1841.192)"/>
    </g>
    <path id="Path_223" data-name="Path 223" class="cls-36" d="M0,0H1740.138V1947.03H0Z" transform="translate(-33.638 2083.803)"/>
    <rect id="Rectangle_90" data-name="Rectangle 90" class="cls-37" width="1762.436" height="130.22" transform="translate(-33.689 2052)"/>
    <rect id="Rectangle_92" data-name="Rectangle 92" class="cls-37" width="1762.436" height="130.22" transform="translate(0.311 2983)"/>
    <g id="Group_86" data-name="Group 86" transform="translate(32.02 2606.471)">
      <g id="Group_26" data-name="Group 26" transform="translate(266.684 0)">
        <rect id="Rectangle_53" data-name="Rectangle 53" class="cls-38" width="172.266" height="65.529" transform="translate(0 58.098)"/>
        <rect id="Rectangle_54" data-name="Rectangle 54" class="cls-38" width="81.441" height="33.102" transform="translate(83.689)"/>
        <rect id="Rectangle_56" data-name="Rectangle 56" class="cls-23" width="68.231" height="23.644" transform="translate(89.848 4.729)"/>
        <rect id="Rectangle_55" data-name="Rectangle 55" class="cls-38" width="13.511" height="60.124" transform="translate(131.057 31.075)"/>
      </g>
      <g id="Group_27" data-name="Group 27" transform="translate(0 108.814)">
        <rect id="Rectangle_47" data-name="Rectangle 47" class="cls-39" width="431.899" height="192.172" transform="translate(22.196 29.026)"/>
        <path id="Union_2" data-name="Union 2" class="cls-40" d="M284.451,58.168a7,7,0,0,1-7-7V33.558H9a9,9,0,0,1-9-9V9A9,9,0,0,1,9,0H471.915a9,9,0,0,1,9,9V24.558a8.967,8.967,0,0,1-.821,3.76,6.969,6.969,0,0,1,.821,3.292V51.168a7,7,0,0,1-7,7Z"/>
      </g>
      <g id="Group_25" data-name="Group 25" transform="translate(63.326 183.736)">
        <rect id="Rectangle_48" data-name="Rectangle 48" class="cls-23" width="75.374" height="75.374" transform="translate(6.185 26.671)"/>
        <rect id="Rectangle_49" data-name="Rectangle 49" class="cls-41" width="87.357" height="11.209"/>
        <rect id="Rectangle_51" data-name="Rectangle 51" class="cls-23" width="11.983" height="36.334" transform="translate(13.915)"/>
        <rect id="Rectangle_52" data-name="Rectangle 52" class="cls-23" width="11.983" height="36.334" transform="translate(62.232)"/>
      </g>
    </g>
    <g id="Repeat_Grid_11" data-name="Repeat Grid 11" class="cls-42" transform="translate(11.643 2166.166)">
      <g id="Group_42" data-name="Group 42" transform="translate(-2840.825 -1702)">
        <path id="Path_43" data-name="Path 43" class="cls-43" d="M2865.056,1772.391h89.685l37.412,101.546H2835.825Z" transform="translate(5 -9)"/>
        <g id="Group_41" data-name="Group 41" transform="translate(45 197)">
          <path id="Path_42" data-name="Path 42" class="cls-37" d="M49.2,0c27.17,0,49.2,17.2,49.2,38.419S0,59.637,0,38.419,22.026,0,49.2,0Z" transform="translate(2821 1538.988)"/>
          <rect id="Rectangle_70" data-name="Rectangle 70" class="cls-37" width="16.573" height="67.497" transform="translate(2862.052 1505)"/>
        </g>
      </g>
      <g id="Group_42-2" data-name="Group 42" transform="translate(-2608.825 -1702)">
        <path id="Path_43-2" data-name="Path 43" class="cls-43" d="M2865.056,1772.391h89.685l37.412,101.546H2835.825Z" transform="translate(5 -9)"/>
        <g id="Group_41-2" data-name="Group 41" transform="translate(45 197)">
          <path id="Path_42-2" data-name="Path 42" class="cls-37" d="M49.2,0c27.17,0,49.2,17.2,49.2,38.419S0,59.637,0,38.419,22.026,0,49.2,0Z" transform="translate(2821 1538.988)"/>
          <rect id="Rectangle_70-2" data-name="Rectangle 70" class="cls-37" width="16.573" height="67.497" transform="translate(2862.052 1505)"/>
        </g>
      </g>
      <g id="Group_42-3" data-name="Group 42" transform="translate(-2376.825 -1702)">
        <path id="Path_43-3" data-name="Path 43" class="cls-43" d="M2865.056,1772.391h89.685l37.412,101.546H2835.825Z" transform="translate(5 -9)"/>
        <g id="Group_41-3" data-name="Group 41" transform="translate(45 197)">
          <path id="Path_42-3" data-name="Path 42" class="cls-37" d="M49.2,0c27.17,0,49.2,17.2,49.2,38.419S0,59.637,0,38.419,22.026,0,49.2,0Z" transform="translate(2821 1538.988)"/>
          <rect id="Rectangle_70-3" data-name="Rectangle 70" class="cls-37" width="16.573" height="67.497" transform="translate(2862.052 1505)"/>
        </g>
      </g>
      <g id="Group_42-4" data-name="Group 42" transform="translate(-2144.825 -1702)">
        <path id="Path_43-4" data-name="Path 43" class="cls-43" d="M2865.056,1772.391h89.685l37.412,101.546H2835.825Z" transform="translate(5 -9)"/>
        <g id="Group_41-4" data-name="Group 41" transform="translate(45 197)">
          <path id="Path_42-4" data-name="Path 42" class="cls-37" d="M49.2,0c27.17,0,49.2,17.2,49.2,38.419S0,59.637,0,38.419,22.026,0,49.2,0Z" transform="translate(2821 1538.988)"/>
          <rect id="Rectangle_70-4" data-name="Rectangle 70" class="cls-37" width="16.573" height="67.497" transform="translate(2862.052 1505)"/>
        </g>
      </g>
      <g id="Group_42-5" data-name="Group 42" transform="translate(-1912.825 -1702)">
        <path id="Path_43-5" data-name="Path 43" class="cls-43" d="M2865.056,1772.391h89.685l37.412,101.546H2835.825Z" transform="translate(5 -9)"/>
        <g id="Group_41-5" data-name="Group 41" transform="translate(45 197)">
          <path id="Path_42-5" data-name="Path 42" class="cls-37" d="M49.2,0c27.17,0,49.2,17.2,49.2,38.419S0,59.637,0,38.419,22.026,0,49.2,0Z" transform="translate(2821 1538.988)"/>
          <rect id="Rectangle_70-5" data-name="Rectangle 70" class="cls-37" width="16.573" height="67.497" transform="translate(2862.052 1505)"/>
        </g>
      </g>
      <g id="Group_42-6" data-name="Group 42" transform="translate(-1680.825 -1702)">
        <path id="Path_43-6" data-name="Path 43" class="cls-43" d="M2865.056,1772.391h89.685l37.412,101.546H2835.825Z" transform="translate(5 -9)"/>
        <g id="Group_41-6" data-name="Group 41" transform="translate(45 197)">
          <path id="Path_42-6" data-name="Path 42" class="cls-37" d="M49.2,0c27.17,0,49.2,17.2,49.2,38.419S0,59.637,0,38.419,22.026,0,49.2,0Z" transform="translate(2821 1538.988)"/>
          <rect id="Rectangle_70-6" data-name="Rectangle 70" class="cls-37" width="16.573" height="67.497" transform="translate(2862.052 1505)"/>
        </g>
      </g>
      <g id="Group_42-7" data-name="Group 42" transform="translate(-1448.825 -1702)">
        <path id="Path_43-7" data-name="Path 43" class="cls-43" d="M2865.056,1772.391h89.685l37.412,101.546H2835.825Z" transform="translate(5 -9)"/>
        <g id="Group_41-7" data-name="Group 41" transform="translate(45 197)">
          <path id="Path_42-7" data-name="Path 42" class="cls-37" d="M49.2,0c27.17,0,49.2,17.2,49.2,38.419S0,59.637,0,38.419,22.026,0,49.2,0Z" transform="translate(2821 1538.988)"/>
          <rect id="Rectangle_70-7" data-name="Rectangle 70" class="cls-37" width="16.573" height="67.497" transform="translate(2862.052 1505)"/>
        </g>
      </g>
      <g id="Group_42-8" data-name="Group 42" transform="translate(-1216.825 -1702)">
        <path id="Path_43-8" data-name="Path 43" class="cls-43" d="M2865.056,1772.391h89.685l37.412,101.546H2835.825Z" transform="translate(5 -9)"/>
        <g id="Group_41-8" data-name="Group 41" transform="translate(45 197)">
          <path id="Path_42-8" data-name="Path 42" class="cls-37" d="M49.2,0c27.17,0,49.2,17.2,49.2,38.419S0,59.637,0,38.419,22.026,0,49.2,0Z" transform="translate(2821 1538.988)"/>
          <rect id="Rectangle_70-8" data-name="Rectangle 70" class="cls-37" width="16.573" height="67.497" transform="translate(2862.052 1505)"/>
        </g>
      </g>
    </g>
    <g id="Repeat_Grid_12" data-name="Repeat Grid 12" class="cls-42" transform="translate(45.643 3097.166)">
      <g id="Group_42-9" data-name="Group 42" transform="translate(-2840.825 -1702)">
        <path id="Path_43-9" data-name="Path 43" class="cls-43" d="M2865.056,1772.391h89.685l37.412,101.546H2835.825Z" transform="translate(5 -9)"/>
        <g id="Group_41-9" data-name="Group 41" transform="translate(45 197)">
          <path id="Path_42-9" data-name="Path 42" class="cls-37" d="M49.2,0c27.17,0,49.2,17.2,49.2,38.419S0,59.637,0,38.419,22.026,0,49.2,0Z" transform="translate(2821 1538.988)"/>
          <rect id="Rectangle_70-9" data-name="Rectangle 70" class="cls-37" width="16.573" height="67.497" transform="translate(2862.052 1505)"/>
        </g>
      </g>
      <g id="Group_42-10" data-name="Group 42" transform="translate(-2608.825 -1702)">
        <path id="Path_43-10" data-name="Path 43" class="cls-43" d="M2865.056,1772.391h89.685l37.412,101.546H2835.825Z" transform="translate(5 -9)"/>
        <g id="Group_41-10" data-name="Group 41" transform="translate(45 197)">
          <path id="Path_42-10" data-name="Path 42" class="cls-37" d="M49.2,0c27.17,0,49.2,17.2,49.2,38.419S0,59.637,0,38.419,22.026,0,49.2,0Z" transform="translate(2821 1538.988)"/>
          <rect id="Rectangle_70-10" data-name="Rectangle 70" class="cls-37" width="16.573" height="67.497" transform="translate(2862.052 1505)"/>
        </g>
      </g>
      <g id="Group_42-11" data-name="Group 42" transform="translate(-2376.825 -1702)">
        <path id="Path_43-11" data-name="Path 43" class="cls-43" d="M2865.056,1772.391h89.685l37.412,101.546H2835.825Z" transform="translate(5 -9)"/>
        <g id="Group_41-11" data-name="Group 41" transform="translate(45 197)">
          <path id="Path_42-11" data-name="Path 42" class="cls-37" d="M49.2,0c27.17,0,49.2,17.2,49.2,38.419S0,59.637,0,38.419,22.026,0,49.2,0Z" transform="translate(2821 1538.988)"/>
          <rect id="Rectangle_70-11" data-name="Rectangle 70" class="cls-37" width="16.573" height="67.497" transform="translate(2862.052 1505)"/>
        </g>
      </g>
      <g id="Group_42-12" data-name="Group 42" transform="translate(-2144.825 -1702)">
        <path id="Path_43-12" data-name="Path 43" class="cls-43" d="M2865.056,1772.391h89.685l37.412,101.546H2835.825Z" transform="translate(5 -9)"/>
        <g id="Group_41-12" data-name="Group 41" transform="translate(45 197)">
          <path id="Path_42-12" data-name="Path 42" class="cls-37" d="M49.2,0c27.17,0,49.2,17.2,49.2,38.419S0,59.637,0,38.419,22.026,0,49.2,0Z" transform="translate(2821 1538.988)"/>
          <rect id="Rectangle_70-12" data-name="Rectangle 70" class="cls-37" width="16.573" height="67.497" transform="translate(2862.052 1505)"/>
        </g>
      </g>
      <g id="Group_42-13" data-name="Group 42" transform="translate(-1912.825 -1702)">
        <path id="Path_43-13" data-name="Path 43" class="cls-43" d="M2865.056,1772.391h89.685l37.412,101.546H2835.825Z" transform="translate(5 -9)"/>
        <g id="Group_41-13" data-name="Group 41" transform="translate(45 197)">
          <path id="Path_42-13" data-name="Path 42" class="cls-37" d="M49.2,0c27.17,0,49.2,17.2,49.2,38.419S0,59.637,0,38.419,22.026,0,49.2,0Z" transform="translate(2821 1538.988)"/>
          <rect id="Rectangle_70-13" data-name="Rectangle 70" class="cls-37" width="16.573" height="67.497" transform="translate(2862.052 1505)"/>
        </g>
      </g>
      <g id="Group_42-14" data-name="Group 42" transform="translate(-1680.825 -1702)">
        <path id="Path_43-14" data-name="Path 43" class="cls-43" d="M2865.056,1772.391h89.685l37.412,101.546H2835.825Z" transform="translate(5 -9)"/>
        <g id="Group_41-14" data-name="Group 41" transform="translate(45 197)">
          <path id="Path_42-14" data-name="Path 42" class="cls-37" d="M49.2,0c27.17,0,49.2,17.2,49.2,38.419S0,59.637,0,38.419,22.026,0,49.2,0Z" transform="translate(2821 1538.988)"/>
          <rect id="Rectangle_70-14" data-name="Rectangle 70" class="cls-37" width="16.573" height="67.497" transform="translate(2862.052 1505)"/>
        </g>
      </g>
      <g id="Group_42-15" data-name="Group 42" transform="translate(-1448.825 -1702)">
        <path id="Path_43-15" data-name="Path 43" class="cls-43" d="M2865.056,1772.391h89.685l37.412,101.546H2835.825Z" transform="translate(5 -9)"/>
        <g id="Group_41-15" data-name="Group 41" transform="translate(45 197)">
          <path id="Path_42-15" data-name="Path 42" class="cls-37" d="M49.2,0c27.17,0,49.2,17.2,49.2,38.419S0,59.637,0,38.419,22.026,0,49.2,0Z" transform="translate(2821 1538.988)"/>
          <rect id="Rectangle_70-15" data-name="Rectangle 70" class="cls-37" width="16.573" height="67.497" transform="translate(2862.052 1505)"/>
        </g>
      </g>
      <g id="Group_42-16" data-name="Group 42" transform="translate(-1216.825 -1702)">
        <path id="Path_43-16" data-name="Path 43" class="cls-43" d="M2865.056,1772.391h89.685l37.412,101.546H2835.825Z" transform="translate(5 -9)"/>
        <g id="Group_41-16" data-name="Group 41" transform="translate(45 197)">
          <path id="Path_42-16" data-name="Path 42" class="cls-37" d="M49.2,0c27.17,0,49.2,17.2,49.2,38.419S0,59.637,0,38.419,22.026,0,49.2,0Z" transform="translate(2821 1538.988)"/>
          <rect id="Rectangle_70-16" data-name="Rectangle 70" class="cls-37" width="16.573" height="67.497" transform="translate(2862.052 1505)"/>
        </g>
      </g>
    </g>
    <g id="Group_90" data-name="Group 90" transform="translate(101.698 2362.624)">
      <path id="Subtraction_3" data-name="Subtraction 3" class="cls-44" d="M290.917,176.775H0V0H290.917V176.774ZM5.559,5.559V171.586h280.17V5.559Z" transform="translate(0 0)"/>
      <rect id="Rectangle_60" data-name="Rectangle 60" class="cls-45" width="19.271" height="12.23" transform="translate(244.963 25.2)"/>
      <g id="Group_36" data-name="Group 36" class="cls-46" transform="translate(27.053 25.2)">
        <rect id="Rectangle_59" data-name="Rectangle 59" class="cls-45" width="211.98" height="12.23" transform="translate(0 0)"/>
        <rect id="Rectangle_61" data-name="Rectangle 61" class="cls-45" width="150.832" height="12.23" transform="translate(86.349 54.848)"/>
        <rect id="Rectangle_62" data-name="Rectangle 62" class="cls-45" width="237.181" height="12.23" transform="translate(0 27.424)"/>
        <rect id="Rectangle_65" data-name="Rectangle 65" class="cls-45" width="237.181" height="51.142" transform="translate(0 84.125)"/>
        <rect id="Rectangle_64" data-name="Rectangle 64" class="cls-45" width="80.419" height="12.23" transform="translate(0 54.848)"/>
      </g>
    </g>
    <g id="Group_85" data-name="Group 85" transform="translate(638.994 3628.659)">
      <g id="Rectangle_15" data-name="Rectangle 15" class="cls-47" transform="translate(124.869 272.036)">
        <rect id="fill" class="cls-70" width="9.811" height="0.892"/>
        <path class="cls-71" d="M0,0.391920804977417h9.811127662658691M9.311127662658691,0v0.891920804977417M9.811127662658691,0.5h-9.811127662658691M0.5,0.891920804977417v-0.891920804977417"/>
      </g>
      <rect id="Rectangle_16" data-name="Rectangle 16" class="cls-37" width="221.196" height="335.362" transform="translate(0 0)"/>
      <g id="Repeat_Grid_1" data-name="Repeat Grid 1" class="cls-48" transform="translate(7.135 14.271)">
        <g transform="translate(-3935 727)">
          <rect id="Rectangle_17" data-name="Rectangle 17" class="cls-49" width="232" height="91" transform="translate(3935 -727)"/>
        </g>
        <g transform="translate(-3935 831)">
          <rect id="Rectangle_17-2" data-name="Rectangle 17" class="cls-49" width="232" height="91" transform="translate(3935 -727)"/>
        </g>
        <g transform="translate(-3935 935)">
          <rect id="Rectangle_17-3" data-name="Rectangle 17" class="cls-49" width="232" height="91" transform="translate(3935 -727)"/>
        </g>
      </g>
      <g id="Group_14" data-name="Group 14" transform="translate(22.298 36.569)">
        <g id="Repeat_Grid_2" data-name="Repeat Grid 2" class="cls-50" transform="translate(0 8.027)">
          <g id="Group_13" data-name="Group 13" transform="translate(-3956 694)">
            <rect id="Rectangle_18" data-name="Rectangle 18" class="cls-37" width="9" height="56" transform="translate(3958 -694)"/>
            <rect id="Rectangle_19" data-name="Rectangle 19" class="cls-37" width="13" height="5" transform="translate(3956 -641)"/>
          </g>
          <g id="Group_13-2" data-name="Group 13" transform="translate(-3941 694)">
            <rect id="Rectangle_18-2" data-name="Rectangle 18" class="cls-37" width="9" height="56" transform="translate(3958 -694)"/>
            <rect id="Rectangle_19-2" data-name="Rectangle 19" class="cls-37" width="13" height="5" transform="translate(3956 -641)"/>
          </g>
          <g id="Group_13-3" data-name="Group 13" transform="translate(-3926 694)">
            <rect id="Rectangle_18-3" data-name="Rectangle 18" class="cls-37" width="9" height="56" transform="translate(3958 -694)"/>
            <rect id="Rectangle_19-3" data-name="Rectangle 19" class="cls-37" width="13" height="5" transform="translate(3956 -641)"/>
          </g>
          <g id="Group_13-4" data-name="Group 13" transform="translate(-3911 694)">
            <rect id="Rectangle_18-4" data-name="Rectangle 18" class="cls-37" width="9" height="56" transform="translate(3958 -694)"/>
            <rect id="Rectangle_19-4" data-name="Rectangle 19" class="cls-37" width="13" height="5" transform="translate(3956 -641)"/>
          </g>
          <g id="Group_13-5" data-name="Group 13" transform="translate(-3896 694)">
            <rect id="Rectangle_18-5" data-name="Rectangle 18" class="cls-37" width="9" height="56" transform="translate(3958 -694)"/>
            <rect id="Rectangle_19-5" data-name="Rectangle 19" class="cls-37" width="13" height="5" transform="translate(3956 -641)"/>
          </g>
          <g id="Group_13-6" data-name="Group 13" transform="translate(-3881 694)">
            <rect id="Rectangle_18-6" data-name="Rectangle 18" class="cls-37" width="9" height="56" transform="translate(3958 -694)"/>
            <rect id="Rectangle_19-6" data-name="Rectangle 19" class="cls-37" width="13" height="5" transform="translate(3956 -641)"/>
          </g>
          <g id="Group_13-7" data-name="Group 13" transform="translate(-3866 694)">
            <rect id="Rectangle_18-7" data-name="Rectangle 18" class="cls-37" width="9" height="56" transform="translate(3958 -694)"/>
            <rect id="Rectangle_19-7" data-name="Rectangle 19" class="cls-37" width="13" height="5" transform="translate(3956 -641)"/>
          </g>
        </g>
        <rect id="Rectangle_20" data-name="Rectangle 20" class="cls-37" width="91.868" height="59.759" transform="translate(84.732 0)"/>
      </g>
      <g id="Repeat_Grid_3" data-name="Repeat Grid 3" class="cls-51" transform="translate(20.514 147.834)">
        <g id="Group_15" data-name="Group 15" transform="translate(-3927 990)">
          <rect id="Rectangle_21" data-name="Rectangle 21" class="cls-37" width="32.267" height="39.743" rx="6" transform="translate(3927 -984.491)"/>
          <rect id="Rectangle_22" data-name="Rectangle 22" class="cls-37" width="23.61" height="17.314" transform="translate(3931.328 -990)"/>
        </g>
        <g id="Group_15-2" data-name="Group 15" transform="translate(-3874 990)">
          <rect id="Rectangle_21-2" data-name="Rectangle 21" class="cls-37" width="32.267" height="39.743" rx="6" transform="translate(3927 -984.491)"/>
          <rect id="Rectangle_22-2" data-name="Rectangle 22" class="cls-37" width="23.61" height="17.314" transform="translate(3931.328 -990)"/>
        </g>
        <g id="Group_15-3" data-name="Group 15" transform="translate(-3821 990)">
          <rect id="Rectangle_21-3" data-name="Rectangle 21" class="cls-37" width="32.267" height="39.743" rx="6" transform="translate(3927 -984.491)"/>
          <rect id="Rectangle_22-3" data-name="Rectangle 22" class="cls-37" width="23.61" height="17.314" transform="translate(3931.328 -990)"/>
        </g>
        <g id="Group_15-4" data-name="Group 15" transform="translate(-3768 990)">
          <rect id="Rectangle_21-4" data-name="Rectangle 21" class="cls-37" width="32.267" height="39.743" rx="6" transform="translate(3927 -984.491)"/>
          <rect id="Rectangle_22-4" data-name="Rectangle 22" class="cls-37" width="23.61" height="17.314" transform="translate(3931.328 -990)"/>
        </g>
      </g>
      <g id="Repeat_Grid_4" data-name="Repeat Grid 4" class="cls-52" transform="translate(16.055 255.892)">
        <g id="Group_16" data-name="Group 16" transform="translate(-3986 916)">
          <rect id="Rectangle_23" data-name="Rectangle 23" class="cls-37" width="25.316" height="5.001" transform="translate(3986 -916)"/>
          <path id="Path_37" data-name="Path 37" class="cls-37" d="M0,0H23.988L19.549,29.479H5.105Z" transform="translate(3986.625 -913.5)"/>
        </g>
        <g id="Group_16-2" data-name="Group 16" transform="translate(-3952 916)">
          <rect id="Rectangle_23-2" data-name="Rectangle 23" class="cls-37" width="25.316" height="5.001" transform="translate(3986 -916)"/>
          <path id="Path_37-2" data-name="Path 37" class="cls-37" d="M0,0H23.988L19.549,29.479H5.105Z" transform="translate(3986.625 -913.5)"/>
        </g>
        <g id="Group_16-3" data-name="Group 16" transform="translate(-3918 916)">
          <rect id="Rectangle_23-3" data-name="Rectangle 23" class="cls-37" width="25.316" height="5.001" transform="translate(3986 -916)"/>
          <path id="Path_37-3" data-name="Path 37" class="cls-37" d="M0,0H23.988L19.549,29.479H5.105Z" transform="translate(3986.625 -913.5)"/>
        </g>
      </g>
      <g id="Repeat_Grid_5" data-name="Repeat Grid 5" class="cls-53" transform="translate(29.727 230.528)">
        <g id="Group_16-4" data-name="Group 16" transform="translate(-3986 916)">
          <rect id="Rectangle_23-4" data-name="Rectangle 23" class="cls-37" width="25.316" height="5.001" transform="translate(3986 -916)"/>
          <path id="Path_37-4" data-name="Path 37" class="cls-37" d="M0,0H23.988L19.549,29.479H5.105Z" transform="translate(3986.625 -913.5)"/>
        </g>
        <g id="Group_16-5" data-name="Group 16" transform="translate(-3950 916)">
          <rect id="Rectangle_23-5" data-name="Rectangle 23" class="cls-37" width="25.316" height="5.001" transform="translate(3986 -916)"/>
          <path id="Path_37-5" data-name="Path 37" class="cls-37" d="M0,0H23.988L19.549,29.479H5.105Z" transform="translate(3986.625 -913.5)"/>
        </g>
      </g>
      <g id="Repeat_Grid_6" data-name="Repeat Grid 6" class="cls-54" transform="translate(45.878 205.165)">
        <g id="Group_16-6" data-name="Group 16" transform="translate(-3986 916)">
          <rect id="Rectangle_23-6" data-name="Rectangle 23" class="cls-37" width="25.316" height="5.001" transform="translate(3986 -916)"/>
          <path id="Path_37-6" data-name="Path 37" class="cls-37" d="M0,0H23.988L19.549,29.479H5.105Z" transform="translate(3986.625 -913.5)"/>
        </g>
      </g>
      <g id="Group_16-7" data-name="Group 16" transform="translate(125.163 249.972)">
        <rect id="Rectangle_23-7" data-name="Rectangle 23" class="cls-37" width="24.84" height="4.907" transform="translate(0 0)"/>
        <path id="Path_37-7" data-name="Path 37" class="cls-37" d="M0,0H23.536L19.181,28.924H5.009Z" transform="translate(0.613 2.453)"/>
      </g>
      <g id="Group_17" data-name="Group 17" transform="translate(162.624 249.972)">
        <rect id="Rectangle_23-8" data-name="Rectangle 23" class="cls-37" width="24.84" height="4.907" transform="translate(0 0)"/>
        <path id="Path_37-8" data-name="Path 37" class="cls-37" d="M0,0H23.536L19.181,28.924H5.009Z" transform="translate(0.613 2.453)"/>
      </g>
    </g>
    <rect id="Rectangle_86" data-name="Rectangle 86" class="cls-37" width="503.339" height="334.47" transform="translate(858.407 3628.659)"/>
    <g id="Group_84" data-name="Group 84" transform="translate(866.485 3641.194)">
      <rect id="Rectangle_17-4" data-name="Rectangle 17" class="cls-49" width="487.183" height="82.236"/>
      <rect id="Rectangle_17-5" data-name="Rectangle 17" class="cls-49" width="487.183" height="82.236" transform="translate(0 93.984)"/>
      <rect id="Rectangle_17-6" data-name="Rectangle 17" class="cls-49" width="487.183" height="82.236" transform="translate(0 187.968)"/>
    </g>
    <g id="Group_82" data-name="Group 82" transform="translate(1161.66 3614.969)">
      <rect id="Rectangle_25" data-name="Rectangle 25" class="cls-55" width="218.741" height="363.323" transform="translate(0 0)"/>
      <rect id="Rectangle_26" data-name="Rectangle 26" class="cls-56" width="202.865" height="83.182" transform="translate(7.938 16.254)"/>
      <rect id="Rectangle_26-2" data-name="Rectangle 26" class="cls-56" width="202.865" height="83.182" transform="translate(7.938 118.558)"/>
      <rect id="Rectangle_26-3" data-name="Rectangle 26" class="cls-56" width="202.865" height="104.216" transform="translate(7.938 220.862)"/>
      <g id="Repeat_Grid_7" data-name="Repeat Grid 7" class="cls-57" transform="translate(27.022 296.709)">
        <g id="Group_19" data-name="Group 19" transform="translate(-4006.33 178.537)">
          <g id="Group_16-8" data-name="Group 16" transform="translate(20.33 737.463)">
            <path id="Path_37-9" data-name="Path 37" class="cls-12" d="M0,0H23.988L19.549,29.479H5.105Z" transform="translate(3986.625 -913.5)"/>
            <rect id="Rectangle_23-9" data-name="Rectangle 23" class="cls-23" width="25.316" height="5.001" transform="translate(3986 -916)"/>
          </g>
        </g>
        <g id="Group_19-2" data-name="Group 19" transform="translate(-3972.33 178.537)">
          <g id="Group_16-9" data-name="Group 16" transform="translate(20.33 737.463)">
            <path id="Path_37-10" data-name="Path 37" class="cls-12" d="M0,0H23.988L19.549,29.479H5.105Z" transform="translate(3986.625 -913.5)"/>
            <rect id="Rectangle_23-10" data-name="Rectangle 23" class="cls-23" width="25.316" height="5.001" transform="translate(3986 -916)"/>
          </g>
        </g>
        <g id="Group_19-3" data-name="Group 19" transform="translate(-3938.33 178.537)">
          <g id="Group_16-10" data-name="Group 16" transform="translate(20.33 737.463)">
            <path id="Path_37-11" data-name="Path 37" class="cls-12" d="M0,0H23.988L19.549,29.479H5.105Z" transform="translate(3986.625 -913.5)"/>
            <rect id="Rectangle_23-11" data-name="Rectangle 23" class="cls-23" width="25.316" height="5.001" transform="translate(3986 -916)"/>
          </g>
        </g>
      </g>
      <g id="Repeat_Grid_8" data-name="Repeat Grid 8" class="cls-58" transform="translate(42.384 267.897)">
        <g id="Group_19-4" data-name="Group 19" transform="translate(-4006.33 178.537)">
          <g id="Group_16-11" data-name="Group 16" transform="translate(20.33 737.463)">
            <path id="Path_37-12" data-name="Path 37" class="cls-12" d="M0,0H23.988L19.549,29.479H5.105Z" transform="translate(3986.625 -913.5)"/>
            <rect id="Rectangle_23-12" data-name="Rectangle 23" class="cls-23" width="25.316" height="5.001" transform="translate(3986 -916)"/>
          </g>
        </g>
        <g id="Group_19-5" data-name="Group 19" transform="translate(-3972.33 178.537)">
          <g id="Group_16-12" data-name="Group 16" transform="translate(20.33 737.463)">
            <path id="Path_37-13" data-name="Path 37" class="cls-12" d="M0,0H23.988L19.549,29.479H5.105Z" transform="translate(3986.625 -913.5)"/>
            <rect id="Rectangle_23-13" data-name="Rectangle 23" class="cls-23" width="25.316" height="5.001" transform="translate(3986 -916)"/>
          </g>
        </g>
      </g>
      <g id="Repeat_Grid_9" data-name="Repeat Grid 9" class="cls-59" transform="translate(57.682 239.086)">
        <g id="Group_19-6" data-name="Group 19" transform="translate(-4006.33 178.537)">
          <g id="Group_16-13" data-name="Group 16" transform="translate(20.33 737.463)">
            <path id="Path_37-14" data-name="Path 37" class="cls-12" d="M0,0H23.988L19.549,29.479H5.105Z" transform="translate(3986.625 -913.5)"/>
            <rect id="Rectangle_23-14" data-name="Rectangle 23" class="cls-23" width="25.316" height="5.001" transform="translate(3986 -916)"/>
          </g>
        </g>
      </g>
      <g id="Group_20" data-name="Group 20" class="cls-60" transform="translate(136.609 282.053)">
        <rect id="Rectangle_27" data-name="Rectangle 27" class="cls-23" width="49.718" height="21.034"/>
        <rect id="Rectangle_28" data-name="Rectangle 28" class="cls-23" width="6.693" height="27.727" transform="translate(21.034 15.298)"/>
      </g>
      <text id="SALE" class="cls-61" transform="translate(139.478 295.229)"><tspan x="0" y="0">SALE</tspan></text>
      <g id="Group_35" data-name="Group 35" transform="translate(22.947 155.919)">
        <g id="Group_34" data-name="Group 34">
          <rect id="Rectangle_29" data-name="Rectangle 29" class="cls-49" width="27.668" height="42.296" transform="translate(1.537)"/>
          <rect id="Rectangle_30" data-name="Rectangle 30" class="cls-23" width="30.742" height="3.525" transform="translate(0 42.296)"/>
          <rect id="Rectangle_31" data-name="Rectangle 31" class="cls-23" width="23.056" height="26.435" transform="translate(3.843 12.336)"/>
        </g>
        <g id="Group_33" data-name="Group 33" transform="translate(40.157)">
          <rect id="Rectangle_33" data-name="Rectangle 33" class="cls-62" width="27.668" height="42.296" transform="translate(1.537)"/>
          <rect id="Rectangle_32" data-name="Rectangle 32" class="cls-23" width="30.742" height="3.525" transform="translate(0 42.296)"/>
          <rect id="Rectangle_34" data-name="Rectangle 34" class="cls-23" width="23.056" height="26.435" transform="translate(3.843 12.336)"/>
        </g>
        <g id="Group_32" data-name="Group 32" transform="translate(80.313)">
          <rect id="Rectangle_36" data-name="Rectangle 36" class="cls-49" width="27.668" height="42.296" transform="translate(1.537)"/>
          <rect id="Rectangle_35" data-name="Rectangle 35" class="cls-23" width="30.742" height="3.525" transform="translate(0 42.296)"/>
          <rect id="Rectangle_37" data-name="Rectangle 37" class="cls-23" width="23.056" height="26.435" transform="translate(3.843 12.336)"/>
        </g>
        <g id="Group_31" data-name="Group 31" transform="translate(141.505)">
          <rect id="Rectangle_39" data-name="Rectangle 39" class="cls-62" width="27.668" height="42.296" transform="translate(1.537)"/>
          <rect id="Rectangle_38" data-name="Rectangle 38" class="cls-23" width="30.742" height="3.525" transform="translate(0 42.296)"/>
          <rect id="Rectangle_40" data-name="Rectangle 40" class="cls-23" width="23.056" height="26.435" transform="translate(3.843 12.336)"/>
        </g>
      </g>
      <g id="Group_30" data-name="Group 30" transform="translate(21.034 56.169)">
        <g id="Group_29" data-name="Group 29" transform="translate(93.456)">
          <rect id="Rectangle_42" data-name="Rectangle 42" class="cls-23" width="22.574" height="16.554" transform="translate(4.138)"/>
          <rect id="Rectangle_41" data-name="Rectangle 41" class="cls-49" width="30.851" height="37.999" rx="6" transform="translate(0 5.267)"/>
        </g>
        <g id="Group_21" data-name="Group 21" transform="translate(136.481)">
          <rect id="Rectangle_44" data-name="Rectangle 44" class="cls-23" width="22.574" height="16.554" transform="translate(4.138)"/>
          <rect id="Rectangle_43" data-name="Rectangle 43" class="cls-63" width="30.851" height="37.999" rx="6" transform="translate(0 5.267)"/>
        </g>
        <g id="Group_22" data-name="Group 22" transform="translate(0)">
          <rect id="Rectangle_44-2" data-name="Rectangle 44" class="cls-23" width="22.574" height="16.554" transform="translate(4.138)"/>
          <rect id="Rectangle_43-2" data-name="Rectangle 43" class="cls-64" width="30.851" height="37.999" rx="6" transform="translate(0 5.267)"/>
        </g>
        <g id="Group_23" data-name="Group 23" transform="translate(55.455)">
          <rect id="Rectangle_44-3" data-name="Rectangle 44" class="cls-23" width="22.574" height="16.554" transform="translate(4.138)"/>
          <rect id="Rectangle_43-3" data-name="Rectangle 43" class="cls-64" width="30.851" height="37.999" rx="6" transform="translate(0 5.267)"/>
        </g>
      </g>
    </g>
    <g id="Group_83" data-name="Group 83" transform="translate(837.377 3786.758)">
      <rect id="Rectangle_67" data-name="Rectangle 67" class="cls-65" width="324.164" height="137.631" transform="translate(1.667 52.237)"/>
      <path id="Path_39" data-name="Path 39" class="cls-66" d="M-31.6,0h305.64V53.719H-50.19Z" transform="translate(51.787 0)"/>
      <g id="Group_38" data-name="Group 38" transform="translate(14.418 6.298)">
        <path id="Path_41" data-name="Path 41" class="cls-67" d="M-33.052,0h281.7V53.719H-50.19Z" transform="translate(50.19)"/>
        <path id="Intersection_1" data-name="Intersection 1" class="cls-68" d="M0,10.744,3.428,0H298.836V10.744Z" transform="translate(0 42.975)"/>
      </g>
      <rect id="Rectangle_69" data-name="Rectangle 69" class="cls-41" width="325.831" height="41.493" transform="translate(0 150.042)"/>
    </g>
    <rect id="Rectangle_85" data-name="Rectangle 85" class="cls-69" width="1419.436" height="130.22" transform="translate(-27 3965.78)"/>
    <rect id="Rectangle_91" data-name="Rectangle 91" class="cls-69" width="1419.436" height="130.22" transform="translate(-27 2936.78)"/>
  </g>
</svg>
